{"glyphs":{"0":{"ha":700,"x_min":0,"x_max":0,"o":"m 575 165 b 554 94 575 139 568 115 b 485 21 544 79 503 35 b 401 -6 463 4 431 -6 l 228 -6 b 146 21 199 -6 168 4 b 76 94 128 35 86 79 b 56 165 63 115 56 139 l 56 667 b 76 739 56 693 63 718 b 146 813 86 754 128 799 b 228 839 168 829 199 839 l 401 839 b 485 813 431 839 463 829 b 554 739 503 799 544 754 b 575 667 568 718 575 693 l 575 165 m 494 664 b 490 688 494 672 493 682 b 424 756 478 711 446 743 b 400 761 417 760 408 761 l 229 761 b 206 756 221 761 213 760 b 139 688 183 743 151 711 b 136 664 136 682 136 672 l 136 168 b 139 146 136 160 136 151 b 206 78 151 122 183 90 b 229 72 213 74 221 72 l 400 72 b 424 78 408 72 417 74 b 490 146 446 90 478 122 b 494 168 493 151 494 160 "},"1":{"ha":700,"x_min":0,"x_max":0,"o":"m 90 0 l 90 78 l 292 78 l 292 756 l 103 756 l 103 833 l 372 833 l 372 78 l 560 78 l 560 0 "},"2":{"ha":700,"x_min":0,"x_max":0,"o":"m 574 569 b 486 439 574 511 535 465 l 196 283 b 151 218 171 269 151 246 l 151 78 l 563 78 l 563 0 l 71 0 l 71 225 b 160 354 71 283 106 325 l 451 510 b 493 574 475 522 493 546 l 493 664 b 489 688 493 672 492 682 b 422 756 476 711 444 743 b 399 761 415 760 407 761 l 247 761 b 226 757 240 761 231 760 b 133 651 197 742 150 690 l 54 675 b 85 729 63 694 75 715 b 171 817 104 756 142 799 b 243 839 190 829 221 839 l 400 839 b 483 813 429 839 461 829 b 553 739 501 799 543 754 b 574 667 567 718 574 693 l 574 569 "},"3":{"ha":700,"x_min":0,"x_max":0,"o":"m 578 165 b 557 93 578 139 571 114 b 488 19 547 78 506 33 b 406 -7 465 3 435 -7 l 243 -7 b 172 15 221 -7 192 3 b 86 101 143 33 106 75 b 54 157 76 115 63 138 l 135 179 b 228 75 154 142 199 90 b 247 71 232 72 240 71 l 404 71 b 428 76 413 71 421 72 b 493 144 450 89 481 121 b 497 167 496 150 497 158 l 497 290 b 493 313 497 299 496 307 b 428 379 481 336 450 367 b 406 385 422 382 414 385 l 239 385 l 239 463 l 404 463 b 428 467 413 463 422 464 b 493 533 450 479 481 510 b 497 557 496 539 497 549 l 497 664 b 493 688 497 672 496 682 b 428 757 481 711 450 744 b 404 761 421 761 413 761 l 247 761 b 228 757 240 761 232 760 b 135 653 199 742 151 692 l 56 675 b 86 729 64 694 76 715 b 172 818 106 756 143 800 b 243 839 192 831 221 839 l 406 839 b 488 813 435 839 465 829 b 557 739 506 799 547 754 b 578 667 571 718 578 693 l 578 554 b 557 482 578 528 571 503 b 503 424 549 469 522 442 b 557 365 522 406 549 378 b 578 293 571 344 578 319 l 578 165 "},"4":{"ha":700,"x_min":0,"x_max":0,"o":"m 610 274 l 610 196 l 519 196 l 519 0 l 439 0 l 439 196 l 49 196 l 49 274 l 401 833 l 519 833 l 519 274 l 610 274 m 140 274 l 439 274 l 439 749 l 140 274 "},"5":{"ha":700,"x_min":0,"x_max":0,"o":"m 579 165 b 558 93 579 139 572 114 b 489 19 549 78 507 33 b 406 -7 467 3 435 -7 l 244 -7 b 172 15 222 -7 192 3 b 86 101 143 33 106 75 b 54 157 76 115 63 138 l 135 179 b 228 75 154 142 199 90 b 249 71 232 72 242 71 l 404 71 b 429 76 413 71 422 72 b 494 144 451 89 482 121 b 499 167 497 150 499 158 l 499 325 b 494 349 499 333 497 343 b 429 415 482 372 451 403 b 404 421 422 419 413 421 l 96 421 l 96 833 l 536 833 l 536 756 l 176 756 l 176 499 l 406 499 b 489 471 435 499 467 488 b 558 400 507 457 549 415 b 579 328 572 379 579 354 l 579 165 "},"6":{"ha":700,"x_min":0,"x_max":0,"o":"m 574 165 b 553 93 574 139 567 114 b 483 19 543 78 501 33 b 401 -7 461 3 431 -7 l 228 -7 b 146 19 199 -7 168 3 b 76 93 128 33 86 78 b 56 165 63 114 56 139 l 56 667 b 76 739 56 693 63 718 b 146 813 86 754 128 799 b 228 839 168 829 199 839 l 386 839 b 457 818 408 839 438 831 b 543 729 486 800 524 756 b 575 675 553 715 567 694 l 494 653 b 401 757 478 692 431 742 b 381 761 397 760 388 761 l 229 761 b 206 757 221 761 213 761 b 140 688 183 744 153 711 b 136 664 138 682 136 672 l 136 447 b 185 493 153 465 169 483 b 257 513 204 506 235 513 l 401 513 b 483 488 431 513 461 504 b 553 417 501 474 543 432 b 574 343 567 396 574 369 l 574 165 m 493 342 b 489 364 493 350 492 358 b 424 432 476 388 446 419 b 400 438 417 436 408 438 l 261 438 b 242 433 254 438 246 436 b 143 350 218 421 163 383 b 136 336 142 347 138 340 l 136 167 b 140 144 136 158 138 150 b 207 76 153 121 185 89 b 229 71 214 72 221 71 l 400 71 b 424 76 408 71 417 72 b 489 144 446 89 476 121 b 493 167 492 150 493 158 "},"7":{"ha":700,"x_min":0,"x_max":0,"o":"m 210 0 l 121 0 l 478 756 l 49 756 l 49 833 l 568 833 l 568 764 "},"8":{"ha":700,"x_min":0,"x_max":0,"o":"m 574 165 b 553 93 574 139 567 114 b 483 19 543 78 501 33 b 401 -7 461 3 431 -7 l 228 -7 b 146 19 199 -7 168 3 b 76 93 128 33 86 78 b 56 165 63 114 56 139 l 56 292 b 76 364 56 318 63 343 b 131 422 85 376 111 404 b 76 482 111 440 85 469 b 56 554 63 503 56 528 l 56 667 b 76 740 56 693 63 719 b 146 813 86 756 128 799 b 228 839 168 829 199 839 l 401 839 b 483 813 431 839 461 829 b 553 740 501 799 543 756 b 574 667 567 719 574 693 l 574 554 b 553 482 574 528 567 503 b 499 422 544 469 518 440 b 553 364 518 404 544 376 b 574 292 567 343 574 318 l 574 165 m 493 664 b 489 688 493 672 492 682 b 422 756 476 711 444 743 b 400 761 415 760 408 761 l 229 761 b 206 756 221 761 213 760 b 140 688 183 743 153 711 b 136 664 138 682 136 672 l 136 557 b 140 533 136 549 138 539 b 206 465 153 510 183 478 b 229 461 213 461 221 461 l 400 461 b 422 467 408 461 415 463 b 489 533 444 479 476 510 b 493 557 492 539 493 549 m 493 289 b 489 311 493 297 492 306 b 422 378 476 335 444 365 b 400 383 415 382 408 383 l 229 383 b 206 378 221 383 213 382 b 140 311 183 365 153 335 b 136 289 138 306 136 297 l 136 167 b 140 144 136 158 138 150 b 206 76 153 121 183 89 b 229 71 213 72 221 71 l 400 71 b 422 76 408 71 415 72 b 489 144 444 89 476 121 b 493 167 492 150 493 158 "},"9":{"ha":700,"x_min":0,"x_max":0,"o":"m 575 165 b 554 93 575 139 568 114 b 485 19 544 78 503 33 b 401 -7 463 3 431 -7 l 244 -7 b 174 14 222 -7 193 1 b 88 103 144 32 107 76 b 54 157 78 117 63 138 l 135 179 b 229 75 151 140 200 90 b 250 71 233 72 243 71 l 400 71 b 425 75 408 71 418 71 b 490 144 447 88 478 121 b 494 168 493 150 494 160 l 494 390 b 444 344 478 372 460 354 b 374 325 425 332 396 325 l 229 325 b 146 350 200 325 168 333 b 76 421 128 364 86 406 b 56 494 63 442 56 468 l 56 667 b 76 739 56 693 63 718 b 146 813 86 754 128 799 b 229 839 168 829 200 839 l 401 839 b 485 813 431 839 463 829 b 554 739 503 799 544 754 b 575 667 568 718 575 693 l 575 165 m 494 665 b 490 688 494 674 493 682 b 424 756 478 711 446 743 b 400 761 417 760 408 761 l 231 761 b 206 756 222 761 213 760 b 140 688 183 743 153 711 b 136 665 138 682 136 674 l 136 496 b 140 474 136 488 138 479 b 206 406 153 450 183 418 b 231 400 213 401 222 400 l 369 400 b 388 404 376 400 383 401 b 488 488 411 417 468 454 b 494 501 489 490 493 497 "},"\r":{"ha":694,"x_min":0,"x_max":0,"o":""}," ":{"ha":317,"x_min":0,"x_max":0,"o":""},"ý":{"ha":583,"x_min":0,"x_max":0,"o":"m 424 597 l 504 597 l 233 -233 l 154 -233 l 233 0 l 201 0 l 7 597 l 88 597 l 251 76 l 260 76 l 424 597 m 194 732 l 313 886 l 410 886 l 268 707 "},"ð":{"ha":660,"x_min":0,"x_max":0,"o":"m 528 164 b 508 93 528 139 522 114 b 440 19 497 78 458 33 b 360 -7 418 3 388 -7 l 225 -7 b 144 19 197 -7 167 3 b 76 93 126 33 86 78 b 56 164 63 113 56 138 l 56 436 b 76 510 56 461 63 489 b 144 579 86 525 126 565 b 225 604 167 596 197 604 l 329 604 b 401 585 351 604 383 600 b 453 529 419 569 438 550 l 453 568 b 407 636 453 597 433 622 l 331 678 l 251 640 b 219 696 251 640 219 694 l 260 715 b 136 779 217 738 179 757 l 169 842 l 336 756 b 454 819 376 776 414 797 l 486 760 l 410 718 l 440 703 b 528 575 494 674 528 632 m 453 431 l 447 442 b 346 531 426 479 372 517 b 325 535 343 533 333 535 l 226 535 b 201 529 217 535 208 533 b 135 458 178 517 147 485 b 131 435 132 453 131 444 l 131 165 b 135 142 131 156 132 147 b 201 71 147 117 178 85 b 226 65 208 67 217 65 l 358 65 b 382 71 368 65 375 67 b 449 142 404 85 436 118 b 453 165 451 147 453 156 "},"Ž":{"ha":667,"x_min":0,"x_max":0,"o":"m 53 0 l 53 69 l 461 756 l 53 756 l 53 833 l 558 833 l 558 761 l 153 78 l 558 78 l 558 0 m 475 1078 l 346 917 l 267 917 l 138 1078 l 232 1078 l 307 986 l 381 1078 "},"ž":{"ha":586,"x_min":0,"x_max":0,"o":"m 53 0 l 53 67 l 367 525 l 42 525 l 42 597 l 460 597 l 460 529 l 147 72 l 475 72 l 475 0 m 436 883 l 307 722 l 228 722 l 99 883 l 193 883 l 268 792 l 342 883 "},"½":{"ha":914,"x_min":0,"x_max":0,"o":"m 265 0 l 181 0 l 617 835 l 701 835 m 92 429 l 92 486 l 174 486 l 174 776 l 92 776 l 92 833 l 231 833 l 231 486 l 310 486 l 310 429 m 856 268 b 775 181 856 214 821 194 l 615 128 b 585 82 593 117 585 107 l 585 65 l 854 65 l 854 0 l 518 0 l 518 88 b 599 190 518 140 547 175 l 751 238 b 790 278 772 249 790 253 l 790 286 b 788 299 790 294 790 293 b 733 342 776 319 753 331 b 711 346 728 344 719 346 l 649 346 b 631 343 643 346 635 346 b 556 290 610 332 581 308 l 511 335 b 586 392 540 357 560 375 b 651 411 604 403 631 411 l 714 411 b 783 388 740 411 763 401 b 838 340 803 375 828 353 b 856 289 851 322 854 313 "},"¼":{"ha":915,"x_min":0,"x_max":0,"o":"m 265 0 l 181 0 l 617 833 l 701 833 m 92 429 l 92 486 l 174 486 l 174 776 l 92 776 l 92 833 l 231 833 l 231 486 l 310 486 l 310 429 m 713 100 l 713 0 l 656 0 l 656 100 l 450 100 l 450 158 l 656 411 l 713 411 l 713 158 l 781 158 l 781 100 m 656 321 l 524 158 l 656 158 "},"¹":{"ha":421,"x_min":0,"x_max":0,"o":"m 92 429 l 92 486 l 174 486 l 174 778 l 92 778 l 92 835 l 231 835 l 231 486 l 310 486 l 310 429 "},"¾":{"ha":915,"x_min":0,"x_max":0,"o":"m 265 0 l 181 0 l 617 835 l 701 835 m 378 554 b 360 500 378 531 374 518 b 306 453 350 488 322 465 b 235 431 286 438 261 431 l 172 431 b 108 449 151 431 126 438 b 32 506 82 465 61 483 l 78 550 b 151 497 103 532 131 508 b 169 494 156 494 164 494 l 232 494 b 254 499 240 494 249 496 b 308 540 274 510 297 519 b 313 553 311 546 314 544 l 311 567 b 274 606 308 592 294 594 l 163 606 l 163 664 l 274 664 b 311 704 294 675 308 679 l 313 715 b 308 729 314 724 311 724 b 254 772 297 750 274 761 b 232 776 249 775 240 776 l 169 776 b 151 772 164 776 156 775 b 78 719 131 761 103 738 l 32 765 b 108 819 61 788 82 803 b 172 839 126 831 151 839 l 235 839 b 304 817 261 839 283 831 b 360 771 322 804 350 783 b 378 718 374 753 378 742 l 378 696 b 354 633 378 668 369 647 b 378 575 369 618 378 599 m 713 100 l 713 0 l 656 0 l 656 100 l 450 100 l 450 158 l 656 411 l 713 411 l 713 158 l 781 158 l 781 100 m 656 321 l 524 158 l 656 158 "},"³":{"ha":421,"x_min":0,"x_max":0,"o":"m 378 554 b 360 500 378 531 374 518 b 306 453 350 488 322 465 b 235 431 286 438 261 431 l 172 431 b 108 449 151 431 126 438 b 32 506 82 465 61 483 l 78 550 b 151 497 103 532 131 508 b 169 494 156 494 164 494 l 232 494 b 254 499 240 494 249 496 b 308 540 274 510 297 519 b 313 553 311 546 314 544 l 311 567 b 274 606 308 592 294 594 l 163 606 l 163 664 l 274 664 b 311 704 294 675 308 679 l 313 715 b 308 729 314 724 311 724 b 254 772 297 750 274 761 b 232 776 249 775 240 776 l 169 776 b 151 772 164 776 156 775 b 78 719 131 761 103 738 l 32 765 b 108 819 61 788 82 803 b 172 839 126 831 151 839 l 235 839 b 304 817 261 839 283 831 b 360 771 322 804 350 783 b 378 718 374 753 378 742 l 378 696 b 354 633 378 668 369 647 b 378 575 369 618 378 599 "},"²":{"ha":421,"x_min":0,"x_max":0,"o":"m 375 697 b 294 610 375 643 340 624 l 135 557 b 104 511 113 546 104 536 l 104 494 l 374 494 l 374 429 l 38 429 l 38 517 b 118 619 38 569 67 604 l 271 667 b 310 707 292 678 310 682 l 310 715 b 307 728 310 724 310 722 b 253 771 296 749 272 760 b 231 775 247 774 239 775 l 168 775 b 150 772 163 775 154 775 b 75 719 129 761 100 738 l 31 764 b 106 821 60 786 79 804 b 171 840 124 832 150 840 l 233 840 b 303 817 260 840 282 831 b 357 769 322 804 347 782 b 375 718 371 751 374 742 "},"¦":{"ha":210,"x_min":0,"x_max":0,"o":"m 28 474 l 28 950 l 103 950 l 103 474 m 28 -131 l 28 344 l 103 344 l 103 -131 "},"−":{"ha":632,"x_min":0,"x_max":0,"o":"m 56 308 l 56 381 l 507 381 l 507 308 "},"×":{"ha":597,"x_min":0,"x_max":0,"o":"m 514 158 l 461 106 l 275 292 l 90 106 l 38 158 l 222 344 l 39 528 l 92 581 l 275 397 l 460 582 l 513 528 l 328 344 l 514 158 "},"Ý":{"ha":621,"x_min":0,"x_max":0,"o":"m 315 356 l 315 0 l 235 0 l 235 356 l -24 833 l 65 833 l 275 438 l 488 833 l 575 833 m 171 926 l 289 1081 l 386 1081 l 244 901 "},"!":{"ha":314,"x_min":0,"x_max":0,"o":"m 79 235 l 79 832 l 154 832 l 154 235 m 61 0 l 61 108 l 169 108 l 169 0 "},"\"":{"ha":515,"x_min":0,"x_max":0,"o":"m 375 642 l 301 642 l 311 736 l 311 900 l 383 900 l 383 718 m 175 642 l 101 642 l 111 736 l 111 900 l 183 900 l 183 718 "},"#":{"ha":728,"x_min":0,"x_max":0,"o":"m 600 489 l 478 489 l 450 331 l 572 331 l 560 258 l 438 258 l 411 110 l 338 110 l 364 258 l 231 258 l 204 110 l 131 110 l 157 258 l 35 258 l 47 331 l 169 331 l 197 489 l 75 489 l 88 561 l 210 561 l 235 704 l 308 704 l 283 561 l 417 561 l 442 704 l 515 704 l 490 561 l 613 561 m 271 489 l 243 331 l 376 331 l 404 489 "},"$":{"ha":761,"x_min":0,"x_max":0,"o":"m 643 179 b 626 111 643 156 639 131 b 531 15 611 88 556 31 b 460 -7 511 3 482 -7 l 375 -7 l 375 -131 l 304 -131 l 304 -7 l 229 -7 b 157 15 207 -7 176 3 b 71 103 128 33 90 76 b 40 157 61 117 49 138 l 119 179 b 129 163 125 167 129 163 b 214 75 149 129 190 88 b 233 71 218 72 226 71 l 304 71 l 304 389 l 135 435 b 49 565 81 450 49 507 l 49 651 b 65 719 49 675 53 700 b 161 817 81 743 136 801 b 232 839 181 829 210 839 l 304 839 l 304 957 l 375 957 l 375 839 l 442 839 b 513 817 464 839 493 829 b 599 729 542 799 579 756 b 631 675 608 715 622 694 l 550 651 b 540 669 544 664 540 669 b 456 757 522 703 479 744 b 438 761 451 760 444 761 l 375 761 l 375 451 l 554 403 b 643 274 608 388 643 332 l 643 179 m 375 369 l 375 71 l 454 71 b 471 75 461 71 467 72 b 558 163 493 86 540 131 b 563 181 561 168 563 174 l 563 265 b 518 331 563 293 544 324 m 129 571 b 172 508 129 543 147 515 l 304 471 l 304 761 l 239 761 b 221 757 232 761 225 760 b 135 669 199 746 153 701 b 129 651 132 664 129 658 l 129 571 "},"%":{"ha":990,"x_min":0,"x_max":0,"o":"m 392 568 b 375 501 392 542 388 521 b 317 440 365 488 335 454 b 239 415 297 426 267 415 l 182 415 b 106 440 156 415 126 426 b 47 501 88 454 57 488 b 31 568 35 521 31 542 l 31 690 b 47 758 31 717 35 739 b 106 819 57 772 88 806 b 182 843 126 832 156 843 l 239 843 b 317 819 267 843 297 832 b 375 758 335 806 365 772 b 392 690 388 739 392 717 m 318 688 b 317 710 318 697 318 704 l 317 708 b 260 768 306 728 278 757 b 239 774 253 772 244 774 l 183 774 b 163 768 178 774 169 772 b 107 708 144 757 118 729 b 104 688 104 703 104 696 l 104 571 b 107 550 104 563 104 556 b 163 492 118 529 144 503 b 183 486 169 488 178 486 l 239 486 b 260 492 244 486 253 488 b 317 550 278 503 306 531 l 317 549 b 318 571 318 554 318 561 m 875 146 b 858 78 875 119 871 97 b 800 18 849 65 818 32 b 722 -7 779 4 750 -7 l 665 -7 b 589 18 639 -7 608 4 b 531 78 571 32 540 65 b 514 146 518 97 514 119 l 514 268 b 531 336 514 294 518 317 b 589 396 540 350 571 382 b 665 421 608 410 639 421 l 722 421 b 800 396 750 421 779 410 b 858 336 818 382 849 350 b 875 268 871 317 875 294 m 801 265 b 800 288 801 275 801 282 l 800 286 b 743 346 789 306 760 335 b 722 351 736 350 728 351 l 667 351 b 646 346 661 351 653 350 b 590 286 626 335 600 307 b 588 265 588 281 588 274 l 588 149 b 590 128 588 140 588 133 b 646 69 600 107 626 79 b 667 64 653 65 661 64 l 722 64 b 743 69 728 64 736 65 b 800 128 760 79 789 108 l 800 126 b 801 149 801 132 801 139 m 275 0 l 189 0 l 628 833 l 713 833 "},"&":{"ha":771,"x_min":0,"x_max":0,"o":"m 614 299 l 614 165 b 593 94 614 139 607 115 b 524 21 583 79 542 35 b 439 -6 501 4 468 -6 l 229 -6 b 147 21 200 -6 169 4 b 78 94 129 35 88 79 b 57 165 64 115 57 139 l 57 290 b 78 363 57 317 64 342 b 132 421 86 375 113 403 b 78 479 113 439 86 467 b 57 553 64 500 57 526 l 57 665 b 78 739 57 692 64 718 b 147 811 88 754 129 797 b 229 839 169 828 200 839 l 363 839 b 435 817 385 839 415 829 b 521 728 464 799 501 754 b 551 674 531 714 543 693 l 472 651 b 379 756 456 690 408 740 b 358 760 375 758 365 760 l 231 760 b 208 754 222 760 215 758 b 142 686 186 742 154 710 b 138 663 139 681 138 671 l 138 556 b 142 532 138 547 139 538 b 208 465 154 508 186 478 b 231 460 215 461 222 460 l 393 460 l 393 383 l 231 383 b 208 378 222 383 215 382 b 142 310 186 365 154 333 b 138 288 139 304 138 296 l 138 168 b 142 146 138 160 139 151 b 208 79 154 122 186 92 b 231 74 215 75 222 74 l 439 74 b 463 79 447 74 456 75 b 529 146 485 92 517 122 b 533 168 532 151 533 160 l 533 374 l 669 374 l 669 299 "},"'":{"ha":315,"x_min":0,"x_max":0,"o":"m 175 642 l 101 642 l 111 736 l 111 900 l 183 900 l 183 718 "},"(":{"ha":433,"x_min":0,"x_max":0,"o":"m 254 -64 l 133 56 b 78 119 111 78 88 106 b 60 186 65 139 60 163 l 60 654 b 78 721 60 678 65 701 b 133 786 88 735 111 764 l 254 906 l 308 849 l 192 733 b 143 676 172 715 154 696 b 139 651 140 671 139 658 l 139 189 b 143 167 139 182 140 172 b 192 107 154 147 172 125 l 308 -7 "},")":{"ha":444,"x_min":0,"x_max":0,"o":"m 69 -7 l 186 107 b 235 167 206 125 224 147 b 239 189 238 172 239 182 l 239 651 b 235 676 239 658 238 671 b 186 733 224 696 206 715 l 69 849 l 124 906 l 244 786 b 300 721 267 764 290 735 b 318 654 313 701 318 678 l 318 186 b 300 119 318 163 313 139 b 244 56 290 106 267 78 l 124 -64 "},"*":{"ha":628,"x_min":0,"x_max":0,"o":"m 321 715 l 488 771 l 510 700 l 343 647 l 447 507 l 389 464 l 286 606 l 185 464 l 125 507 l 229 647 l 63 700 l 85 771 l 250 715 l 249 890 l 324 890 "},"+":{"ha":726,"x_min":0,"x_max":0,"o":"m 358 310 l 358 101 l 286 101 l 286 310 l 78 310 l 78 382 l 286 382 l 286 590 l 358 590 l 358 382 l 567 382 l 567 310 "},",":{"ha":315,"x_min":0,"x_max":0,"o":"m 93 -121 l 7 -121 l 103 113 l 176 86 "},"-":{"ha":501,"x_min":0,"x_max":0,"o":"m 56 308 l 56 381 l 374 381 l 374 308 "},".":{"ha":307,"x_min":0,"x_max":0,"o":"m 56 0 l 56 108 l 164 108 l 164 0 "},"/":{"ha":586,"x_min":0,"x_max":0,"o":"m 89 0 l 0 0 l 440 833 l 528 833 "},":":{"ha":307,"x_min":0,"x_max":0,"o":"m 56 397 l 56 506 l 164 506 l 164 397 m 56 0 l 56 108 l 164 108 l 164 0 "},";":{"ha":315,"x_min":0,"x_max":0,"o":"m 60 397 l 60 506 l 168 506 l 168 397 m 93 -121 l 7 -121 l 103 113 l 176 86 "},"<":{"ha":996,"x_min":0,"x_max":0,"o":"m 150 382 l 532 0 l 432 0 l 14 418 l 432 838 l 532 838 l 150 456 l 871 456 l 871 382 "},"=":{"ha":661,"x_min":0,"x_max":0,"o":"m 58 386 l 58 461 l 536 461 l 536 386 m 58 231 l 58 306 l 536 306 l 536 231 "},">":{"ha":996,"x_min":0,"x_max":0,"o":"m 481 0 l 381 0 l 763 382 l 42 382 l 42 456 l 763 456 l 381 838 l 481 838 l 899 418 "},"?":{"ha":631,"x_min":0,"x_max":0,"o":"m 564 572 b 476 442 564 514 525 467 l 385 393 b 340 328 361 381 340 356 l 340 236 l 260 236 l 260 335 b 347 464 260 393 293 436 l 442 513 b 483 576 465 525 483 549 l 483 664 b 479 688 483 672 482 682 b 413 756 467 711 435 743 b 389 761 406 760 397 761 l 224 761 b 203 757 217 761 207 760 b 110 651 174 742 126 690 l 31 675 b 147 817 56 728 96 779 b 219 839 165 831 197 839 l 390 839 b 474 813 419 839 451 829 b 543 739 492 799 533 754 b 564 667 557 718 564 693 l 564 572 m 247 0 l 247 106 l 353 106 l 353 0 "},"@":{"ha":875,"x_min":0,"x_max":0,"o":"m 550 839 b 622 817 572 839 603 829 b 715 719 663 792 693 753 b 733 651 728 700 733 675 l 733 99 l 742 0 l 667 0 l 658 72 b 604 22 640 51 621 35 b 535 -7 583 7 558 -7 l 468 -7 b 383 19 436 -7 406 3 b 321 86 365 35 332 71 b 300 160 307 107 300 132 l 300 428 b 321 501 300 457 307 481 b 383 568 332 517 365 553 b 468 594 406 585 436 594 l 535 594 b 604 567 558 594 583 582 b 658 518 621 554 639 539 l 660 518 l 660 651 b 656 672 660 658 658 667 b 565 763 638 704 588 751 b 547 767 561 765 554 767 l 253 767 b 235 763 246 767 239 765 b 142 669 213 751 160 701 b 138 649 139 664 138 656 l 138 -43 b 142 -61 138 -50 139 -56 b 235 -154 160 -93 213 -143 b 253 -158 239 -157 246 -158 l 297 -158 l 308 -231 l 246 -231 b 175 -208 224 -231 194 -221 b 81 -112 150 -193 96 -136 b 64 -44 68 -93 64 -68 l 64 651 b 79 719 64 675 67 700 b 175 817 94 743 150 801 b 246 839 194 829 224 839 l 550 839 m 375 163 b 379 139 375 153 376 144 b 444 71 392 115 422 83 b 469 65 451 67 460 65 l 531 65 b 550 69 538 65 544 67 b 656 154 572 81 638 121 b 658 161 656 154 657 157 l 658 426 b 656 433 657 431 656 433 b 550 518 638 467 572 507 b 531 522 544 521 538 522 l 469 522 b 444 517 460 522 451 521 b 379 449 422 504 392 472 b 375 425 376 443 375 435 l 375 163 "},"A":{"ha":746,"x_min":0,"x_max":0,"o":"m 593 0 l 531 193 l 144 193 l 81 0 l -4 0 l 275 833 l 400 833 l 679 0 l 593 0 m 169 271 l 506 271 l 346 754 l 328 754 l 169 271 "},"B":{"ha":751,"x_min":0,"x_max":0,"o":"m 615 171 b 596 100 615 144 610 121 b 526 26 586 85 544 40 b 443 0 504 10 472 0 l 68 0 l 68 833 l 443 833 b 526 806 472 833 504 822 b 596 733 544 792 586 749 b 615 660 610 713 615 686 l 615 553 b 596 479 615 526 610 500 b 542 421 588 467 561 439 b 596 363 561 403 588 375 b 615 289 610 342 615 315 l 615 171 m 535 658 b 531 681 535 667 533 675 b 465 750 518 704 488 738 b 442 756 458 754 450 756 l 149 756 l 149 458 l 443 458 b 465 464 451 458 460 461 b 531 532 488 476 518 508 b 535 556 533 538 535 547 m 535 288 b 531 310 535 296 533 304 b 465 378 518 333 488 365 b 443 382 460 381 451 382 l 149 382 l 149 78 l 442 78 b 465 83 450 78 458 79 b 531 151 488 96 518 128 b 535 174 533 157 535 165 "},"C":{"ha":725,"x_min":0,"x_max":0,"o":"m 618 157 b 586 103 610 138 596 117 b 500 15 567 76 529 33 b 429 -7 481 3 451 -7 l 246 -7 b 174 15 224 -7 193 3 b 79 111 149 31 94 88 b 61 178 67 131 61 154 l 61 653 b 79 719 61 676 67 700 b 174 817 94 743 149 801 b 244 839 193 829 222 839 l 429 839 b 500 817 451 839 481 829 b 586 729 529 799 567 756 b 618 675 596 715 610 694 l 538 651 b 444 757 521 690 474 742 b 425 761 440 760 432 761 l 251 761 b 233 757 244 761 238 760 b 146 669 211 746 164 701 b 142 650 143 664 142 657 l 142 181 b 146 163 142 174 143 168 b 233 75 164 131 211 86 b 251 71 238 72 244 71 l 425 71 b 444 75 432 71 440 72 b 538 179 474 90 518 142 l 618 157 "},"D":{"ha":756,"x_min":0,"x_max":0,"o":"m 617 185 b 600 118 617 161 613 138 b 506 22 585 94 531 38 b 435 0 486 10 457 0 l 68 0 l 68 833 l 435 833 b 506 813 457 833 486 825 b 600 714 531 797 585 738 b 617 647 613 694 617 671 l 617 185 m 536 644 b 532 665 536 651 535 660 b 446 751 514 697 468 740 b 428 756 442 754 435 756 l 149 756 l 149 78 l 428 78 b 446 82 435 78 442 79 b 532 169 468 93 514 138 b 536 188 535 175 536 181 l 536 644 "},"E":{"ha":692,"x_min":0,"x_max":0,"o":"m 68 0 l 68 833 l 546 833 l 546 756 l 149 756 l 149 456 l 525 456 l 525 378 l 149 378 l 149 78 l 546 78 l 546 0 "},"F":{"ha":668,"x_min":0,"x_max":0,"o":"m 149 756 l 149 456 l 525 456 l 525 378 l 149 378 l 149 0 l 68 0 l 68 833 l 546 833 l 546 756 "},"G":{"ha":801,"x_min":0,"x_max":0,"o":"m 589 0 l 579 68 b 531 15 564 49 542 22 b 460 -7 511 3 482 -7 l 246 -7 b 174 15 224 -7 193 3 b 79 111 149 31 94 88 b 61 178 67 131 61 154 l 61 651 b 79 719 61 675 67 700 b 174 817 94 743 149 801 b 246 839 193 829 224 839 l 460 839 b 532 817 482 839 513 829 b 618 728 561 799 599 754 b 650 675 628 714 642 694 l 569 651 b 475 757 553 690 504 742 b 456 761 471 760 463 761 l 251 761 b 233 757 244 761 238 760 b 146 669 211 746 164 701 b 142 649 143 664 142 656 l 142 181 b 146 163 142 174 143 168 b 233 75 164 131 211 86 b 253 71 238 72 246 71 l 453 71 b 471 75 460 71 467 72 b 560 164 493 86 542 132 b 564 182 563 169 564 175 l 564 383 l 374 383 l 374 460 l 644 460 l 644 164 b 665 0 644 124 658 38 "},"H":{"ha":772,"x_min":0,"x_max":0,"o":"m 542 0 l 542 378 l 149 378 l 149 0 l 68 0 l 68 833 l 149 833 l 149 456 l 542 456 l 542 833 l 622 833 l 622 0 "},"I":{"ha":300,"x_min":0,"x_max":0,"o":"m 68 0 l 68 833 l 149 833 l 149 0 "},"J":{"ha":632,"x_min":0,"x_max":0,"o":"m 493 181 b 475 113 493 157 488 132 b 382 17 460 89 407 32 b 310 -6 363 4 332 -6 l 201 -6 b 129 17 179 -6 149 4 b 44 104 100 35 64 78 b 14 158 35 118 22 139 l 92 181 b 185 76 111 143 156 92 b 206 72 189 74 199 72 l 303 72 b 319 76 310 72 315 74 b 407 164 342 88 389 132 b 413 182 410 169 413 175 l 413 833 l 493 833 l 493 181 "},"K":{"ha":697,"x_min":0,"x_max":0,"o":"m 511 0 l 165 378 l 149 378 l 149 0 l 68 0 l 68 833 l 149 833 l 149 454 l 165 454 l 510 833 l 615 833 l 233 417 l 617 0 "},"L":{"ha":632,"x_min":0,"x_max":0,"o":"m 68 0 l 68 833 l 149 833 l 149 78 l 538 78 l 538 0 "},"M":{"ha":903,"x_min":0,"x_max":0,"o":"m 675 0 l 675 747 l 438 224 l 383 224 l 147 747 l 147 0 l 69 0 l 69 833 l 185 833 l 411 346 l 639 833 l 753 833 l 753 0 "},"N":{"ha":764,"x_min":0,"x_max":0,"o":"m 510 0 l 147 711 l 147 0 l 69 0 l 69 833 l 176 833 l 536 115 l 536 833 l 614 833 l 614 0 "},"O":{"ha":788,"x_min":0,"x_max":0,"o":"m 649 179 b 631 111 649 156 643 131 b 536 15 615 88 561 31 b 464 -7 517 3 486 -7 l 244 -7 b 174 15 222 -7 193 3 b 78 111 149 31 93 88 b 61 179 65 131 61 156 l 61 651 b 78 719 61 675 65 700 b 174 817 93 743 149 801 b 244 839 193 829 222 839 l 464 839 b 536 817 486 839 517 829 b 631 719 561 801 615 743 b 649 651 643 700 649 675 l 649 179 m 568 649 b 564 669 568 656 567 664 b 476 757 546 701 499 746 b 458 761 472 760 465 761 l 251 761 b 233 757 244 761 238 760 b 147 669 211 746 165 701 b 142 649 144 664 142 656 l 142 181 b 147 163 142 174 144 168 b 233 75 165 131 211 86 b 251 71 238 72 244 71 l 458 71 b 476 75 465 71 472 72 b 564 163 499 86 546 131 b 568 181 567 168 568 174 "},"P":{"ha":725,"x_min":0,"x_max":0,"o":"m 617 539 b 596 467 617 513 610 488 b 525 394 586 451 543 408 b 443 368 503 378 472 368 l 149 368 l 149 0 l 68 0 l 68 833 l 443 833 b 525 807 472 833 503 824 b 596 733 543 793 586 749 b 617 661 610 713 617 688 l 617 539 m 536 658 b 533 682 536 667 536 676 b 465 751 521 706 488 739 b 442 756 458 756 450 756 l 149 756 l 149 446 l 442 446 b 465 451 450 446 458 447 b 533 518 488 464 521 494 b 536 542 536 524 536 533 "},"Q":{"ha":785,"x_min":0,"x_max":0,"o":"m 650 178 b 632 110 650 154 644 129 b 538 14 617 86 563 29 b 467 -8 518 1 489 -8 l 457 -8 l 510 -133 l 426 -133 l 376 -8 l 246 -8 b 174 14 224 -8 193 1 b 79 110 149 29 94 86 b 61 178 67 129 61 154 l 61 653 b 79 721 61 676 67 701 b 174 818 94 744 149 803 b 246 839 193 831 224 839 l 467 839 b 538 818 489 839 518 831 b 632 721 563 803 617 744 b 650 653 644 701 650 676 l 650 178 m 569 651 b 565 671 569 658 568 665 b 478 758 547 703 500 747 b 460 761 474 761 467 761 l 251 761 b 233 758 244 761 238 761 b 146 671 211 747 164 703 b 142 651 143 665 142 658 l 142 179 b 147 161 142 172 144 167 b 233 74 165 129 211 85 b 253 69 238 71 246 69 l 343 69 l 328 110 l 400 135 l 426 69 l 460 69 b 478 74 467 69 474 71 b 565 161 500 85 547 129 b 569 179 568 167 569 172 "},"R":{"ha":765,"x_min":0,"x_max":0,"o":"m 617 539 b 596 467 617 513 610 488 b 525 394 586 451 543 408 b 447 368 503 378 475 368 l 654 0 l 563 0 l 357 368 l 149 368 l 149 0 l 68 0 l 68 833 l 443 833 b 525 807 472 833 503 824 b 596 733 543 793 586 749 b 617 661 610 713 617 688 l 617 539 m 536 658 b 533 682 536 667 536 676 b 465 751 521 706 488 739 b 442 756 458 756 450 756 l 149 756 l 149 446 l 442 446 b 465 451 450 446 458 447 b 533 518 488 464 521 494 b 536 542 536 524 536 533 "},"S":{"ha":761,"x_min":0,"x_max":0,"o":"m 643 179 b 626 111 643 156 639 131 b 531 15 611 88 556 31 b 460 -7 511 3 482 -7 l 229 -7 b 157 15 207 -7 176 3 b 71 103 128 33 90 76 b 40 157 61 117 49 138 l 119 179 b 129 163 125 167 129 163 b 214 75 149 129 190 88 b 233 71 218 72 226 71 l 454 71 b 471 75 461 71 467 72 b 558 158 493 86 540 126 b 563 176 561 164 563 169 l 563 265 b 518 331 563 293 544 324 l 138 435 b 51 565 83 450 51 507 l 51 651 b 68 719 51 675 56 700 b 164 817 83 743 139 801 b 235 839 183 829 213 839 l 442 839 b 513 817 464 839 493 829 b 599 729 542 799 579 756 b 631 675 608 715 622 694 l 550 651 b 540 669 544 664 540 669 b 456 757 522 703 479 744 b 438 761 451 760 444 761 l 242 761 b 224 757 235 761 228 760 b 138 676 201 746 156 708 b 132 658 135 671 132 665 l 132 571 b 175 508 132 543 150 515 l 554 403 b 643 274 608 388 643 332 l 643 179 "},"T":{"ha":653,"x_min":0,"x_max":0,"o":"m 329 756 l 329 0 l 249 0 l 249 756 l 11 756 l 11 833 l 567 833 l 567 756 "},"U":{"ha":760,"x_min":0,"x_max":0,"o":"m 621 178 b 604 111 621 154 617 131 b 510 15 589 88 535 31 b 439 -7 490 3 461 -7 l 253 -7 b 181 15 231 -7 200 3 b 86 111 156 31 101 88 b 68 178 74 131 68 154 l 68 833 l 149 833 l 149 181 b 154 163 149 174 151 168 b 242 75 172 131 219 86 b 260 71 246 72 253 71 l 432 71 b 450 75 439 71 446 72 b 535 163 472 86 517 131 b 540 181 538 168 540 174 l 540 833 l 621 833 l 621 178 "},"V":{"ha":724,"x_min":0,"x_max":0,"o":"m 383 0 l 258 0 l -7 833 l 78 833 l 311 86 l 331 86 l 563 833 l 647 833 "},"W":{"ha":1017,"x_min":0,"x_max":0,"o":"m 756 0 l 640 0 l 471 726 l 307 0 l 192 0 l 7 833 l 90 833 l 246 88 l 254 88 l 418 833 l 522 833 l 693 88 l 701 88 l 850 833 l 936 833 "},"X":{"ha":690,"x_min":0,"x_max":0,"o":"m 306 354 l 86 0 l -4 0 l 261 426 l 10 833 l 99 833 l 306 499 b 513 833 372 607 444 725 l 601 833 l 351 426 l 615 0 l 525 0 "},"Y":{"ha":631,"x_min":0,"x_max":0,"o":"m 325 356 l 325 0 l 244 0 l 244 356 l -14 833 l 75 833 l 285 438 l 497 833 l 585 833 "},"Z":{"ha":667,"x_min":0,"x_max":0,"o":"m 53 0 l 53 69 l 461 756 l 53 756 l 53 833 l 558 833 l 558 761 l 153 78 l 558 78 l 558 0 "},"[":{"ha":400,"x_min":0,"x_max":0,"o":"m 60 0 l 60 833 l 275 833 l 275 761 l 140 761 l 140 72 l 275 72 l 275 0 "},"\\":{"ha":586,"x_min":0,"x_max":0,"o":"m 468 0 l 31 839 l 118 839 l 557 0 "},"]":{"ha":435,"x_min":0,"x_max":0,"o":"m 69 0 l 69 72 l 204 72 l 204 761 l 69 761 l 69 833 l 285 833 l 285 0 "},"^":{"ha":421,"x_min":0,"x_max":0,"o":"m 181 753 l 85 429 l 11 429 l 143 833 l 221 833 l 351 429 l 276 429 "},"_":{"ha":628,"x_min":0,"x_max":0,"o":"m 49 -96 l 49 -24 l 551 -24 l 551 -96 "},"`":{"ha":515,"x_min":0,"x_max":0,"o":"m 275 707 l 133 886 l 231 886 l 349 732 "},"a":{"ha":653,"x_min":0,"x_max":0,"o":"m 450 0 l 438 69 b 385 22 421 51 400 33 b 317 -7 364 7 340 -7 l 194 -7 b 110 19 163 -7 132 3 b 49 85 92 35 60 69 b 28 158 35 106 28 131 l 28 186 b 49 260 28 215 35 239 b 110 325 60 275 92 310 b 194 351 132 342 163 351 l 436 351 l 436 436 b 433 458 436 447 435 454 b 367 526 421 482 389 514 b 342 532 360 531 351 532 l 211 532 b 188 526 201 532 194 531 b 121 457 165 514 136 481 l 49 481 b 69 513 53 488 60 500 b 132 579 82 531 113 564 b 215 604 154 596 183 604 l 343 604 b 429 578 375 604 407 594 b 492 513 450 565 481 528 b 511 438 507 492 511 465 l 511 99 l 525 0 m 332 69 b 436 154 354 81 418 121 l 436 281 l 196 281 b 171 275 186 281 178 279 b 107 208 149 263 119 232 b 103 186 104 203 103 196 l 103 158 b 107 136 103 149 104 142 b 171 71 119 113 149 83 b 196 65 178 67 186 65 l 313 65 b 332 69 319 65 326 67 "},"b":{"ha":671,"x_min":0,"x_max":0,"o":"m 518 511 b 539 438 532 490 539 467 l 539 160 b 518 86 539 132 532 107 b 456 19 507 71 474 35 b 371 -7 433 3 403 -7 l 263 -7 b 193 22 239 -7 214 7 b 139 74 176 35 157 53 l 131 0 l 56 0 l 64 99 l 64 833 l 139 833 l 139 525 b 193 575 158 546 176 563 b 263 604 214 590 239 604 l 371 604 b 456 578 403 604 433 594 b 518 511 476 565 507 526 m 464 435 b 460 458 464 444 463 453 b 394 526 447 482 417 514 b 369 532 388 531 379 532 l 267 532 b 247 528 260 532 253 531 b 142 443 225 517 160 476 b 139 436 142 443 140 440 l 139 161 b 142 154 140 157 142 154 b 247 69 160 121 225 81 b 267 65 253 67 260 65 l 369 65 b 394 71 379 65 388 67 b 460 139 417 83 447 115 b 464 163 463 144 464 153 "},"c":{"ha":633,"x_min":0,"x_max":0,"o":"m 525 117 b 443 19 508 86 476 43 b 358 -7 421 3 389 -7 l 217 -7 b 131 19 186 -7 153 3 b 68 86 111 33 79 71 b 49 160 54 107 49 132 l 49 438 b 68 511 49 465 54 490 b 131 578 79 526 111 564 b 217 604 153 594 186 604 l 354 604 b 439 578 385 604 417 594 b 521 479 474 553 503 508 l 449 456 b 382 526 438 479 404 514 b 357 532 375 531 367 532 l 218 532 b 193 526 208 532 200 531 b 128 458 171 514 140 482 b 124 435 125 453 124 444 l 124 163 b 128 139 124 153 125 144 b 192 71 140 115 169 83 b 217 65 199 67 207 65 l 361 65 b 386 71 371 65 379 67 b 451 139 408 83 442 118 l 453 142 l 525 117 "},"d":{"ha":664,"x_min":0,"x_max":0,"o":"m 69 511 b 132 578 81 526 114 563 b 217 604 154 594 185 604 l 325 604 b 394 575 349 604 374 590 b 449 525 411 563 429 546 l 449 833 l 524 833 l 524 99 l 532 0 l 457 0 l 449 74 b 394 22 431 53 411 35 b 325 -7 374 7 349 -7 l 217 -7 b 132 19 185 -7 154 3 b 69 86 114 35 81 71 b 49 160 56 107 49 132 l 49 438 b 69 511 49 467 56 490 m 124 163 b 128 139 124 153 125 144 b 193 71 140 115 171 83 b 218 65 200 67 208 65 l 321 65 b 340 69 328 65 335 67 b 446 154 363 81 428 121 b 449 161 446 154 447 157 l 449 436 b 446 443 447 440 446 443 b 340 528 428 476 363 517 b 321 532 335 531 328 532 l 218 532 b 193 526 208 532 200 531 b 128 458 171 514 140 482 b 124 435 125 453 124 444 l 124 163 "},"e":{"ha":654,"x_min":0,"x_max":0,"o":"m 451 139 l 453 142 l 526 117 b 507 86 521 106 515 99 b 444 19 496 71 464 33 b 360 -7 422 3 390 -7 l 218 -7 b 132 19 188 -7 154 3 b 69 86 113 33 81 71 b 49 160 56 107 49 132 l 49 438 b 69 511 49 465 56 490 b 132 578 81 526 113 564 b 218 604 154 594 188 604 l 357 604 b 443 578 388 604 421 594 b 506 511 463 564 494 526 b 525 438 519 490 525 465 l 525 267 l 124 267 l 124 163 b 128 139 124 153 125 144 b 193 71 140 115 171 83 b 217 65 200 67 207 65 l 363 65 b 388 71 372 65 381 67 b 451 139 410 83 440 118 m 128 458 b 124 435 125 453 124 444 l 124 338 l 450 338 l 450 435 b 447 458 450 444 450 453 b 381 526 435 482 403 514 b 356 532 374 531 365 532 l 218 532 b 194 526 208 532 201 531 b 128 458 172 514 140 482 "},"f":{"ha":453,"x_min":0,"x_max":0,"o":"m 282 767 b 253 763 272 767 260 767 b 190 696 231 750 203 719 b 188 671 188 690 188 681 l 188 597 l 357 597 l 357 525 l 188 525 l 188 0 l 113 0 l 113 525 l 14 525 l 14 597 l 113 597 l 113 674 b 132 747 113 701 118 726 b 194 814 143 763 175 800 b 281 839 217 831 250 839 l 397 839 l 397 767 "},"g":{"ha":688,"x_min":0,"x_max":0,"o":"m 539 497 l 539 -74 b 519 -147 539 -101 533 -126 b 457 -214 508 -162 476 -200 b 371 -240 435 -231 400 -240 l 229 -240 b 144 -214 200 -240 167 -231 b 63 -115 110 -189 81 -146 l 135 -92 l 136 -94 b 201 -162 146 -115 179 -150 b 225 -168 208 -167 215 -168 l 369 -168 b 394 -162 379 -168 388 -167 b 461 -94 417 -150 449 -118 b 464 -71 464 -89 464 -81 l 464 72 b 410 22 446 53 426 35 b 340 -7 390 8 364 -7 l 224 -7 b 138 19 194 -7 160 3 b 75 86 118 33 86 71 b 56 160 61 107 56 132 l 56 438 b 75 511 56 465 61 490 b 138 578 86 526 118 564 b 224 604 160 594 194 604 l 340 604 b 410 575 364 604 390 589 b 465 524 426 563 447 543 l 474 597 l 549 597 m 464 436 l 461 443 b 357 528 438 475 381 515 b 336 532 351 531 343 532 l 225 532 b 200 526 215 532 207 531 b 135 458 178 514 147 482 b 131 435 132 453 131 444 l 131 163 b 135 139 131 153 132 144 b 200 71 147 115 178 83 b 225 65 207 67 215 65 l 336 65 b 357 69 343 65 351 67 b 461 154 381 82 438 122 l 464 161 "},"h":{"ha":658,"x_min":0,"x_max":0,"o":"m 447 0 l 447 435 b 443 458 447 444 446 453 b 378 526 431 482 400 514 b 353 532 371 531 363 532 l 258 532 b 238 528 251 532 243 531 b 133 443 214 515 153 478 b 131 438 132 442 132 439 l 131 0 l 56 0 l 56 833 l 131 833 l 131 525 b 185 575 149 544 168 563 b 254 604 204 589 231 604 l 354 604 b 439 578 383 604 417 594 b 501 511 458 564 490 526 b 522 438 515 490 522 465 l 522 0 "},"i":{"ha":292,"x_min":0,"x_max":0,"o":"m 74 0 l 74 597 l 149 597 l 149 0 m 58 733 l 58 840 l 164 840 l 164 733 "},"j":{"ha":299,"x_min":0,"x_max":0,"o":"m 157 -74 b 136 -147 157 -101 150 -126 b 75 -214 125 -162 94 -200 b -10 -239 53 -231 19 -239 l -93 -239 l -93 -167 b 19 -160 4 -165 13 -164 b 78 -94 42 -147 65 -118 b 82 -71 81 -89 82 -81 l 82 597 l 157 597 l 157 -74 m 65 733 l 65 840 l 171 840 l 171 733 "},"k":{"ha":590,"x_min":0,"x_max":0,"o":"m 419 0 l 161 276 l 132 276 l 132 0 l 57 0 l 57 833 l 132 833 l 132 347 l 160 347 l 397 597 l 497 597 l 225 314 l 521 0 "},"l":{"ha":279,"x_min":0,"x_max":0,"o":"m 76 0 b 64 78 74 24 64 54 l 64 833 l 139 833 l 139 94 b 151 0 139 64 149 31 "},"m":{"ha":989,"x_min":0,"x_max":0,"o":"m 263 532 b 243 528 256 532 249 531 b 139 444 219 515 160 478 l 139 0 l 64 0 l 64 499 l 56 597 l 131 597 l 139 526 b 192 575 156 544 176 564 b 260 604 211 589 236 604 l 329 604 b 415 578 358 604 393 594 b 478 511 435 564 467 526 l 479 508 b 547 575 500 532 526 560 b 617 604 567 589 593 604 l 682 604 b 768 578 711 604 746 594 b 831 511 788 564 819 526 b 850 438 844 490 850 465 l 850 0 l 775 0 l 775 435 b 771 458 775 444 774 453 b 706 528 758 482 728 515 b 681 532 699 532 690 532 l 621 532 b 600 528 614 532 606 531 b 497 446 578 515 518 479 l 497 438 l 497 0 l 424 0 l 424 435 b 419 458 424 444 422 453 b 353 528 407 482 375 515 b 328 532 346 532 338 532 "},"n":{"ha":668,"x_min":0,"x_max":0,"o":"m 457 0 l 457 435 b 454 458 457 444 457 453 b 388 526 442 482 410 514 b 363 532 381 531 372 532 l 264 532 b 244 528 257 532 250 531 b 140 444 221 515 161 478 l 140 0 l 65 0 l 65 499 l 56 597 l 131 597 l 139 528 b 190 575 156 546 175 564 b 260 604 210 589 236 604 l 364 604 b 450 578 394 604 428 594 b 513 511 469 564 501 526 b 532 438 526 490 532 465 l 532 0 "},"o":{"ha":656,"x_min":0,"x_max":0,"o":"m 524 160 b 504 86 524 132 518 107 b 442 19 493 71 461 33 b 356 -7 419 3 386 -7 l 217 -7 b 131 19 186 -7 153 3 b 68 86 111 33 79 71 b 49 160 54 107 49 132 l 49 438 b 68 511 49 465 54 490 b 131 578 79 526 111 564 b 217 604 153 594 186 604 l 356 604 b 442 578 386 604 419 594 b 504 511 461 564 493 526 b 524 438 518 490 524 465 l 524 160 m 449 435 b 446 458 449 444 449 453 b 379 526 433 482 401 514 b 354 532 372 531 364 532 l 218 532 b 193 526 208 532 200 531 b 128 458 171 514 140 482 b 124 435 125 453 124 444 l 124 163 b 128 139 124 153 125 144 b 193 71 140 115 171 83 b 218 65 200 67 208 65 l 354 65 b 379 71 364 65 372 67 b 446 139 401 83 433 115 b 449 163 449 144 449 153 "},"p":{"ha":671,"x_min":0,"x_max":0,"o":"m 518 86 b 456 19 507 71 475 33 b 371 -7 433 3 401 -7 l 263 -7 b 193 22 239 -7 213 8 b 139 72 176 35 157 53 l 139 -233 l 64 -233 l 64 499 l 56 597 l 131 597 l 139 524 b 193 575 157 543 176 563 b 263 604 213 589 239 604 l 371 604 b 456 578 401 604 433 594 b 518 511 475 564 507 526 b 539 438 532 490 539 465 l 539 160 b 518 86 539 132 532 107 m 464 435 b 460 458 464 444 463 453 b 394 526 447 482 417 514 b 369 532 388 531 379 532 l 267 532 b 247 528 260 532 253 531 b 142 443 224 515 161 476 b 139 435 140 440 139 438 l 139 161 b 142 154 139 158 140 157 b 247 69 161 119 224 82 b 267 65 253 67 260 65 l 369 65 b 394 71 379 65 388 67 b 460 139 417 83 447 115 b 464 163 463 144 464 153 l 464 435 "},"q":{"ha":664,"x_min":0,"x_max":0,"o":"m 76 89 b 56 163 63 110 56 135 l 56 438 b 76 511 56 465 63 490 b 139 578 88 526 119 564 b 224 604 161 594 193 604 l 332 604 b 401 575 356 604 382 589 b 456 524 418 563 438 543 l 464 597 l 539 597 l 531 499 l 531 -233 l 456 -233 l 456 75 b 401 25 438 56 418 38 b 332 -4 382 11 356 -4 l 224 -4 b 139 22 193 -4 161 6 b 76 89 119 36 88 74 m 131 435 l 131 165 b 135 142 131 156 132 147 b 200 74 147 118 178 86 b 225 68 207 69 215 68 l 328 68 b 347 72 335 68 342 69 b 453 157 371 85 433 122 b 456 164 454 160 456 163 l 456 435 b 453 443 456 438 454 440 b 347 528 433 476 371 515 b 328 532 342 531 335 532 l 225 532 b 200 526 215 532 207 531 b 135 458 178 514 147 482 b 131 435 132 453 131 444 "},"r":{"ha":578,"x_min":0,"x_max":0,"o":"m 425 457 b 358 526 411 478 381 514 b 333 532 351 531 343 532 l 265 532 b 244 528 258 532 250 531 b 139 443 221 515 158 478 l 139 0 l 64 0 l 64 499 l 54 597 l 131 597 l 139 526 b 192 575 157 544 175 564 b 261 604 211 589 238 604 l 331 604 b 415 578 361 604 393 594 b 476 511 435 564 465 526 b 497 481 485 500 493 488 "},"s":{"ha":649,"x_min":0,"x_max":0,"o":"m 524 154 b 503 81 524 126 517 101 b 446 19 492 65 465 33 b 361 -7 424 3 390 -7 l 194 -7 b 110 19 165 -7 132 3 b 49 85 90 33 60 69 b 29 117 42 96 32 110 l 101 142 b 167 71 113 118 144 83 b 192 65 174 67 182 65 l 360 65 b 383 71 369 65 376 67 b 444 133 406 83 432 110 b 449 157 447 139 449 147 l 449 207 b 396 258 449 235 425 256 l 167 275 b 46 401 99 281 46 333 l 46 443 b 67 517 46 471 53 496 b 124 578 78 532 104 564 b 208 604 146 594 179 604 l 353 604 b 438 578 382 604 415 594 b 500 511 457 564 489 526 b 519 481 508 500 517 488 l 447 456 b 381 526 436 479 403 514 b 357 532 374 531 367 532 l 210 532 b 185 526 200 532 192 531 b 125 465 163 514 138 489 b 121 442 122 460 121 451 l 121 400 b 174 349 121 372 144 351 l 403 331 b 524 204 471 325 524 272 l 524 154 "},"t":{"ha":468,"x_min":0,"x_max":0,"o":"m 188 525 l 188 169 b 192 143 188 160 189 149 b 254 78 204 119 232 90 b 282 72 261 74 272 72 l 369 72 l 369 0 l 281 0 b 196 26 250 0 218 10 b 133 93 176 40 144 78 b 113 167 119 114 113 139 l 113 525 l 14 525 l 14 597 l 113 597 l 113 833 l 188 833 l 188 597 l 371 597 l 371 525 "},"u":{"ha":658,"x_min":0,"x_max":0,"o":"m 451 0 l 443 69 b 392 22 426 51 407 33 b 322 -7 372 8 346 -7 l 218 -7 b 132 19 188 -7 154 3 b 69 86 113 33 81 71 b 50 160 56 107 50 132 l 50 597 l 125 597 l 125 163 b 128 139 125 153 125 144 b 194 71 140 115 172 83 b 219 65 201 67 210 65 l 318 65 b 338 69 325 65 332 67 b 442 153 361 82 421 119 l 442 597 l 517 597 l 517 99 l 526 0 "},"v":{"ha":589,"x_min":0,"x_max":0,"o":"m 260 76 l 424 597 l 503 597 l 308 0 l 204 0 l 7 597 l 88 597 l 251 76 l 260 76 "},"w":{"ha":925,"x_min":0,"x_max":0,"o":"m 678 0 l 574 0 l 426 510 l 285 0 l 181 0 l 7 597 l 88 597 l 229 81 l 238 81 l 374 597 l 481 597 l 622 81 l 631 81 l 767 597 l 846 597 "},"x":{"ha":597,"x_min":0,"x_max":0,"o":"m 411 0 l 257 243 l 103 0 l 14 0 l 213 307 l 21 597 l 113 597 l 257 365 l 397 597 l 489 597 l 301 307 l 500 0 l 411 0 "},"y":{"ha":588,"x_min":0,"x_max":0,"o":"m 424 597 l 504 597 l 233 -233 l 154 -233 l 233 0 l 201 0 l 7 597 l 88 597 l 251 76 l 260 76 l 424 597 "},"z":{"ha":586,"x_min":0,"x_max":0,"o":"m 53 0 l 53 67 l 367 525 l 42 525 l 42 597 l 460 597 l 460 529 l 147 72 l 475 72 l 475 0 "},"{":{"ha":443,"x_min":0,"x_max":0,"o":"m 242 -6 b 171 17 219 -6 190 4 b 75 113 146 32 90 89 b 60 181 63 132 60 157 l 60 651 b 76 719 60 675 64 700 b 169 817 92 743 144 801 b 242 839 189 829 219 839 l 318 839 l 318 761 l 249 761 b 231 757 242 761 235 760 b 144 669 208 746 163 701 b 140 649 142 664 140 656 l 140 182 b 144 164 140 175 142 169 b 231 76 163 132 208 88 b 249 72 235 74 242 72 l 318 72 l 318 -6 "},"|":{"ha":243,"x_min":0,"x_max":0,"o":"m 57 -131 l 57 950 l 132 950 l 132 -131 "},"}":{"ha":456,"x_min":0,"x_max":0,"o":"m 329 181 b 313 113 329 157 325 132 b 217 17 297 89 242 32 b 146 -6 197 4 168 -6 l 69 -6 l 69 72 l 139 72 b 157 76 146 72 153 74 b 243 164 179 88 225 132 b 249 182 246 169 249 175 l 249 649 b 243 669 249 656 246 664 b 157 757 225 701 179 746 b 139 761 153 760 146 761 l 69 761 l 69 839 l 146 839 b 218 817 168 839 199 829 b 311 719 243 801 296 743 b 329 651 324 700 329 675 "},"~":{"ha":642,"x_min":0,"x_max":0,"o":"m 397 292 b 332 326 389 318 361 331 l 231 301 b 79 386 165 285 99 321 l 150 403 b 215 368 158 376 186 364 l 317 393 b 468 308 382 410 449 374 "},"Ä":{"ha":746,"x_min":0,"x_max":0,"o":"m 593 0 l 531 193 l 144 193 l 81 0 l -4 0 l 275 833 l 400 833 l 679 0 l 593 0 m 169 271 l 506 271 l 346 754 l 328 754 l 169 271 m 389 918 l 389 1025 l 494 1025 l 494 918 m 186 918 l 186 1025 l 292 1025 l 292 918 "},"Å":{"ha":746,"x_min":0,"x_max":0,"o":"m 593 0 l 531 193 l 144 193 l 81 0 l -4 0 l 275 833 l 400 833 l 679 0 l 593 0 m 169 271 l 506 271 l 346 754 l 328 754 l 169 271 m 469 1040 b 336 908 469 967 410 908 b 206 1040 263 908 206 967 b 336 1172 206 1114 263 1172 b 469 1040 410 1172 469 1114 m 417 1040 b 336 1119 417 1083 379 1119 b 258 1040 293 1119 258 1083 b 336 961 258 997 293 961 b 417 1040 379 961 417 997 "},"Ç":{"ha":725,"x_min":0,"x_max":0,"o":"m 618 157 b 586 103 610 138 596 117 b 500 15 567 76 529 33 b 429 -7 481 3 451 -7 l 246 -7 b 174 15 224 -7 193 3 b 79 111 149 31 94 88 b 61 178 67 131 61 154 l 61 653 b 79 719 61 676 67 700 b 174 817 94 743 149 801 b 244 839 193 829 222 839 l 429 839 b 500 817 451 839 481 829 b 586 729 529 799 567 756 b 618 675 596 715 610 694 l 538 651 b 444 757 521 690 474 742 b 425 761 440 760 432 761 l 251 761 b 233 757 244 761 238 760 b 146 669 211 746 164 701 b 142 650 143 664 142 657 l 142 181 b 146 163 142 174 143 168 b 233 75 164 131 211 86 b 251 71 238 72 244 71 l 425 71 b 444 75 432 71 440 72 b 538 179 474 90 518 142 l 618 157 m 303 -233 l 221 -233 l 336 -53 l 403 -79 "},"É":{"ha":696,"x_min":0,"x_max":0,"o":"m 68 0 l 68 833 l 546 833 l 546 756 l 149 756 l 149 456 l 525 456 l 525 378 l 149 378 l 149 78 l 546 78 l 546 0 m 226 926 l 344 1081 l 442 1081 l 300 901 "},"Ñ":{"ha":765,"x_min":0,"x_max":0,"o":"m 510 0 l 147 711 l 147 0 l 69 0 l 69 833 l 176 833 l 536 115 l 536 833 l 614 833 l 614 0 m 468 931 b 403 965 460 957 432 969 l 301 940 b 150 1025 236 924 169 960 l 221 1042 b 286 1007 229 1015 257 1003 l 388 1032 b 539 947 453 1049 519 1013 "},"Ö":{"ha":783,"x_min":0,"x_max":0,"o":"m 649 179 b 631 111 649 156 643 131 b 536 15 615 88 561 31 b 464 -7 517 3 486 -7 l 244 -7 b 174 15 222 -7 193 3 b 78 111 149 31 93 88 b 61 179 65 131 61 156 l 61 651 b 78 719 61 675 65 700 b 174 817 93 743 149 801 b 244 839 193 829 222 839 l 464 839 b 536 817 486 839 517 829 b 631 719 561 801 615 743 b 649 651 643 700 649 675 l 649 179 m 568 649 b 564 669 568 656 567 664 b 476 757 546 701 499 746 b 458 761 472 760 465 761 l 251 761 b 233 757 244 761 238 760 b 147 669 211 746 165 701 b 142 649 144 664 142 656 l 142 181 b 147 163 142 174 144 168 b 233 75 165 131 211 86 b 251 71 238 72 244 71 l 458 71 b 476 75 465 71 472 72 b 564 163 499 86 546 131 b 568 181 567 168 568 174 m 403 918 l 403 1025 l 508 1025 l 508 918 m 200 918 l 200 1025 l 306 1025 l 306 918 "},"Ü":{"ha":743,"x_min":0,"x_max":0,"o":"m 621 178 b 604 111 621 154 617 131 b 510 15 589 88 535 31 b 439 -7 490 3 461 -7 l 253 -7 b 181 15 231 -7 200 3 b 86 111 156 31 101 88 b 68 178 74 131 68 154 l 68 833 l 149 833 l 149 181 b 154 163 149 174 151 168 b 242 75 172 131 219 86 b 260 71 246 72 253 71 l 432 71 b 450 75 439 71 446 72 b 535 163 472 86 517 131 b 540 181 538 168 540 174 l 540 833 l 621 833 l 621 178 m 394 918 l 394 1025 l 500 1025 l 500 918 m 192 918 l 192 1025 l 297 1025 l 297 918 "},"á":{"ha":653,"x_min":0,"x_max":0,"o":"m 446 0 l 438 69 b 385 22 421 51 400 33 b 317 -7 364 7 340 -7 l 194 -7 b 110 19 163 -7 132 3 b 49 85 92 35 60 69 b 28 158 35 106 28 131 l 28 186 b 49 260 28 215 35 239 b 110 325 60 275 92 310 b 194 351 132 342 163 351 l 436 351 l 436 436 b 433 458 436 447 435 454 b 367 526 421 482 389 514 b 342 532 360 531 351 532 l 211 532 b 188 526 201 532 194 531 b 121 457 165 514 136 481 l 49 481 b 69 513 53 488 60 500 b 132 579 82 531 113 564 b 215 604 154 596 183 604 l 343 604 b 429 578 375 604 407 594 b 492 513 450 565 481 528 b 511 438 507 492 511 465 l 511 99 l 521 0 m 332 69 b 436 154 354 81 418 121 l 436 281 l 196 281 b 171 275 186 281 178 279 b 107 208 149 263 119 232 b 103 186 104 203 103 196 l 103 158 b 107 136 103 149 104 142 b 171 71 119 113 149 83 b 196 65 178 67 186 65 l 313 65 b 332 69 319 65 326 67 m 194 732 l 313 886 l 410 886 l 268 707 "},"à":{"ha":653,"x_min":0,"x_max":0,"o":"m 446 0 l 438 69 b 385 22 421 51 400 33 b 317 -7 364 7 340 -7 l 194 -7 b 110 19 163 -7 132 3 b 49 85 92 35 60 69 b 28 158 35 106 28 131 l 28 186 b 49 260 28 215 35 239 b 110 325 60 275 92 310 b 194 351 132 342 163 351 l 436 351 l 436 436 b 433 458 436 447 435 454 b 367 526 421 482 389 514 b 342 532 360 531 351 532 l 211 532 b 188 526 201 532 194 531 b 121 457 165 514 136 481 l 49 481 b 69 513 53 488 60 500 b 132 579 82 531 113 564 b 215 604 154 596 183 604 l 343 604 b 429 578 375 604 407 594 b 492 513 450 565 481 528 b 511 438 507 492 511 465 l 511 99 l 521 0 m 332 69 b 436 154 354 81 418 121 l 436 281 l 196 281 b 171 275 186 281 178 279 b 107 208 149 263 119 232 b 103 186 104 203 103 196 l 103 158 b 107 136 103 149 104 142 b 171 71 119 113 149 83 b 196 65 178 67 186 65 l 313 65 b 332 69 319 65 326 67 m 275 707 l 133 886 l 231 886 l 349 732 "},"â":{"ha":653,"x_min":0,"x_max":0,"o":"m 446 0 l 438 69 b 385 22 421 51 400 33 b 317 -7 364 7 340 -7 l 194 -7 b 110 19 163 -7 132 3 b 49 85 92 35 60 69 b 28 158 35 106 28 131 l 28 186 b 49 260 28 215 35 239 b 110 325 60 275 92 310 b 194 351 132 342 163 351 l 436 351 l 436 436 b 433 458 436 447 435 454 b 367 526 421 482 389 514 b 342 532 360 531 351 532 l 211 532 b 188 526 201 532 194 531 b 121 457 165 514 136 481 l 49 481 b 69 513 53 488 60 500 b 132 579 82 531 113 564 b 215 604 154 596 183 604 l 343 604 b 429 578 375 604 407 594 b 492 513 450 565 481 528 b 511 438 507 492 511 465 l 511 99 l 521 0 m 332 69 b 436 154 354 81 418 121 l 436 281 l 196 281 b 171 275 186 281 178 279 b 107 208 149 263 119 232 b 103 186 104 203 103 196 l 103 158 b 107 136 103 149 104 142 b 171 71 119 113 149 83 b 196 65 178 67 186 65 l 313 65 b 332 69 319 65 326 67 m 119 722 l 249 883 l 328 883 l 457 722 l 363 722 l 288 817 l 214 722 "},"ä":{"ha":653,"x_min":0,"x_max":0,"o":"m 446 0 l 438 69 b 385 22 421 51 400 33 b 317 -7 364 7 340 -7 l 194 -7 b 110 19 163 -7 132 3 b 49 85 92 35 60 69 b 28 158 35 106 28 131 l 28 186 b 49 260 28 215 35 239 b 110 325 60 275 92 310 b 194 351 132 342 163 351 l 436 351 l 436 436 b 433 458 436 447 435 454 b 367 526 421 482 389 514 b 342 532 360 531 351 532 l 211 532 b 188 526 201 532 194 531 b 121 457 165 514 136 481 l 49 481 b 69 513 53 488 60 500 b 132 579 82 531 113 564 b 215 604 154 596 183 604 l 343 604 b 429 578 375 604 407 594 b 492 513 450 565 481 528 b 511 438 507 492 511 465 l 511 99 l 521 0 m 332 69 b 436 154 354 81 418 121 l 436 281 l 196 281 b 171 275 186 281 178 279 b 107 208 149 263 119 232 b 103 186 104 203 103 196 l 103 158 b 107 136 103 149 104 142 b 171 71 119 113 149 83 b 196 65 178 67 186 65 l 313 65 b 332 69 319 65 326 67 m 338 733 l 338 840 l 443 840 l 443 733 m 135 733 l 135 840 l 240 840 l 240 733 "},"ã":{"ha":653,"x_min":0,"x_max":0,"o":"m 446 0 l 438 69 b 385 22 421 51 400 33 b 317 -7 364 7 340 -7 l 194 -7 b 110 19 163 -7 132 3 b 49 85 92 35 60 69 b 28 158 35 106 28 131 l 28 186 b 49 260 28 215 35 239 b 110 325 60 275 92 310 b 194 351 132 342 163 351 l 436 351 l 436 436 b 433 458 436 447 435 454 b 367 526 421 482 389 514 b 342 532 360 531 351 532 l 211 532 b 188 526 201 532 194 531 b 121 457 165 514 136 481 l 49 481 b 69 513 53 488 60 500 b 132 579 82 531 113 564 b 215 604 154 596 183 604 l 343 604 b 429 578 375 604 407 594 b 492 513 450 565 481 528 b 511 438 507 492 511 465 l 511 99 l 521 0 m 332 69 b 436 154 354 81 418 121 l 436 281 l 196 281 b 171 275 186 281 178 279 b 107 208 149 263 119 232 b 103 186 104 203 103 196 l 103 158 b 107 136 103 149 104 142 b 171 71 119 113 149 83 b 196 65 178 67 186 65 l 313 65 b 332 69 319 65 326 67 m 418 736 b 353 771 410 763 382 775 l 251 746 b 100 831 186 729 119 765 l 171 847 b 236 813 179 821 207 808 l 338 838 b 489 753 403 854 469 818 "},"å":{"ha":653,"x_min":0,"x_max":0,"o":"m 446 0 l 438 69 b 385 22 421 51 400 33 b 317 -7 364 7 340 -7 l 194 -7 b 110 19 163 -7 132 3 b 49 85 92 35 60 69 b 28 158 35 106 28 131 l 28 186 b 49 260 28 215 35 239 b 110 325 60 275 92 310 b 194 351 132 342 163 351 l 436 351 l 436 436 b 433 458 436 447 435 454 b 367 526 421 482 389 514 b 342 532 360 531 351 532 l 211 532 b 188 526 201 532 194 531 b 121 457 165 514 136 481 l 49 481 b 69 513 53 488 60 500 b 132 579 82 531 113 564 b 215 604 154 596 183 604 l 343 604 b 429 578 375 604 407 594 b 492 513 450 565 481 528 b 511 438 507 492 511 465 l 511 99 l 521 0 m 332 69 b 436 154 354 81 418 121 l 436 281 l 196 281 b 171 275 186 281 178 279 b 107 208 149 263 119 232 b 103 186 104 203 103 196 l 103 158 b 107 136 103 149 104 142 b 171 71 119 113 149 83 b 196 65 178 67 186 65 l 313 65 b 332 69 319 65 326 67 m 417 832 b 283 700 417 758 357 700 b 153 832 210 700 153 758 b 283 964 153 906 210 964 b 417 832 357 964 417 906 m 364 832 b 283 911 364 875 326 911 b 206 832 240 911 206 875 b 283 753 206 789 240 753 b 364 832 326 753 364 789 "},"ç":{"ha":633,"x_min":0,"x_max":0,"o":"m 525 117 b 443 19 508 86 476 43 b 358 -7 421 3 389 -7 l 217 -7 b 131 19 186 -7 153 3 b 68 86 111 33 79 71 b 49 160 54 107 49 132 l 49 438 b 68 511 49 465 54 490 b 131 578 79 526 111 564 b 217 604 153 594 186 604 l 354 604 b 439 578 385 604 417 594 b 521 479 474 553 503 508 l 449 456 b 382 526 438 479 404 514 b 357 532 375 531 367 532 l 218 532 b 193 526 208 532 200 531 b 128 458 171 514 140 482 b 124 435 125 453 124 444 l 124 163 b 128 139 124 153 125 144 b 192 71 140 115 169 83 b 217 65 199 67 207 65 l 361 65 b 386 71 371 65 379 67 b 451 139 408 83 442 118 l 453 142 l 525 117 m 260 -233 l 178 -233 l 293 -53 l 360 -79 "},"é":{"ha":657,"x_min":0,"x_max":0,"o":"m 458 139 l 460 142 l 533 117 b 514 86 528 106 522 99 b 451 19 503 71 471 33 b 367 -7 429 3 397 -7 l 225 -7 b 139 19 194 -7 161 3 b 76 86 119 33 88 71 b 56 160 63 107 56 132 l 56 438 b 76 511 56 465 63 490 b 139 578 88 526 119 564 b 225 604 161 594 194 604 l 364 604 b 450 578 394 604 428 594 b 513 511 469 564 501 526 b 532 438 526 490 532 465 l 532 267 l 131 267 l 131 163 b 135 139 131 153 132 144 b 200 71 147 115 178 83 b 224 65 207 67 214 65 l 369 65 b 394 71 379 65 388 67 b 458 139 417 83 447 118 m 135 458 b 131 435 132 453 131 444 l 131 338 l 457 338 l 457 435 b 454 458 457 444 457 453 b 388 526 442 482 410 514 b 363 532 381 531 372 532 l 225 532 b 201 526 215 532 208 531 b 135 458 179 514 147 482 m 194 732 l 313 886 l 410 886 l 268 707 "},"è":{"ha":657,"x_min":0,"x_max":0,"o":"m 458 139 l 460 142 l 533 117 b 514 86 528 106 522 99 b 451 19 503 71 471 33 b 367 -7 429 3 397 -7 l 225 -7 b 139 19 194 -7 161 3 b 76 86 119 33 88 71 b 56 160 63 107 56 132 l 56 438 b 76 511 56 465 63 490 b 139 578 88 526 119 564 b 225 604 161 594 194 604 l 364 604 b 450 578 394 604 428 594 b 513 511 469 564 501 526 b 532 438 526 490 532 465 l 532 267 l 131 267 l 131 163 b 135 139 131 153 132 144 b 200 71 147 115 178 83 b 224 65 207 67 214 65 l 369 65 b 394 71 379 65 388 67 b 458 139 417 83 447 118 m 135 458 b 131 435 132 453 131 444 l 131 338 l 457 338 l 457 435 b 454 458 457 444 457 453 b 388 526 442 482 410 514 b 363 532 381 531 372 532 l 225 532 b 201 526 215 532 208 531 b 135 458 179 514 147 482 m 275 707 l 133 886 l 231 886 l 349 732 "},"ê":{"ha":657,"x_min":0,"x_max":0,"o":"m 458 139 l 460 142 l 533 117 b 514 86 528 106 522 99 b 451 19 503 71 471 33 b 367 -7 429 3 397 -7 l 225 -7 b 139 19 194 -7 161 3 b 76 86 119 33 88 71 b 56 160 63 107 56 132 l 56 438 b 76 511 56 465 63 490 b 139 578 88 526 119 564 b 225 604 161 594 194 604 l 364 604 b 450 578 394 604 428 594 b 513 511 469 564 501 526 b 532 438 526 490 532 465 l 532 267 l 131 267 l 131 163 b 135 139 131 153 132 144 b 200 71 147 115 178 83 b 224 65 207 67 214 65 l 369 65 b 394 71 379 65 388 67 b 458 139 417 83 447 118 m 135 458 b 131 435 132 453 131 444 l 131 338 l 457 338 l 457 435 b 454 458 457 444 457 453 b 388 526 442 482 410 514 b 363 532 381 531 372 532 l 225 532 b 201 526 215 532 208 531 b 135 458 179 514 147 482 m 122 722 l 251 883 l 331 883 l 460 722 l 365 722 l 290 817 l 217 722 "},"ë":{"ha":657,"x_min":0,"x_max":0,"o":"m 458 139 l 460 142 l 533 117 b 514 86 528 106 522 99 b 451 19 503 71 471 33 b 367 -7 429 3 397 -7 l 225 -7 b 139 19 194 -7 161 3 b 76 86 119 33 88 71 b 56 160 63 107 56 132 l 56 438 b 76 511 56 465 63 490 b 139 578 88 526 119 564 b 225 604 161 594 194 604 l 364 604 b 450 578 394 604 428 594 b 513 511 469 564 501 526 b 532 438 526 490 532 465 l 532 267 l 131 267 l 131 163 b 135 139 131 153 132 144 b 200 71 147 115 178 83 b 224 65 207 67 214 65 l 369 65 b 394 71 379 65 388 67 b 458 139 417 83 447 118 m 135 458 b 131 435 132 453 131 444 l 131 338 l 457 338 l 457 435 b 454 458 457 444 457 453 b 388 526 442 482 410 514 b 363 532 381 531 372 532 l 225 532 b 201 526 215 532 208 531 b 135 458 179 514 147 482 m 338 733 l 338 840 l 443 840 l 443 733 m 135 733 l 135 840 l 240 840 l 240 733 "},"í":{"ha":286,"x_min":0,"x_max":0,"o":"m 68 0 l 68 597 l 143 597 l 143 0 m 67 732 l 185 886 l 282 886 l 140 707 "},"ì":{"ha":286,"x_min":0,"x_max":0,"o":"m 68 0 l 68 597 l 143 597 l 143 0 m 58 707 l -83 886 l 14 886 l 132 732 "},"î":{"ha":286,"x_min":0,"x_max":0,"o":"m 68 0 l 68 597 l 143 597 l 143 0 m -62 722 l 67 883 l 146 883 l 275 722 l 181 722 l 106 817 l 32 722 "},"ï":{"ha":286,"x_min":0,"x_max":0,"o":"m 68 0 l 68 597 l 143 597 l 143 0 m 156 733 l 156 840 l 261 840 l 261 733 m -47 733 l -47 840 l 58 840 l 58 733 "},"ñ":{"ha":668,"x_min":0,"x_max":0,"o":"m 457 0 l 457 435 b 454 458 457 444 457 453 b 388 526 442 482 410 514 b 363 532 381 531 372 532 l 264 532 b 244 528 257 532 250 531 b 140 444 221 515 161 478 l 140 0 l 65 0 l 65 499 l 56 597 l 131 597 l 139 528 b 190 575 156 546 175 564 b 260 604 210 589 236 604 l 364 604 b 450 578 394 604 428 594 b 513 511 469 564 501 526 b 532 438 526 490 532 465 l 532 0 m 421 736 b 356 771 413 763 385 775 l 254 746 b 103 831 189 729 122 765 l 174 847 b 239 813 182 821 210 808 l 340 838 b 492 753 406 854 472 818 "},"ó":{"ha":649,"x_min":0,"x_max":0,"o":"m 524 160 b 504 86 524 132 518 107 b 442 19 493 71 461 33 b 356 -7 419 3 386 -7 l 217 -7 b 131 19 186 -7 153 3 b 68 86 111 33 79 71 b 49 160 54 107 49 132 l 49 438 b 68 511 49 465 54 490 b 131 578 79 526 111 564 b 217 604 153 594 186 604 l 356 604 b 442 578 386 604 419 594 b 504 511 461 564 493 526 b 524 438 518 490 524 465 l 524 160 m 449 435 b 446 458 449 444 449 453 b 379 526 433 482 401 514 b 354 532 372 531 364 532 l 218 532 b 193 526 208 532 200 531 b 128 458 171 514 140 482 b 124 435 125 453 124 444 l 124 163 b 128 139 124 153 125 144 b 193 71 140 115 171 83 b 218 65 200 67 208 65 l 354 65 b 379 71 364 65 372 67 b 446 139 401 83 433 115 b 449 163 449 144 449 153 m 194 732 l 313 886 l 410 886 l 268 707 "},"ò":{"ha":649,"x_min":0,"x_max":0,"o":"m 524 160 b 504 86 524 132 518 107 b 442 19 493 71 461 33 b 356 -7 419 3 386 -7 l 217 -7 b 131 19 186 -7 153 3 b 68 86 111 33 79 71 b 49 160 54 107 49 132 l 49 438 b 68 511 49 465 54 490 b 131 578 79 526 111 564 b 217 604 153 594 186 604 l 356 604 b 442 578 386 604 419 594 b 504 511 461 564 493 526 b 524 438 518 490 524 465 l 524 160 m 449 435 b 446 458 449 444 449 453 b 379 526 433 482 401 514 b 354 532 372 531 364 532 l 218 532 b 193 526 208 532 200 531 b 128 458 171 514 140 482 b 124 435 125 453 124 444 l 124 163 b 128 139 124 153 125 144 b 193 71 140 115 171 83 b 218 65 200 67 208 65 l 354 65 b 379 71 364 65 372 67 b 446 139 401 83 433 115 b 449 163 449 144 449 153 m 275 707 l 133 886 l 231 886 l 349 732 "},"ô":{"ha":649,"x_min":0,"x_max":0,"o":"m 524 160 b 504 86 524 132 518 107 b 442 19 493 71 461 33 b 356 -7 419 3 386 -7 l 217 -7 b 131 19 186 -7 153 3 b 68 86 111 33 79 71 b 49 160 54 107 49 132 l 49 438 b 68 511 49 465 54 490 b 131 578 79 526 111 564 b 217 604 153 594 186 604 l 356 604 b 442 578 386 604 419 594 b 504 511 461 564 493 526 b 524 438 518 490 524 465 l 524 160 m 449 435 b 446 458 449 444 449 453 b 379 526 433 482 401 514 b 354 532 372 531 364 532 l 218 532 b 193 526 208 532 200 531 b 128 458 171 514 140 482 b 124 435 125 453 124 444 l 124 163 b 128 139 124 153 125 144 b 193 71 140 115 171 83 b 218 65 200 67 208 65 l 354 65 b 379 71 364 65 372 67 b 446 139 401 83 433 115 b 449 163 449 144 449 153 m 121 722 l 250 883 l 329 883 l 458 722 l 364 722 l 289 817 l 215 722 "},"ö":{"ha":649,"x_min":0,"x_max":0,"o":"m 524 160 b 504 86 524 132 518 107 b 442 19 493 71 461 33 b 356 -7 419 3 386 -7 l 217 -7 b 131 19 186 -7 153 3 b 68 86 111 33 79 71 b 49 160 54 107 49 132 l 49 438 b 68 511 49 465 54 490 b 131 578 79 526 111 564 b 217 604 153 594 186 604 l 356 604 b 442 578 386 604 419 594 b 504 511 461 564 493 526 b 524 438 518 490 524 465 l 524 160 m 449 435 b 446 458 449 444 449 453 b 379 526 433 482 401 514 b 354 532 372 531 364 532 l 218 532 b 193 526 208 532 200 531 b 128 458 171 514 140 482 b 124 435 125 453 124 444 l 124 163 b 128 139 124 153 125 144 b 193 71 140 115 171 83 b 218 65 200 67 208 65 l 354 65 b 379 71 364 65 372 67 b 446 139 401 83 433 115 b 449 163 449 144 449 153 m 338 733 l 338 840 l 443 840 l 443 733 m 135 733 l 135 840 l 240 840 l 240 733 "},"õ":{"ha":649,"x_min":0,"x_max":0,"o":"m 524 160 b 504 86 524 132 518 107 b 442 19 493 71 461 33 b 356 -7 419 3 386 -7 l 217 -7 b 131 19 186 -7 153 3 b 68 86 111 33 79 71 b 49 160 54 107 49 132 l 49 438 b 68 511 49 465 54 490 b 131 578 79 526 111 564 b 217 604 153 594 186 604 l 356 604 b 442 578 386 604 419 594 b 504 511 461 564 493 526 b 524 438 518 490 524 465 l 524 160 m 449 435 b 446 458 449 444 449 453 b 379 526 433 482 401 514 b 354 532 372 531 364 532 l 218 532 b 193 526 208 532 200 531 b 128 458 171 514 140 482 b 124 435 125 453 124 444 l 124 163 b 128 139 124 153 125 144 b 193 71 140 115 171 83 b 218 65 200 67 208 65 l 354 65 b 379 71 364 65 372 67 b 446 139 401 83 433 115 b 449 163 449 144 449 153 m 421 736 b 356 771 413 763 385 775 l 254 746 b 103 831 189 729 122 765 l 174 847 b 239 813 182 821 210 808 l 340 838 b 492 753 406 854 472 818 "},"ú":{"ha":658,"x_min":0,"x_max":0,"o":"m 451 0 l 443 69 b 392 22 426 51 407 33 b 322 -7 372 8 346 -7 l 218 -7 b 132 19 188 -7 154 3 b 69 86 113 33 81 71 b 50 160 56 107 50 132 l 50 597 l 125 597 l 125 163 b 128 139 125 153 125 144 b 194 71 140 115 172 83 b 219 65 201 67 210 65 l 318 65 b 338 69 325 65 332 67 b 442 153 361 82 421 119 l 442 597 l 517 597 l 517 99 l 526 0 m 194 732 l 313 886 l 410 886 l 268 707 "},"ù":{"ha":658,"x_min":0,"x_max":0,"o":"m 451 0 l 443 69 b 392 22 426 51 407 33 b 322 -7 372 8 346 -7 l 218 -7 b 132 19 188 -7 154 3 b 69 86 113 33 81 71 b 50 160 56 107 50 132 l 50 597 l 125 597 l 125 163 b 128 139 125 153 125 144 b 194 71 140 115 172 83 b 219 65 201 67 210 65 l 318 65 b 338 69 325 65 332 67 b 442 153 361 82 421 119 l 442 597 l 517 597 l 517 99 l 526 0 m 275 707 l 133 886 l 231 886 l 349 732 "},"û":{"ha":658,"x_min":0,"x_max":0,"o":"m 451 0 l 443 69 b 392 22 426 51 407 33 b 322 -7 372 8 346 -7 l 218 -7 b 132 19 188 -7 154 3 b 69 86 113 33 81 71 b 50 160 56 107 50 132 l 50 597 l 125 597 l 125 163 b 128 139 125 153 125 144 b 194 71 140 115 172 83 b 219 65 201 67 210 65 l 318 65 b 338 69 325 65 332 67 b 442 153 361 82 421 119 l 442 597 l 517 597 l 517 99 l 526 0 m 111 722 l 240 883 l 319 883 l 449 722 l 354 722 l 279 817 l 206 722 "},"ü":{"ha":658,"x_min":0,"x_max":0,"o":"m 451 0 l 443 69 b 392 22 426 51 407 33 b 322 -7 372 8 346 -7 l 218 -7 b 132 19 188 -7 154 3 b 69 86 113 33 81 71 b 50 160 56 107 50 132 l 50 597 l 125 597 l 125 163 b 128 139 125 153 125 144 b 194 71 140 115 172 83 b 219 65 201 67 210 65 l 318 65 b 338 69 325 65 332 67 b 442 153 361 82 421 119 l 442 597 l 517 597 l 517 99 l 526 0 m 342 733 l 342 840 l 447 840 l 447 733 m 139 733 l 139 840 l 244 840 l 244 733 "},"†":{"ha":463,"x_min":0,"x_max":0,"o":"m 253 525 l 253 175 l 181 175 l 181 525 l 83 525 l 83 597 l 181 597 l 181 833 l 253 833 l 253 597 l 351 597 l 351 525 "},"°":{"ha":519,"x_min":0,"x_max":0,"o":"m 357 813 b 224 681 357 739 297 681 b 93 813 150 681 93 739 b 224 944 93 886 150 944 b 357 813 297 944 357 886 m 304 813 b 224 892 304 856 267 892 b 146 813 181 892 146 856 b 224 733 146 769 181 733 b 304 813 267 733 304 769 "},"¢":{"ha":626,"x_min":0,"x_max":0,"o":"m 543 117 b 525 86 540 110 532 97 b 464 19 514 71 483 33 b 379 -7 442 3 410 -7 l 332 -7 l 332 -133 l 257 -133 l 257 -7 l 224 -7 b 138 19 193 -7 160 3 b 75 86 118 33 86 71 b 56 160 61 107 56 132 l 56 438 b 75 511 56 465 61 490 b 138 578 86 526 118 564 b 224 604 160 594 193 604 l 257 604 l 257 749 l 332 749 l 332 604 l 375 604 b 460 578 406 604 438 594 b 521 510 479 564 510 525 b 540 479 528 499 538 486 l 469 456 l 468 458 b 403 526 458 479 425 514 b 378 532 396 531 388 532 l 332 532 l 332 65 l 382 65 b 407 71 392 65 400 67 b 471 139 429 83 461 118 l 472 142 l 543 117 m 257 532 l 225 532 b 200 526 215 532 207 531 b 135 458 178 514 147 482 b 131 435 132 453 131 444 l 131 163 b 135 139 131 153 132 144 b 200 71 147 115 178 83 b 225 65 207 67 215 65 l 257 65 "},"£":{"ha":810,"x_min":0,"x_max":0,"o":"m 683 164 b 653 108 675 144 663 122 b 567 22 633 82 596 40 b 496 0 547 10 518 0 l 115 0 l 115 225 l 58 225 l 58 297 l 115 297 l 115 378 l 58 378 l 58 450 l 115 450 l 115 651 b 132 718 115 675 119 699 b 226 815 147 742 201 800 b 297 838 246 828 275 838 l 472 838 l 472 760 l 304 760 b 286 756 297 760 290 758 b 199 668 264 744 217 700 b 196 615 196 663 196 622 l 196 450 l 526 450 l 526 378 l 196 378 l 196 297 l 526 297 l 526 225 l 196 225 l 196 78 l 492 78 b 511 82 499 78 507 79 b 606 188 540 97 589 149 l 683 164 "},"§":{"ha":694,"x_min":0,"x_max":0,"o":"m 413 597 b 499 571 443 597 476 588 b 561 504 518 557 550 519 b 581 431 575 483 581 458 l 581 394 b 561 321 581 367 575 342 b 518 276 554 311 536 292 b 572 174 551 254 572 217 l 572 154 b 551 81 572 126 565 101 b 494 19 540 65 514 33 b 410 -7 472 3 439 -7 l 224 -7 b 139 19 194 -7 161 3 b 76 86 119 33 88 71 b 57 117 68 97 60 110 l 129 142 b 196 71 140 118 174 83 b 219 65 203 67 210 65 l 408 65 b 433 71 418 65 426 67 b 493 132 456 83 481 108 b 497 156 496 138 497 146 l 497 175 b 444 226 497 203 474 225 l 236 233 b 150 260 206 233 172 243 b 88 326 131 274 99 311 b 68 400 74 347 68 372 l 68 436 b 90 506 68 464 76 485 b 129 549 96 514 113 533 b 65 658 88 574 65 608 l 65 678 b 86 751 65 706 72 731 b 143 813 97 767 124 799 b 228 839 165 829 199 839 l 406 839 b 490 813 435 839 468 829 b 553 746 510 799 542 761 b 572 715 561 735 569 722 l 500 690 b 433 761 489 714 456 749 b 410 767 426 765 419 767 l 229 767 b 204 761 219 767 211 765 b 144 700 182 749 157 724 b 140 676 142 694 140 686 l 140 657 b 193 606 140 629 164 607 m 506 428 b 503 451 506 438 506 446 b 436 519 490 475 458 507 b 411 525 429 524 421 525 l 238 531 b 213 525 228 531 219 529 b 147 457 190 513 160 481 b 143 433 144 451 143 443 l 143 403 b 147 379 143 393 144 385 b 213 311 160 356 190 324 b 238 306 219 307 228 306 l 411 300 b 436 306 421 300 429 301 b 503 374 458 318 490 350 b 506 397 506 379 506 388 "},"•":{"ha":601,"x_min":0,"x_max":0,"o":"m 436 336 b 411 260 436 308 426 281 b 351 203 399 243 365 213 b 286 183 332 190 311 183 l 249 183 b 183 203 224 183 203 190 b 121 261 169 213 133 244 b 97 336 106 282 97 308 l 97 363 b 122 438 97 390 107 417 b 183 496 135 454 169 486 b 249 515 203 508 224 515 l 286 515 b 351 496 311 515 332 508 b 411 439 365 486 399 456 b 436 363 426 418 436 390 l 436 336 "},"¶":{"ha":718,"x_min":0,"x_max":0,"o":"m 542 0 l 542 375 l 457 375 l 457 0 l 383 0 l 383 375 l 235 375 b 151 401 206 375 174 385 b 81 474 133 415 90 458 b 60 546 67 494 60 519 l 60 661 b 81 733 60 688 67 713 b 151 807 90 749 133 793 b 235 833 174 824 206 833 l 622 833 l 622 0 m 542 756 l 457 756 l 457 453 l 542 453 m 383 756 l 236 756 b 211 751 228 756 218 756 b 146 682 189 739 158 706 b 142 658 143 676 142 667 l 142 549 b 146 525 142 540 143 531 b 211 458 158 501 189 471 b 236 453 218 454 228 453 l 383 453 "},"ß":{"ha":729,"x_min":0,"x_max":0,"o":"m 618 154 b 597 81 618 126 611 101 b 540 19 586 65 560 33 b 456 -7 518 3 485 -7 l 303 -7 b 232 13 279 -7 249 0 l 275 71 b 300 65 282 67 290 65 l 454 65 b 478 71 464 65 471 67 b 539 132 500 83 526 108 b 543 157 542 138 543 147 l 543 222 b 490 274 543 250 519 272 l 403 279 b 282 406 331 285 282 338 l 282 444 b 303 518 282 472 289 497 b 375 586 310 529 360 571 b 407 624 389 600 401 611 b 410 642 408 626 410 632 b 410 668 410 653 410 654 b 406 696 410 678 408 690 b 339 763 393 719 361 750 b 315 767 332 767 325 767 l 254 767 b 236 763 247 767 242 765 b 144 667 214 750 163 700 b 140 646 142 661 140 653 l 140 75 l 131 0 l 54 0 l 65 99 l 65 649 b 83 718 65 674 69 699 b 178 817 100 743 151 801 b 251 839 199 829 228 839 l 317 839 b 401 814 347 839 379 831 b 464 747 421 800 453 763 b 485 672 478 726 485 700 l 485 650 b 463 568 485 617 479 590 b 411 518 454 556 422 526 b 361 465 393 504 371 483 b 357 442 358 460 357 451 l 357 404 b 410 353 357 376 381 357 l 497 346 b 618 222 565 342 618 290 l 618 154 "},"®":{"ha":889,"x_min":0,"x_max":0,"o":"m 764 181 b 746 114 764 157 758 133 b 651 18 731 90 676 33 b 579 -4 632 6 601 -4 l 238 -4 b 167 18 215 -4 186 6 b 72 114 142 33 88 90 b 56 181 60 133 56 157 l 56 651 b 72 718 56 675 60 699 b 167 817 88 742 142 801 b 238 839 186 829 215 839 l 579 839 b 651 817 601 839 632 829 b 746 718 676 801 731 742 b 764 651 758 699 764 675 l 764 181 m 686 649 b 681 669 686 656 683 664 b 590 760 663 701 613 749 b 572 764 586 763 579 764 l 244 764 b 226 760 238 764 231 763 b 138 669 204 749 156 701 b 133 649 135 664 133 656 l 133 183 b 138 165 133 176 135 171 b 226 75 156 133 204 86 b 244 71 231 72 238 71 l 572 71 b 590 75 579 71 586 72 b 682 165 613 86 664 133 b 686 183 685 171 686 176 l 686 649 m 600 490 b 581 417 600 464 594 438 b 511 353 571 401 529 367 l 501 346 l 604 169 l 517 169 l 431 326 l 307 326 l 307 169 l 231 169 l 231 672 l 428 672 b 511 646 457 672 489 663 b 581 575 529 632 571 590 b 600 506 594 554 600 532 l 600 490 m 526 506 b 522 528 526 514 525 522 b 453 593 510 551 475 581 b 428 599 446 597 436 599 l 307 599 l 307 400 l 428 400 b 453 406 436 400 446 401 b 522 467 475 418 510 443 b 526 490 525 472 526 482 "},"©":{"ha":889,"x_min":0,"x_max":0,"o":"m 607 282 b 538 210 586 257 560 226 b 469 181 518 196 492 181 l 382 181 b 299 207 353 181 321 190 b 238 272 281 221 247 257 b 217 344 224 293 217 318 l 217 499 b 238 571 217 525 224 550 b 299 636 247 586 281 622 b 382 661 321 653 353 661 l 469 661 b 538 633 492 661 518 647 b 606 563 560 617 585 588 l 536 540 b 485 586 522 557 497 579 b 467 589 481 589 474 589 l 383 589 b 360 585 375 589 367 589 b 294 518 338 572 307 542 b 290 496 292 513 290 504 l 290 347 b 294 324 290 339 292 329 b 360 257 307 300 338 269 b 383 253 367 253 375 253 l 467 253 b 485 256 474 253 481 253 b 536 304 497 263 521 285 l 607 282 m 764 181 b 746 114 764 157 758 133 b 651 18 731 90 676 33 b 579 -4 632 6 601 -4 l 238 -4 b 167 18 215 -4 186 6 b 72 114 142 33 88 90 b 56 181 60 133 56 157 l 56 651 b 72 718 56 675 60 699 b 167 817 88 742 142 801 b 238 839 186 829 215 839 l 579 839 b 651 817 601 839 632 829 b 746 718 676 801 731 742 b 764 651 758 699 764 675 l 764 181 m 686 649 b 681 669 686 656 683 664 b 590 760 663 701 613 749 b 572 764 586 763 579 764 l 244 764 b 226 760 238 764 231 763 b 138 669 204 749 156 701 b 133 649 135 664 133 656 l 133 183 b 138 165 133 176 135 171 b 226 75 156 133 204 86 b 244 71 231 72 238 71 l 572 71 b 590 75 579 71 586 72 b 682 165 613 86 664 133 b 686 183 685 171 686 176 l 686 649 "},"™":{"ha":853,"x_min":0,"x_max":0,"o":"m 671 439 l 671 756 l 578 585 l 532 585 l 449 756 l 449 439 l 388 439 l 388 833 l 479 833 l 556 676 l 639 833 l 732 833 l 732 439 m 239 772 l 239 439 l 176 439 l 176 772 l 69 772 l 69 833 l 338 833 l 338 772 "},"´":{"ha":515,"x_min":0,"x_max":0,"o":"m 194 732 l 313 886 l 410 886 l 268 707 "},"¨":{"ha":504,"x_min":0,"x_max":0,"o":"m 338 733 l 338 840 l 443 840 l 443 733 m 135 733 l 135 840 l 240 840 l 240 733 "},"≠":{"ha":661,"x_min":0,"x_max":0,"o":"m 411 461 l 536 461 l 536 386 l 369 386 l 326 306 l 536 306 l 536 231 l 285 231 l 208 89 l 121 89 l 199 231 l 58 231 l 58 306 l 239 306 l 283 386 l 58 386 l 58 461 l 324 461 l 397 594 l 483 594 "},"Æ":{"ha":1032,"x_min":0,"x_max":0,"o":"m 431 0 l 431 192 l 146 192 l 83 0 l -4 0 l 275 833 l 886 833 l 886 756 l 511 756 l 511 456 l 867 456 l 867 378 l 511 378 l 511 78 l 886 78 l 886 0 m 329 754 l 169 269 l 431 269 l 431 754 "},"Ø":{"ha":799,"x_min":0,"x_max":0,"o":"m 663 182 b 644 114 663 158 657 133 b 551 18 629 90 576 33 b 479 -4 532 6 501 -4 l 243 -4 b 189 10 226 -4 206 1 l 164 -39 l 75 -39 l 126 58 b 78 114 106 79 86 101 b 61 182 65 133 61 158 l 61 651 b 78 719 61 675 65 700 b 172 817 93 743 147 801 b 243 839 192 829 221 839 l 479 839 b 533 826 496 839 515 833 l 554 865 l 642 865 l 594 778 b 644 719 615 757 636 733 b 663 651 657 700 663 675 l 663 182 m 582 649 b 578 669 582 656 581 664 b 554 700 572 679 564 689 l 228 82 b 232 78 229 81 231 79 b 250 74 236 75 243 74 l 474 74 b 492 78 481 74 488 75 b 578 165 514 89 560 133 b 582 183 581 171 582 176 m 492 756 b 474 761 488 760 481 761 l 250 761 b 232 757 243 761 236 760 b 147 669 210 746 165 701 b 142 649 144 664 142 656 l 142 183 b 147 165 142 176 144 171 b 168 136 153 156 160 146 l 494 753 "},"∞":{"ha":967,"x_min":0,"x_max":0,"o":"m 804 456 b 826 378 819 436 826 407 l 826 350 b 804 275 826 325 818 294 b 740 211 790 257 753 221 b 674 193 721 199 699 193 l 572 193 b 506 211 547 193 524 197 b 450 263 497 218 469 243 b 397 211 433 243 406 219 b 331 193 382 199 356 193 l 229 193 b 163 211 204 193 182 199 b 96 275 150 221 110 256 b 72 350 82 294 72 325 l 72 378 b 96 456 72 406 82 436 b 163 521 110 474 150 511 b 229 538 181 532 204 538 l 331 538 b 397 521 354 538 381 531 b 450 471 410 511 435 490 b 506 521 468 490 496 514 b 572 538 525 531 547 538 l 674 538 b 740 521 699 538 724 531 b 804 456 753 511 792 472 m 350 268 b 411 331 371 279 400 311 b 415 350 414 335 415 340 l 415 378 b 411 400 415 385 415 393 b 350 463 400 419 371 451 b 332 467 344 467 339 467 l 226 467 b 207 463 219 467 213 467 b 147 400 189 453 158 419 b 143 378 144 394 143 385 l 143 351 b 147 331 143 344 144 336 b 207 268 158 311 188 279 b 226 264 213 264 219 264 l 332 264 b 350 268 339 264 344 264 m 757 378 b 753 400 757 385 756 394 b 693 463 742 419 713 451 b 675 467 688 467 682 467 l 569 467 b 550 463 563 467 556 467 b 489 400 532 453 501 419 b 485 378 486 394 485 385 l 485 351 b 489 331 485 344 486 336 b 550 268 501 311 531 279 b 569 264 556 264 563 264 l 675 264 b 693 268 682 264 688 264 b 753 331 711 278 742 311 b 757 351 756 336 757 344 "},"±":{"ha":726,"x_min":0,"x_max":0,"o":"m 358 310 l 358 101 l 286 101 l 286 310 l 78 310 l 78 382 l 286 382 l 286 590 l 358 590 l 358 382 l 567 382 l 567 310 m 83 -94 l 83 -24 l 561 -24 l 561 -94 "},"≤":{"ha":629,"x_min":0,"x_max":0,"o":"m 131 385 l 513 169 l 513 82 l 35 356 l 35 415 l 514 688 l 514 600 "},"≥":{"ha":629,"x_min":0,"x_max":0,"o":"m 418 385 l 36 600 l 36 688 l 514 414 l 514 354 l 35 82 l 35 169 "},"¥":{"ha":675,"x_min":0,"x_max":0,"o":"m 415 451 l 554 451 l 554 379 l 376 379 l 364 356 l 364 299 l 554 299 l 554 226 l 364 226 l 364 0 l 283 0 l 283 226 l 86 226 l 86 299 l 283 299 l 283 356 l 271 379 l 86 379 l 86 451 l 232 451 l 25 833 l 114 833 l 315 451 l 331 451 l 536 833 l 624 833 "},"µ":{"ha":672,"x_min":0,"x_max":0,"o":"m 531 99 l 542 0 l 468 0 l 458 68 b 406 22 442 50 422 33 b 336 -7 386 8 361 -7 l 263 -7 b 193 17 239 -7 213 3 b 139 67 176 29 157 47 l 139 -233 l 64 -233 l 64 597 l 139 597 l 139 163 b 142 156 139 160 140 158 b 247 71 161 121 224 83 b 267 65 253 68 260 65 l 332 65 b 351 69 340 65 346 67 b 456 153 375 82 433 119 l 456 597 l 531 597 l 531 99 "},"∂":{"ha":654,"x_min":0,"x_max":0,"o":"m 56 431 b 76 511 56 464 58 483 b 139 578 86 526 119 564 b 232 604 167 599 197 604 l 333 604 b 401 578 357 604 381 592 b 456 532 419 565 436 551 l 456 656 b 451 679 456 665 454 674 b 378 756 438 703 400 743 b 353 761 371 758 363 761 l 221 761 l 199 833 l 354 833 b 439 807 383 833 417 824 b 510 732 458 793 500 749 b 531 663 524 713 531 689 l 531 507 l 531 168 b 510 94 531 140 524 115 b 439 19 500 78 458 33 b 354 -7 417 3 383 -7 l 232 -7 b 139 19 197 -7 167 -1 b 76 86 121 33 88 69 b 56 165 58 113 56 133 l 56 431 m 199 72 b 228 65 206 68 219 65 l 354 65 b 378 72 364 65 371 68 b 451 147 400 85 438 124 b 456 171 454 153 456 161 l 456 435 l 453 442 b 353 525 440 469 374 515 b 329 532 349 528 339 532 l 232 532 b 200 526 225 532 208 532 b 135 458 175 510 153 488 b 131 428 132 453 131 436 l 131 164 b 135 139 131 158 131 146 b 199 72 149 115 176 85 "},"∑":{"ha":682,"x_min":0,"x_max":0,"o":"m 172 78 l 574 78 l 574 0 l 68 0 l 68 69 l 324 421 l 68 761 l 68 833 l 574 833 l 574 756 l 169 756 l 418 422 "},"∫":{"ha":290,"x_min":0,"x_max":0,"o":"m 251 767 b 222 763 242 767 229 767 b 160 696 200 750 172 719 b 157 671 157 690 157 681 l 157 -74 b 136 -147 157 -101 150 -126 b 75 -214 125 -162 94 -200 b -10 -239 53 -231 19 -239 l -93 -239 l -93 -168 l -6 -165 b 19 -160 4 -165 13 -164 b 78 -94 42 -147 65 -118 b 82 -71 81 -89 82 -81 l 82 674 b 101 747 82 701 88 726 b 164 814 113 763 144 800 b 250 839 186 831 219 839 l 353 839 l 353 767 "},"ª":{"ha":517,"x_min":0,"x_max":0,"o":"m 358 422 b 349 463 356 435 350 449 b 258 415 329 442 286 415 l 211 415 b 135 440 186 415 156 426 b 76 501 117 454 86 488 b 60 568 64 521 60 542 l 60 690 b 76 758 60 717 64 739 b 135 819 86 772 117 806 b 211 843 156 832 186 843 l 268 843 b 347 808 296 843 326 822 l 347 807 l 347 838 l 421 838 l 421 511 b 432 422 421 481 426 450 m 347 550 b 347 715 347 597 347 647 b 289 768 338 735 308 757 b 268 774 282 772 274 774 l 213 774 b 193 768 207 774 199 772 b 136 708 174 757 147 729 b 133 688 133 703 133 696 l 133 571 b 136 550 133 563 133 556 b 193 492 147 529 174 503 b 213 486 199 488 207 486 l 258 486 b 279 492 264 486 272 488 b 347 550 299 503 336 529 "},"º":{"ha":543,"x_min":0,"x_max":0,"o":"m 419 568 b 403 501 419 542 415 521 b 344 440 393 488 363 454 b 267 415 325 426 294 415 l 210 415 b 133 440 185 415 154 426 b 75 501 115 454 85 488 b 58 568 63 521 58 542 l 58 690 b 75 758 58 717 63 739 b 133 819 85 772 115 806 b 210 843 154 832 185 843 l 267 843 b 344 819 294 843 325 832 b 403 758 363 806 393 772 b 419 690 415 739 419 717 m 346 688 b 344 710 346 697 346 704 l 344 708 b 288 768 335 728 306 757 b 267 774 281 772 272 774 l 211 774 b 192 768 206 774 197 772 b 135 708 172 757 146 729 b 132 688 132 703 132 696 l 132 571 b 135 550 132 563 132 556 b 192 492 146 529 172 503 b 211 486 197 488 206 486 l 267 486 b 288 492 272 486 281 488 b 344 550 306 503 335 531 l 344 549 b 346 571 346 554 346 561 "},"Ω":{"ha":843,"x_min":0,"x_max":0,"o":"m 456 0 l 456 78 b 613 249 493 97 603 215 b 617 286 614 253 617 279 l 617 649 b 613 667 617 656 615 663 b 528 757 601 689 560 739 b 510 761 522 760 517 761 l 256 761 b 238 757 249 761 243 760 b 153 667 206 739 164 689 b 149 649 150 663 149 656 l 149 286 b 153 249 149 279 151 253 b 310 78 163 215 272 97 l 310 0 l 42 0 l 42 78 l 215 78 b 178 100 200 85 186 93 b 78 218 151 119 88 179 b 68 301 72 240 68 279 l 68 654 b 90 726 68 676 78 707 b 186 821 106 751 163 806 b 253 839 206 833 229 839 l 513 839 b 579 821 536 839 560 833 b 675 726 603 806 660 751 b 697 654 688 707 697 676 l 697 301 b 688 218 697 279 693 240 b 588 100 678 179 614 119 b 550 78 578 93 564 85 l 724 78 l 724 0 "},"æ":{"ha":1038,"x_min":0,"x_max":0,"o":"m 474 65 b 429 19 460 49 442 28 b 343 -7 407 3 374 -7 l 194 -7 b 110 19 163 -7 132 3 b 49 85 92 35 60 69 b 28 158 35 106 28 131 l 28 186 b 49 260 28 215 35 239 b 110 325 60 275 92 310 b 194 351 132 342 163 351 l 436 351 l 436 444 b 433 458 436 450 435 456 b 367 526 421 482 389 514 b 342 532 360 531 351 532 l 211 532 b 188 526 201 532 194 531 b 121 457 165 514 136 481 l 49 481 b 69 513 53 488 60 500 b 132 579 82 531 113 564 b 215 604 154 596 183 604 l 343 604 b 429 578 375 604 407 594 b 475 533 443 569 461 550 b 519 578 489 550 507 568 b 606 604 542 594 575 604 l 744 604 b 831 578 775 604 808 594 b 893 511 850 564 882 526 b 913 438 907 490 913 465 l 913 272 l 511 272 l 511 154 b 515 139 511 149 513 143 b 582 71 528 115 560 83 b 606 65 589 67 596 65 l 750 65 b 775 71 760 65 768 67 b 839 139 797 83 828 118 l 840 142 l 914 117 b 894 86 908 106 903 97 b 832 19 883 71 851 33 b 747 -7 810 3 778 -7 l 606 -7 b 519 19 575 -7 542 3 b 474 65 507 28 488 49 m 436 279 l 196 279 b 171 274 186 279 178 278 b 107 208 149 261 119 232 b 103 186 104 203 103 196 l 103 158 b 107 136 103 149 104 142 b 171 71 119 113 149 83 b 196 65 178 67 186 65 l 342 65 b 367 71 351 65 360 67 b 433 139 389 83 421 115 b 436 150 435 142 436 146 m 515 458 b 511 442 513 454 511 449 l 511 344 l 838 344 l 838 435 b 835 458 838 444 838 453 b 768 526 822 482 790 514 b 743 532 761 531 753 532 l 606 532 b 582 526 596 532 589 531 b 515 458 560 514 528 482 "},"ø":{"ha":669,"x_min":0,"x_max":0,"o":"m 468 567 b 518 511 488 550 508 524 b 538 438 532 490 538 465 l 538 160 b 518 86 538 132 532 107 b 456 19 507 71 475 33 b 369 -7 433 3 400 -7 l 217 -7 b 174 -1 203 -7 188 -6 l 157 -33 l 79 -33 l 114 33 b 68 86 96 50 76 74 b 49 160 54 107 49 132 l 49 438 b 68 511 49 465 54 490 b 131 578 79 526 111 564 b 217 604 153 594 186 604 l 369 604 b 408 599 382 604 396 603 l 425 631 l 501 631 m 463 435 b 460 458 463 444 463 453 b 431 496 453 469 443 483 l 208 65 l 218 65 l 368 65 b 393 71 378 65 386 67 b 460 139 415 83 447 115 b 463 163 463 144 463 153 m 128 139 b 151 106 133 129 142 117 l 374 532 l 368 532 l 218 532 b 193 526 208 532 200 531 b 128 458 171 514 140 482 b 124 435 125 453 124 444 l 124 163 b 128 139 124 153 125 144 "},"¿":{"ha":632,"x_min":0,"x_max":0,"o":"m 269 726 l 269 833 l 376 833 l 376 726 m 592 160 b 561 106 583 140 571 119 b 475 18 542 79 504 36 b 403 -4 456 6 425 -4 l 233 -4 b 149 22 204 -4 171 6 b 79 96 131 36 89 81 b 60 168 65 117 60 142 l 60 264 b 146 394 60 322 97 369 l 239 443 b 283 508 264 456 283 481 l 283 597 l 364 597 l 364 501 b 275 372 364 443 329 401 l 182 322 b 140 260 158 310 140 288 l 140 171 b 144 147 140 163 142 153 b 210 79 157 124 188 92 b 235 74 217 75 226 74 l 400 74 b 419 78 407 74 415 75 b 514 182 449 93 496 143 l 592 160 "},"¡":{"ha":319,"x_min":0,"x_max":0,"o":"m 151 597 l 151 0 l 76 0 l 76 597 m 169 832 l 169 724 l 61 724 l 61 832 "},"¬":{"ha":760,"x_min":0,"x_max":0,"o":"m 628 382 l 628 146 l 554 146 l 554 308 l 49 308 l 49 381 l 628 382 "},"√":{"ha":793,"x_min":0,"x_max":0,"o":"m 726 1038 l 789 1038 l 389 -217 l 285 -217 l 111 308 l 26 308 l 26 381 l 172 381 l 336 -139 l 349 -139 "},"ƒ":{"ha":425,"x_min":0,"x_max":0,"o":"m 296 767 b 267 763 286 767 274 767 b 204 696 244 750 217 719 b 201 671 201 690 201 681 l 201 597 l 306 597 l 306 525 l 201 525 l 201 0 l 201 -74 b 181 -147 201 -101 194 -126 b 118 -214 169 -162 138 -200 b 33 -239 96 -231 63 -239 l -54 -239 l -54 -167 l 32 -167 b 57 -162 42 -167 50 -167 b 122 -94 79 -150 110 -118 b 126 -71 125 -89 126 -81 l 126 525 l 28 525 l 28 597 l 125 597 l 126 597 l 126 674 b 146 747 126 701 132 726 b 208 814 157 763 189 800 b 294 839 231 831 264 839 l 383 839 l 383 767 "},"≈":{"ha":661,"x_min":0,"x_max":0,"o":"m 457 204 b 392 239 449 231 421 243 l 207 201 b 56 286 142 185 75 221 l 126 303 b 192 268 135 276 163 264 l 376 306 b 528 221 442 322 508 286 m 457 381 b 392 415 449 407 421 419 l 207 378 b 56 463 142 361 75 397 l 126 479 b 192 444 135 453 163 440 l 376 482 b 528 397 442 499 508 463 "},"∆":{"ha":746,"x_min":0,"x_max":0,"o":"m -14 0 l 265 833 l 390 833 l 669 0 m 560 78 l 336 754 l 318 754 l 94 78 "},"«":{"ha":756,"x_min":0,"x_max":0,"o":"m 269 129 l 69 343 l 269 560 l 351 535 l 169 344 l 351 153 m 507 129 l 307 343 l 507 560 l 589 535 l 407 344 l 589 153 "},"»":{"ha":756,"x_min":0,"x_max":0,"o":"m 307 153 l 489 344 l 307 535 l 389 560 l 589 343 l 389 129 m 69 153 l 251 344 l 69 535 l 151 560 l 351 343 l 151 129 "},"…":{"ha":849,"x_min":0,"x_max":0,"o":"m 568 0 l 568 108 l 676 108 l 676 0 m 351 0 l 351 108 l 460 108 l 460 0 m 133 0 l 133 108 l 242 108 l 242 0 "}," ":{"ha":317,"x_min":0,"x_max":0,"o":""},"À":{"ha":746,"x_min":0,"x_max":0,"o":"m 593 0 l 531 193 l 144 193 l 81 0 l -4 0 l 275 833 l 400 833 l 679 0 l 593 0 m 169 271 l 506 271 l 346 754 l 328 754 l 169 271 m 357 906 l 215 1085 l 313 1085 l 431 931 "},"Ã":{"ha":746,"x_min":0,"x_max":0,"o":"m 593 0 l 531 193 l 144 193 l 81 0 l -4 0 l 275 833 l 400 833 l 679 0 l 593 0 m 169 271 l 506 271 l 346 754 l 328 754 l 169 271 m 458 931 b 393 965 450 957 422 969 l 292 940 b 140 1025 226 924 160 960 l 211 1042 b 276 1007 219 1015 247 1003 l 378 1032 b 529 947 443 1049 510 1013 "},"Õ":{"ha":783,"x_min":0,"x_max":0,"o":"m 649 179 b 631 111 649 156 643 131 b 536 15 615 88 561 31 b 464 -7 517 3 486 -7 l 244 -7 b 174 15 222 -7 193 3 b 78 111 149 31 93 88 b 61 179 65 131 61 156 l 61 651 b 78 719 61 675 65 700 b 174 817 93 743 149 801 b 244 839 193 829 222 839 l 464 839 b 536 817 486 839 517 829 b 631 719 561 801 615 743 b 649 651 643 700 649 675 l 649 179 m 568 649 b 564 669 568 656 567 664 b 476 757 546 701 499 746 b 458 761 472 760 465 761 l 251 761 b 233 757 244 761 238 760 b 147 669 211 746 165 701 b 142 649 144 664 142 656 l 142 181 b 147 163 142 174 144 168 b 233 75 165 131 211 86 b 251 71 238 72 244 71 l 458 71 b 476 75 465 71 472 72 b 564 163 499 86 546 131 b 568 181 567 168 568 174 m 481 931 b 415 965 472 957 444 969 l 314 940 b 163 1025 249 924 182 960 l 233 1042 b 299 1007 242 1015 269 1003 l 400 1032 b 551 947 465 1049 532 1013 "},"Œ":{"ha":1165,"x_min":0,"x_max":0,"o":"m 556 0 l 556 42 b 522 15 543 31 531 21 b 450 -7 503 3 472 -7 l 244 -7 b 174 15 222 -7 193 3 b 78 111 149 31 93 88 b 61 179 65 131 61 156 l 61 651 b 78 719 61 675 65 700 b 174 817 93 743 149 801 b 244 839 193 829 222 839 l 450 839 b 522 817 472 839 503 829 b 556 789 531 811 543 801 l 556 833 l 1019 833 l 1019 756 l 635 756 l 635 456 l 999 456 l 999 378 l 635 378 l 635 78 l 1019 78 l 1019 0 m 554 649 b 550 669 554 656 553 664 b 463 757 532 701 485 746 b 444 761 457 760 450 761 l 251 761 b 233 757 244 761 238 760 b 147 669 211 746 165 701 b 142 649 144 664 142 656 l 142 181 b 147 163 142 174 144 168 b 233 75 165 131 211 86 b 251 71 238 72 244 71 l 444 71 b 463 75 451 71 458 72 b 550 163 485 86 532 131 b 554 181 553 168 554 174 "},"œ":{"ha":1050,"x_min":0,"x_max":0,"o":"m 524 160 b 528 139 524 151 525 143 b 594 71 540 115 572 83 b 618 65 601 67 608 65 l 763 65 b 788 71 772 65 781 67 b 851 139 810 83 840 118 l 853 142 l 926 117 b 907 86 921 106 915 97 b 844 19 896 71 864 33 b 760 -7 822 3 790 -7 l 618 -7 b 532 19 588 -7 554 3 b 486 64 519 28 500 47 b 442 19 472 47 454 28 b 356 -7 419 3 386 -7 l 217 -7 b 131 19 186 -7 153 3 b 68 86 111 33 79 71 b 49 160 54 107 49 132 l 49 438 b 68 511 49 465 54 490 b 131 578 79 526 111 564 b 217 604 153 594 186 604 l 356 604 b 442 578 386 604 419 594 b 486 533 454 568 472 550 b 532 578 500 550 519 568 b 618 604 554 594 588 604 l 757 604 b 843 578 788 604 821 594 b 906 511 863 564 894 526 b 925 438 919 490 925 465 l 925 272 l 524 272 l 524 160 m 446 139 b 449 160 449 143 449 151 l 449 435 b 446 458 449 444 449 453 b 379 526 433 482 401 514 b 354 532 372 531 364 532 l 218 532 b 193 526 208 532 200 531 b 128 458 171 514 140 482 b 124 435 125 453 124 444 l 124 163 b 128 139 124 153 125 144 b 193 71 140 115 171 83 b 218 65 200 67 208 65 l 354 65 b 379 71 364 65 372 67 b 446 139 401 83 433 115 m 528 458 b 524 435 525 453 524 444 l 524 344 l 850 344 l 850 435 b 847 458 850 444 850 453 b 781 526 835 482 803 514 b 756 532 774 531 765 532 l 618 532 b 594 526 608 532 601 531 b 528 458 572 514 540 482 "},"–":{"ha":632,"x_min":0,"x_max":0,"o":"m 56 308 l 56 381 l 507 381 l 507 308 "},"—":{"ha":760,"x_min":0,"x_max":0,"o":"m 56 308 l 56 381 l 635 381 l 635 308 "},"“":{"ha":497,"x_min":0,"x_max":0,"o":"m 113 890 l 199 890 l 103 657 l 29 683 m 301 890 l 388 890 l 292 657 l 218 683 "},"”":{"ha":497,"x_min":0,"x_max":0,"o":"m 304 668 l 218 668 l 314 901 l 388 875 m 115 668 l 29 668 l 125 901 l 199 875 "},"‘":{"ha":308,"x_min":0,"x_max":0,"o":"m 115 657 l 29 657 l 125 890 l 199 864 "},"’":{"ha":308,"x_min":0,"x_max":0,"o":"m 113 900 l 199 900 l 103 667 l 29 693 "},"÷":{"ha":632,"x_min":0,"x_max":0,"o":"m 56 308 l 56 381 l 507 381 l 507 308 m 228 492 l 228 600 l 336 600 l 336 492 m 228 94 l 228 203 l 336 203 l 336 94 "},"◊":{"ha":889,"x_min":0,"x_max":0,"o":"m 764 181 b 746 114 764 157 758 133 b 651 18 731 90 676 33 b 579 -4 632 6 601 -4 l 238 -4 b 167 18 215 -4 186 6 b 72 114 142 33 88 90 b 56 181 60 133 56 157 l 56 651 b 72 718 56 675 60 699 b 167 817 88 742 142 801 b 238 839 186 829 215 839 l 579 839 b 651 817 601 839 632 829 b 746 718 676 801 731 742 b 764 651 758 699 764 675 l 764 181 m 686 649 b 681 669 686 656 683 664 b 590 760 663 701 613 749 b 572 764 586 763 579 764 l 244 764 b 226 760 238 764 231 763 b 138 669 204 749 156 701 b 133 649 135 664 133 656 l 133 183 b 138 165 133 176 135 171 b 226 75 156 133 204 86 b 244 71 231 72 238 71 l 572 71 b 590 75 579 71 586 72 b 682 165 613 86 664 133 b 686 183 685 171 686 176 l 686 649 m 600 490 b 581 417 600 464 594 438 b 510 353 571 401 538 374 b 431 326 492 340 461 326 l 307 326 l 307 169 l 231 169 l 231 672 l 428 672 b 511 646 457 672 489 663 b 581 575 529 632 571 590 b 600 506 594 554 600 532 l 600 490 m 526 506 b 522 528 526 514 525 522 b 453 593 510 551 475 581 b 428 599 446 597 436 599 l 307 599 l 307 400 l 428 400 b 453 406 436 400 446 401 b 522 467 475 418 510 443 b 526 490 525 472 526 482 "},"ÿ":{"ha":583,"x_min":0,"x_max":0,"o":"m 424 597 l 504 597 l 233 -233 l 154 -233 l 233 0 l 201 0 l 7 597 l 88 597 l 251 76 l 260 76 l 424 597 m 304 733 l 304 840 l 410 840 l 410 733 m 101 733 l 101 840 l 207 840 l 207 733 "},"Ÿ":{"ha":621,"x_min":0,"x_max":0,"o":"m 315 356 l 315 0 l 235 0 l 235 356 l -24 833 l 65 833 l 275 438 l 488 833 l 575 833 m 328 928 l 328 1035 l 433 1035 l 433 928 m 125 928 l 125 1035 l 231 1035 l 231 928 "},"⁄":{"ha":900,"x_min":0,"x_max":0,"o":""},"‹":{"ha":518,"x_min":0,"x_max":0,"o":"m 269 129 l 69 343 l 269 560 l 351 535 l 169 344 l 351 153 "},"›":{"ha":518,"x_min":0,"x_max":0,"o":"m 69 153 l 251 344 l 69 535 l 151 560 l 351 343 l 151 129 "},"ﬁ":{"ha":713,"x_min":0,"x_max":0,"o":"m 282 767 b 253 763 272 767 260 767 b 190 696 231 750 203 719 b 188 671 188 690 188 681 l 188 597 l 357 597 l 357 525 l 188 525 l 188 0 l 113 0 l 113 525 l 14 525 l 14 597 l 113 597 l 113 674 b 132 747 113 701 118 726 b 194 814 143 763 175 800 b 281 839 217 831 250 839 l 397 839 l 397 767 m 494 0 l 494 597 l 569 597 l 569 0 m 479 733 l 479 840 l 585 840 l 585 733 "},"ﬂ":{"ha":717,"x_min":0,"x_max":0,"o":"m 282 767 b 253 763 272 767 260 767 b 190 696 231 750 203 719 b 188 671 188 690 188 681 l 188 597 l 357 597 l 357 525 l 188 525 l 188 0 l 113 0 l 113 525 l 14 525 l 14 597 l 113 597 l 113 674 b 132 747 113 701 118 726 b 194 814 143 763 175 800 b 281 839 217 831 250 839 l 397 839 l 397 767 m 514 0 b 501 78 511 24 501 54 l 501 833 l 576 833 l 576 94 b 589 0 576 64 586 31 "},"‡":{"ha":463,"x_min":0,"x_max":0,"o":"m 253 310 l 350 310 l 350 238 l 253 238 l 253 1 l 181 1 l 181 238 l 83 238 l 83 310 l 181 310 l 181 525 l 83 525 l 83 597 l 181 597 l 181 832 l 253 832 l 253 597 l 350 597 l 350 525 l 253 525 l 253 310 "},"·":{"ha":404,"x_min":0,"x_max":0,"o":"m 100 294 l 100 403 l 208 403 l 208 294 "},"‚":{"ha":308,"x_min":0,"x_max":0,"o":"m 115 -121 l 29 -121 l 125 113 l 199 86 "},"„":{"ha":497,"x_min":0,"x_max":0,"o":"m 304 -121 l 218 -121 l 314 113 l 388 86 m 115 -121 l 29 -121 l 125 113 l 199 86 "},"‰":{"ha":1431,"x_min":0,"x_max":0,"o":"m 393 568 b 376 501 393 542 389 521 b 318 440 367 488 336 454 b 240 415 297 426 267 415 l 183 415 b 107 440 157 415 126 426 b 49 501 89 454 58 488 b 32 568 36 521 32 542 l 32 690 b 49 758 32 717 36 739 b 107 819 58 772 89 806 b 183 843 126 832 157 843 l 240 843 b 318 819 267 843 297 832 b 376 758 336 806 367 772 b 393 690 389 739 393 717 m 319 688 b 318 710 319 697 319 704 l 318 708 b 261 768 307 728 278 757 b 240 774 254 772 246 774 l 185 774 b 164 768 179 774 171 772 b 108 708 144 757 118 729 b 106 688 106 703 106 696 l 106 571 b 108 550 106 563 106 556 b 164 492 118 529 144 503 b 185 486 171 488 179 486 l 240 486 b 261 492 246 486 254 488 b 318 550 278 503 307 531 l 318 549 b 319 571 319 554 319 561 m 276 0 l 190 0 l 628 833 l 713 833 m 1313 146 b 1296 78 1313 119 1308 97 b 1238 18 1286 65 1256 32 b 1160 -7 1217 4 1188 -7 l 1103 -7 b 1026 18 1076 -7 1046 4 b 968 78 1008 32 978 65 b 951 146 956 97 951 119 l 951 268 b 968 336 951 294 956 317 b 1026 396 978 350 1008 382 b 1103 421 1046 410 1076 421 l 1160 421 b 1238 396 1188 421 1217 410 b 1296 336 1256 382 1286 350 b 1313 268 1308 317 1313 294 m 1239 265 b 1238 288 1239 275 1239 282 l 1238 286 b 1181 346 1226 306 1197 335 b 1160 351 1174 350 1165 351 l 1104 351 b 1083 346 1099 351 1090 350 b 1028 286 1064 335 1038 307 b 1025 265 1025 281 1025 274 l 1025 149 b 1028 128 1025 140 1025 133 b 1083 69 1038 107 1064 79 b 1104 64 1090 65 1099 64 l 1160 64 b 1181 69 1165 64 1174 65 b 1238 128 1197 79 1226 108 l 1238 126 b 1239 149 1239 132 1239 139 m 875 146 b 858 78 875 119 871 97 b 800 18 849 65 818 32 b 722 -7 779 4 750 -7 l 665 -7 b 589 18 639 -7 608 4 b 531 78 571 32 540 65 b 514 146 518 97 514 119 l 514 268 b 531 336 514 294 518 317 b 589 396 540 350 571 382 b 665 421 608 410 639 421 l 722 421 b 800 396 750 421 779 410 b 858 336 818 382 849 350 b 875 268 871 317 875 294 m 801 265 b 800 288 801 275 801 282 l 800 286 b 743 346 789 306 760 335 b 722 351 736 350 728 351 l 667 351 b 646 346 661 351 653 350 b 590 286 626 335 600 307 b 588 265 588 281 588 274 l 588 149 b 590 128 588 140 588 133 b 646 69 600 107 626 79 b 667 64 653 65 661 64 l 722 64 b 743 69 728 64 736 65 b 800 128 760 79 789 108 l 800 126 b 801 149 801 132 801 139 "},"Â":{"ha":746,"x_min":0,"x_max":0,"o":"m 593 0 l 531 193 l 144 193 l 81 0 l -4 0 l 275 833 l 400 833 l 679 0 l 593 0 m 169 271 l 506 271 l 346 754 l 328 754 l 169 271 m 169 917 l 299 1078 l 378 1078 l 507 917 l 413 917 l 338 1011 l 264 917 "},"Ê":{"ha":696,"x_min":0,"x_max":0,"o":"m 68 0 l 68 833 l 546 833 l 546 756 l 149 756 l 149 456 l 525 456 l 525 378 l 149 378 l 149 78 l 546 78 l 546 0 m 146 917 l 275 1078 l 354 1078 l 483 917 l 389 917 l 314 1011 l 240 917 "},"Á":{"ha":746,"x_min":0,"x_max":0,"o":"m 593 0 l 531 193 l 144 193 l 81 0 l -4 0 l 275 833 l 400 833 l 679 0 l 593 0 m 169 271 l 506 271 l 346 754 l 328 754 l 169 271 m 232 926 l 350 1081 l 447 1081 l 306 901 "},"Ë":{"ha":696,"x_min":0,"x_max":0,"o":"m 68 0 l 68 833 l 546 833 l 546 756 l 149 756 l 149 456 l 525 456 l 525 378 l 149 378 l 149 78 l 546 78 l 546 0 m 374 918 l 374 1025 l 479 1025 l 479 918 m 171 918 l 171 1025 l 276 1025 l 276 918 "},"È":{"ha":696,"x_min":0,"x_max":0,"o":"m 68 0 l 68 833 l 546 833 l 546 756 l 149 756 l 149 456 l 525 456 l 525 378 l 149 378 l 149 78 l 546 78 l 546 0 m 315 901 l 174 1081 l 271 1081 l 389 926 "},"Í":{"ha":319,"x_min":0,"x_max":0,"o":"m 68 0 l 68 833 l 149 833 l 149 0 m 31 926 l 149 1081 l 246 1081 l 104 901 "},"Î":{"ha":319,"x_min":0,"x_max":0,"o":"m 68 0 l 68 833 l 149 833 l 149 0 m -61 917 l 68 1078 l 147 1078 l 276 917 l 182 917 l 107 1011 l 33 917 "},"Ï":{"ha":319,"x_min":0,"x_max":0,"o":"m 68 0 l 68 833 l 149 833 l 149 0 m 157 925 l 157 1032 l 263 1032 l 263 925 m -46 925 l -46 1032 l 60 1032 l 60 925 "},"Ì":{"ha":319,"x_min":0,"x_max":0,"o":"m 68 0 l 68 833 l 149 833 l 149 0 m 99 901 l -43 1081 l 54 1081 l 172 926 "},"Ó":{"ha":783,"x_min":0,"x_max":0,"o":"m 649 179 b 631 111 649 156 643 131 b 536 15 615 88 561 31 b 464 -7 517 3 486 -7 l 244 -7 b 174 15 222 -7 193 3 b 78 111 149 31 93 88 b 61 179 65 131 61 156 l 61 651 b 78 719 61 675 65 700 b 174 817 93 743 149 801 b 244 839 193 829 222 839 l 464 839 b 536 817 486 839 517 829 b 631 719 561 801 615 743 b 649 651 643 700 649 675 l 649 179 m 568 649 b 564 669 568 656 567 664 b 476 757 546 701 499 746 b 458 761 472 760 465 761 l 251 761 b 233 757 244 761 238 760 b 147 669 211 746 165 701 b 142 649 144 664 142 656 l 142 181 b 147 163 142 174 144 168 b 233 75 165 131 211 86 b 251 71 238 72 244 71 l 458 71 b 476 75 465 71 472 72 b 564 163 499 86 546 131 b 568 181 567 168 568 174 m 249 926 l 367 1081 l 464 1081 l 322 901 "},"Ô":{"ha":783,"x_min":0,"x_max":0,"o":"m 649 179 b 631 111 649 156 643 131 b 536 15 615 88 561 31 b 464 -7 517 3 486 -7 l 244 -7 b 174 15 222 -7 193 3 b 78 111 149 31 93 88 b 61 179 65 131 61 156 l 61 651 b 78 719 61 675 65 700 b 174 817 93 743 149 801 b 244 839 193 829 222 839 l 464 839 b 536 817 486 839 517 829 b 631 719 561 801 615 743 b 649 651 643 700 649 675 l 649 179 m 568 649 b 564 669 568 656 567 664 b 476 757 546 701 499 746 b 458 761 472 760 465 761 l 251 761 b 233 757 244 761 238 760 b 147 669 211 746 165 701 b 142 649 144 664 142 656 l 142 181 b 147 163 142 174 144 168 b 233 75 165 131 211 86 b 251 71 238 72 244 71 l 458 71 b 476 75 465 71 472 72 b 564 163 499 86 546 131 b 568 181 567 168 568 174 m 193 917 l 322 1078 l 401 1078 l 531 917 l 436 917 l 361 1011 l 288 917 "},"Ò":{"ha":783,"x_min":0,"x_max":0,"o":"m 649 179 b 631 111 649 156 643 131 b 536 15 615 88 561 31 b 464 -7 517 3 486 -7 l 244 -7 b 174 15 222 -7 193 3 b 78 111 149 31 93 88 b 61 179 65 131 61 156 l 61 651 b 78 719 61 675 65 700 b 174 817 93 743 149 801 b 244 839 193 829 222 839 l 464 839 b 536 817 486 839 517 829 b 631 719 561 801 615 743 b 649 651 643 700 649 675 l 649 179 m 568 649 b 564 669 568 656 567 664 b 476 757 546 701 499 746 b 458 761 472 760 465 761 l 251 761 b 233 757 244 761 238 760 b 147 669 211 746 165 701 b 142 649 144 664 142 656 l 142 181 b 147 163 142 174 144 168 b 233 75 165 131 211 86 b 251 71 238 72 244 71 l 458 71 b 476 75 465 71 472 72 b 564 163 499 86 546 131 b 568 181 567 168 568 174 m 365 901 l 224 1081 l 321 1081 l 439 926 "},"Ú":{"ha":743,"x_min":0,"x_max":0,"o":"m 621 178 b 604 111 621 154 617 131 b 510 15 589 88 535 31 b 439 -7 490 3 461 -7 l 253 -7 b 181 15 231 -7 200 3 b 86 111 156 31 101 88 b 68 178 74 131 68 154 l 68 833 l 149 833 l 149 181 b 154 163 149 174 151 168 b 242 75 172 131 219 86 b 260 71 246 72 253 71 l 432 71 b 450 75 439 71 446 72 b 535 163 472 86 517 131 b 540 181 538 168 540 174 l 540 833 l 621 833 l 621 178 m 239 926 l 357 1081 l 454 1081 l 313 901 "},"Û":{"ha":743,"x_min":0,"x_max":0,"o":"m 621 178 b 604 111 621 154 617 131 b 510 15 589 88 535 31 b 439 -7 490 3 461 -7 l 253 -7 b 181 15 231 -7 200 3 b 86 111 156 31 101 88 b 68 178 74 131 68 154 l 68 833 l 149 833 l 149 181 b 154 163 149 174 151 168 b 242 75 172 131 219 86 b 260 71 246 72 253 71 l 432 71 b 450 75 439 71 446 72 b 535 163 472 86 517 131 b 540 181 538 168 540 174 l 540 833 l 621 833 l 621 178 m 169 917 l 299 1078 l 378 1078 l 507 917 l 413 917 l 338 1011 l 264 917 "},"Ù":{"ha":743,"x_min":0,"x_max":0,"o":"m 621 178 b 604 111 621 154 617 131 b 510 15 589 88 535 31 b 439 -7 490 3 461 -7 l 253 -7 b 181 15 231 -7 200 3 b 86 111 156 31 101 88 b 68 178 74 131 68 154 l 68 833 l 149 833 l 149 181 b 154 163 149 174 151 168 b 242 75 172 131 219 86 b 260 71 246 72 253 71 l 432 71 b 450 75 439 71 446 72 b 535 163 472 86 517 131 b 540 181 538 168 540 174 l 540 833 l 621 833 l 621 178 m 349 901 l 207 1081 l 304 1081 l 422 926 "},"ı":{"ha":286,"x_min":0,"x_max":0,"o":"m 68 0 l 68 597 l 143 597 l 143 0 "},"ˆ":{"ha":589,"x_min":0,"x_max":0,"o":"m 122 722 l 251 883 l 331 883 l 460 722 l 365 722 l 290 817 l 217 722 "},"˜":{"ha":585,"x_min":0,"x_max":0,"o":"m 397 736 b 332 771 389 763 361 775 l 231 746 b 79 831 165 729 99 765 l 150 847 b 215 813 158 821 186 808 l 317 838 b 468 753 382 854 449 818 "},"¯":{"ha":533,"x_min":0,"x_max":0,"o":"m 64 771 l 64 840 l 417 840 l 417 771 "},"˘":{"ha":474,"x_min":0,"x_max":0,"o":"m 304 850 b 357 850 304 850 354 850 b 224 718 357 776 297 718 b 93 850 150 718 93 776 l 146 850 b 224 771 146 807 181 771 b 304 850 267 771 304 807 "},"˙":{"ha":286,"x_min":0,"x_max":0,"o":"m 64 733 l 64 840 l 169 840 l 169 733 "},"˚":{"ha":519,"x_min":0,"x_max":0,"o":"m 357 846 b 224 714 357 772 297 714 b 93 846 150 714 93 772 b 224 978 93 919 150 978 b 357 846 297 978 357 919 m 304 846 b 224 925 304 889 267 925 b 146 846 181 925 146 889 b 224 767 146 803 181 767 b 304 846 267 767 304 803 "},"¸":{"ha":564,"x_min":0,"x_max":0,"o":"m 231 -233 l 149 -233 l 264 -53 l 331 -79 "},"˝":{"ha":515,"x_min":0,"x_max":0,"o":"m 156 732 l 274 886 l 364 886 l 222 707 m 290 732 l 408 886 l 499 886 l 357 707 "},"˛":{"ha":564,"x_min":0,"x_max":0,"o":"m 204 -79 l 271 -53 l 386 -233 l 304 -233 "},"ˇ":{"ha":589,"x_min":0,"x_max":0,"o":"m 460 883 l 331 722 l 251 722 l 122 883 l 217 883 l 292 792 l 365 883 "},"Ð":{"ha":797,"x_min":0,"x_max":0,"o":"m 642 714 b 658 647 654 694 658 671 l 658 185 b 642 118 658 161 654 138 b 547 22 626 94 572 38 b 476 0 528 10 499 0 l 110 0 l 110 378 l -11 378 l -11 456 l 110 456 l 110 833 l 476 833 b 547 813 499 833 528 825 b 642 714 572 797 626 738 m 578 644 b 574 665 578 651 576 660 b 488 751 556 697 510 740 b 469 756 483 754 476 756 l 190 756 l 190 456 l 382 456 l 382 378 l 190 378 l 190 78 l 469 78 b 488 82 476 78 483 79 b 574 169 510 93 556 138 b 578 188 576 175 578 181 "},"":{"ha":694,"x_min":0,"x_max":0,"o":""},"€":{"ha":810,"x_min":0,"x_max":0,"o":"m 683 157 b 653 101 675 138 663 115 b 567 15 633 75 596 33 b 496 -7 547 3 518 -7 l 299 -7 b 226 15 276 -7 246 3 b 132 111 201 31 147 88 b 115 178 119 131 115 154 l 115 307 l 56 307 l 56 379 l 115 379 l 115 460 l 56 460 l 56 532 l 115 532 l 115 653 b 132 719 115 676 119 700 b 226 817 147 743 201 801 b 297 839 246 829 275 839 l 496 839 b 567 817 518 839 547 829 b 654 729 596 799 635 756 b 683 675 664 715 675 694 l 606 651 b 511 757 589 690 540 742 b 492 761 507 760 499 761 l 304 761 b 286 757 297 761 290 760 b 199 669 264 746 217 701 b 196 649 196 664 196 656 l 196 532 l 524 532 l 524 460 l 196 460 l 196 379 l 524 379 l 524 307 l 196 307 l 196 181 b 199 163 196 174 196 168 b 286 75 217 131 264 86 b 304 71 290 72 297 71 l 492 71 b 511 75 499 71 507 72 b 606 179 540 90 588 140 l 683 157 "},"Č":{"ha":725,"x_min":0,"x_max":0,"o":"m 618 157 b 586 103 610 138 596 117 b 500 15 567 76 529 33 b 429 -7 481 3 451 -7 l 246 -7 b 174 15 224 -7 193 3 b 79 111 149 31 94 88 b 61 178 67 131 61 154 l 61 653 b 79 719 61 676 67 700 b 174 817 94 743 149 801 b 244 839 193 829 222 839 l 429 839 b 500 817 451 839 481 829 b 586 729 529 799 567 756 b 618 675 596 715 610 694 l 538 651 b 444 757 521 690 474 742 b 425 761 440 760 432 761 l 251 761 b 233 757 244 761 238 760 b 146 669 211 746 164 701 b 142 650 143 664 142 657 l 142 181 b 146 163 142 174 143 168 b 233 75 164 131 211 86 b 251 71 238 72 244 71 l 425 71 b 444 75 432 71 440 72 b 538 179 474 90 518 142 l 618 157 m 499 1078 l 369 917 l 290 917 l 161 1078 l 256 1078 l 331 986 l 404 1078 "},"Ć":{"ha":725,"x_min":0,"x_max":0,"o":"m 618 157 b 586 103 610 138 596 117 b 500 15 567 76 529 33 b 429 -7 481 3 451 -7 l 246 -7 b 174 15 224 -7 193 3 b 79 111 149 31 94 88 b 61 178 67 131 61 154 l 61 653 b 79 719 61 676 67 700 b 174 817 94 743 149 801 b 244 839 193 829 222 839 l 429 839 b 500 817 451 839 481 829 b 586 729 529 799 567 756 b 618 675 596 715 610 694 l 538 651 b 444 757 521 690 474 742 b 425 761 440 760 432 761 l 251 761 b 233 757 244 761 238 760 b 146 669 211 746 164 701 b 142 650 143 664 142 657 l 142 181 b 146 163 142 174 143 168 b 233 75 164 131 211 86 b 251 71 238 72 244 71 l 425 71 b 444 75 432 71 440 72 b 538 179 474 90 518 142 l 618 157 m 243 926 l 361 1081 l 458 1081 l 317 901 "},"Ĺ":{"ha":632,"x_min":0,"x_max":0,"o":"m 68 0 l 68 833 l 149 833 l 149 78 l 538 78 l 538 0 m 194 926 l 313 1081 l 410 1081 l 268 901 "},"Ă":{"ha":746,"x_min":0,"x_max":0,"o":"m 593 0 l 531 193 l 144 193 l 81 0 l -4 0 l 275 833 l 400 833 l 679 0 l 593 0 m 169 271 l 506 271 l 346 754 l 328 754 l 169 271 m 417 1044 b 469 1044 417 1044 467 1044 b 336 913 469 971 410 913 b 206 1044 263 913 206 971 l 258 1044 b 336 965 258 1001 293 965 b 417 1044 379 965 417 1001 "},"Ŕ":{"ha":765,"x_min":0,"x_max":0,"o":"m 617 539 b 596 467 617 513 610 488 b 525 394 586 451 543 408 b 447 368 503 378 475 368 l 654 0 l 563 0 l 357 368 l 149 368 l 149 0 l 68 0 l 68 833 l 443 833 b 525 807 472 833 503 824 b 596 733 543 793 586 749 b 617 661 610 713 617 688 l 617 539 m 536 658 b 533 682 536 667 536 676 b 465 751 521 706 488 739 b 442 756 458 756 450 756 l 149 756 l 149 446 l 442 446 b 465 451 450 446 458 447 b 533 518 488 464 521 494 b 536 542 536 524 536 533 m 201 926 l 319 1081 l 417 1081 l 275 901 "},"ż":{"ha":586,"x_min":0,"x_max":0,"o":"m 53 0 l 53 67 l 367 525 l 42 525 l 42 597 l 460 597 l 460 529 l 147 72 l 475 72 l 475 0 m 199 733 l 199 840 l 304 840 l 304 733 "},"ľ":{"ha":335,"x_min":0,"x_max":0,"o":"m 76 0 b 64 78 74 24 64 54 l 64 833 l 139 833 l 139 94 b 151 0 139 64 149 31 m 319 900 l 406 900 l 310 667 l 236 693 "},"Ľ":{"ha":632,"x_min":0,"x_max":0,"o":"m 68 0 l 68 833 l 149 833 l 149 78 l 538 78 l 538 0 m 335 900 l 421 900 l 325 667 l 251 693 "},"ș":{"ha":649,"x_min":0,"x_max":0,"o":"m 524 154 b 503 81 524 126 517 101 b 446 19 492 65 465 33 b 361 -7 424 3 390 -7 l 194 -7 b 110 19 165 -7 132 3 b 49 85 90 33 60 69 b 29 117 42 96 32 110 l 101 142 b 167 71 113 118 144 83 b 192 65 174 67 182 65 l 360 65 b 383 71 369 65 376 67 b 444 133 406 83 432 110 b 449 157 447 139 449 147 l 449 207 b 396 258 449 235 425 256 l 167 275 b 46 401 99 281 46 333 l 46 443 b 67 517 46 471 53 496 b 124 578 78 532 104 564 b 208 604 146 594 179 604 l 353 604 b 438 578 382 604 415 594 b 500 511 457 564 489 526 b 519 481 508 500 517 488 l 447 456 b 381 526 436 479 403 514 b 357 532 374 531 367 532 l 210 532 b 185 526 200 532 192 531 b 125 465 163 514 138 489 b 121 442 122 460 121 451 l 121 400 b 174 349 121 372 144 351 l 403 331 b 524 204 471 325 524 272 l 524 154 m 271 -233 l 189 -233 l 304 -53 l 371 -79 "},"ą":{"ha":653,"x_min":0,"x_max":0,"o":"m 446 0 l 438 69 b 385 22 421 51 400 33 b 317 -7 364 7 340 -7 l 194 -7 b 110 19 163 -7 132 3 b 49 85 92 35 60 69 b 28 158 35 106 28 131 l 28 186 b 49 260 28 215 35 239 b 110 325 60 275 92 310 b 194 351 132 342 163 351 l 436 351 l 436 436 b 433 458 436 447 435 454 b 367 526 421 482 389 514 b 342 532 360 531 351 532 l 211 532 b 188 526 201 532 194 531 b 121 457 165 514 136 481 l 49 481 b 69 513 53 488 60 500 b 132 579 82 531 113 564 b 215 604 154 596 183 604 l 343 604 b 429 578 375 604 407 594 b 492 513 450 565 481 528 b 511 438 507 492 511 465 l 511 99 l 521 0 m 332 69 b 436 154 354 81 418 121 l 436 281 l 196 281 b 171 275 186 281 178 279 b 107 208 149 263 119 232 b 103 186 104 203 103 196 l 103 158 b 107 136 103 149 104 142 b 171 71 119 113 149 83 b 196 65 178 67 186 65 l 313 65 b 332 69 319 65 326 67 m 372 -79 l 439 -53 l 554 -233 l 472 -233 "},"Š":{"ha":761,"x_min":0,"x_max":0,"o":"m 643 179 b 626 111 643 156 639 131 b 531 15 611 88 556 31 b 460 -7 511 3 482 -7 l 229 -7 b 157 15 207 -7 176 3 b 71 103 128 33 90 76 b 40 157 61 117 49 138 l 119 179 b 129 163 125 167 129 163 b 214 75 149 129 190 88 b 233 71 218 72 226 71 l 454 71 b 471 75 461 71 467 72 b 558 158 493 86 540 126 b 563 176 561 164 563 169 l 563 265 b 518 331 563 293 544 324 l 138 435 b 51 565 83 450 51 507 l 51 651 b 68 719 51 675 56 700 b 164 817 83 743 139 801 b 235 839 183 829 213 839 l 442 839 b 513 817 464 839 493 829 b 599 729 542 799 579 756 b 631 675 608 715 622 694 l 550 651 b 540 669 544 664 540 669 b 456 757 522 703 479 744 b 438 761 451 760 444 761 l 242 761 b 224 757 235 761 228 760 b 138 676 201 746 156 708 b 132 658 135 671 132 665 l 132 571 b 175 508 132 543 150 515 l 554 403 b 643 274 608 388 643 332 l 643 179 m 503 1078 l 374 917 l 294 917 l 165 1078 l 260 1078 l 335 986 l 408 1078 "},"Ś":{"ha":761,"x_min":0,"x_max":0,"o":"m 643 179 b 626 111 643 156 639 131 b 531 15 611 88 556 31 b 460 -7 511 3 482 -7 l 229 -7 b 157 15 207 -7 176 3 b 71 103 128 33 90 76 b 40 157 61 117 49 138 l 119 179 b 129 163 125 167 129 163 b 214 75 149 129 190 88 b 233 71 218 72 226 71 l 454 71 b 471 75 461 71 467 72 b 558 158 493 86 540 126 b 563 176 561 164 563 169 l 563 265 b 518 331 563 293 544 324 l 138 435 b 51 565 83 450 51 507 l 51 651 b 68 719 51 675 56 700 b 164 817 83 743 139 801 b 235 839 183 829 213 839 l 442 839 b 513 817 464 839 493 829 b 599 729 542 799 579 756 b 631 675 608 715 622 694 l 550 651 b 540 669 544 664 540 669 b 456 757 522 703 479 744 b 438 761 451 760 444 761 l 242 761 b 224 757 235 761 228 760 b 138 676 201 746 156 708 b 132 658 135 671 132 665 l 132 571 b 175 508 132 543 150 515 l 554 403 b 643 274 608 388 643 332 l 643 179 m 278 926 l 396 1081 l 493 1081 l 351 901 "},"Ť":{"ha":653,"x_min":0,"x_max":0,"o":"m 332 756 l 332 0 l 251 0 l 251 756 l 14 756 l 14 833 l 569 833 l 569 756 m 460 1078 l 331 917 l 251 917 l 122 1078 l 217 1078 l 292 986 l 365 1078 "},"Ź":{"ha":667,"x_min":0,"x_max":0,"o":"m 53 0 l 53 69 l 461 756 l 53 756 l 53 833 l 558 833 l 558 761 l 153 78 l 558 78 l 558 0 m 265 926 l 383 1081 l 481 1081 l 339 901 "},"š":{"ha":649,"x_min":0,"x_max":0,"o":"m 524 154 b 503 81 524 126 517 101 b 446 19 492 65 465 33 b 361 -7 424 3 390 -7 l 194 -7 b 110 19 165 -7 132 3 b 49 85 90 33 60 69 b 29 117 42 96 32 110 l 101 142 b 167 71 113 118 144 83 b 192 65 174 67 182 65 l 360 65 b 383 71 369 65 376 67 b 444 133 406 83 432 110 b 449 157 447 139 449 147 l 449 207 b 396 258 449 235 425 256 l 167 275 b 46 401 99 281 46 333 l 46 443 b 67 517 46 471 53 496 b 124 578 78 532 104 564 b 208 604 146 594 179 604 l 353 604 b 438 578 382 604 415 594 b 500 511 457 564 489 526 b 519 481 508 500 517 488 l 447 456 b 381 526 436 479 403 514 b 357 532 374 531 367 532 l 210 532 b 185 526 200 532 192 531 b 125 465 163 514 138 489 b 121 442 122 460 121 451 l 121 400 b 174 349 121 372 144 351 l 403 331 b 524 204 471 325 524 272 l 524 154 m 460 883 l 331 722 l 251 722 l 122 883 l 217 883 l 292 792 l 365 883 "},"ś":{"ha":649,"x_min":0,"x_max":0,"o":"m 524 154 b 503 81 524 126 517 101 b 446 19 492 65 465 33 b 361 -7 424 3 390 -7 l 194 -7 b 110 19 165 -7 132 3 b 49 85 90 33 60 69 b 29 117 42 96 32 110 l 101 142 b 167 71 113 118 144 83 b 192 65 174 67 182 65 l 360 65 b 383 71 369 65 376 67 b 444 133 406 83 432 110 b 449 157 447 139 449 147 l 449 207 b 396 258 449 235 425 256 l 167 275 b 46 401 99 281 46 333 l 46 443 b 67 517 46 471 53 496 b 124 578 78 532 104 564 b 208 604 146 594 179 604 l 353 604 b 438 578 382 604 415 594 b 500 511 457 564 489 526 b 519 481 508 500 517 488 l 447 456 b 381 526 436 479 403 514 b 357 532 374 531 367 532 l 210 532 b 185 526 200 532 192 531 b 125 465 163 514 138 489 b 121 442 122 460 121 451 l 121 400 b 174 349 121 372 144 351 l 403 331 b 524 204 471 325 524 272 l 524 154 m 194 732 l 313 886 l 410 886 l 268 707 "},"ť":{"ha":522,"x_min":0,"x_max":0,"o":"m 188 525 l 188 169 b 192 143 188 160 189 149 b 254 78 204 119 232 90 b 282 72 261 74 272 72 l 369 72 l 369 0 l 281 0 b 196 26 250 0 218 10 b 133 93 176 40 144 78 b 113 167 119 114 113 139 l 113 525 l 14 525 l 14 597 l 113 597 l 113 833 l 188 833 l 188 597 l 371 597 l 371 525 m 450 900 l 536 900 l 440 667 l 367 693 "},"ź":{"ha":586,"x_min":0,"x_max":0,"o":"m 53 0 l 53 67 l 367 525 l 42 525 l 42 597 l 460 597 l 460 529 l 147 72 l 475 72 l 475 0 m 169 732 l 288 886 l 385 886 l 243 707 "},"Ł":{"ha":632,"x_min":0,"x_max":0,"o":"m 149 78 l 538 78 l 538 0 l 68 0 l 68 329 l -14 285 l -46 351 l 68 413 l 68 833 l 149 833 l 149 456 l 246 507 l 276 440 l 149 372 l 149 78 "},"ł":{"ha":376,"x_min":0,"x_max":0,"o":"m 175 367 l 175 94 b 188 0 175 64 185 31 l 113 0 b 100 78 110 24 100 54 l 100 326 l 17 282 l -15 350 l 100 411 l 100 833 l 175 833 l 175 451 l 276 506 l 307 438 l 175 367 "},"Ą":{"ha":746,"x_min":0,"x_max":0,"o":"m 593 0 l 531 193 l 144 193 l 81 0 l -4 0 l 275 833 l 400 833 l 679 0 l 593 0 m 169 271 l 506 271 l 346 754 l 328 754 l 169 271 m 533 -79 l 600 -53 l 715 -233 l 633 -233 "},"Ș":{"ha":761,"x_min":0,"x_max":0,"o":"m 643 179 b 626 111 643 156 639 131 b 531 15 611 88 556 31 b 460 -7 511 3 482 -7 l 229 -7 b 157 15 207 -7 176 3 b 71 103 128 33 90 76 b 40 157 61 117 49 138 l 119 179 b 129 163 125 167 129 163 b 214 75 149 129 190 88 b 233 71 218 72 226 71 l 454 71 b 471 75 461 71 467 72 b 558 158 493 86 540 126 b 563 176 561 164 563 169 l 563 265 b 518 331 563 293 544 324 l 138 435 b 51 565 83 450 51 507 l 51 651 b 68 719 51 675 56 700 b 164 817 83 743 139 801 b 235 839 183 829 213 839 l 442 839 b 513 817 464 839 493 829 b 599 729 542 799 579 756 b 631 675 608 715 622 694 l 550 651 b 540 669 544 664 540 669 b 456 757 522 703 479 744 b 438 761 451 760 444 761 l 242 761 b 224 757 235 761 228 760 b 138 676 201 746 156 708 b 132 658 135 671 132 665 l 132 571 b 175 508 132 543 150 515 l 554 403 b 643 274 608 388 643 332 l 643 179 m 314 -233 l 232 -233 l 347 -53 l 414 -79 "},"Ż":{"ha":667,"x_min":0,"x_max":0,"o":"m 53 0 l 53 69 l 461 756 l 53 756 l 53 833 l 558 833 l 558 761 l 153 78 l 558 78 l 558 0 m 257 928 l 257 1035 l 363 1035 l 363 928 "},"Ę":{"ha":692,"x_min":0,"x_max":0,"o":"m 68 0 l 68 833 l 546 833 l 546 756 l 149 756 l 149 456 l 525 456 l 525 378 l 149 378 l 149 78 l 546 78 l 546 0 m 442 -79 l 508 -53 l 624 -233 l 542 -233 "},"Ě":{"ha":692,"x_min":0,"x_max":0,"o":"m 68 0 l 68 833 l 546 833 l 546 756 l 149 756 l 149 456 l 525 456 l 525 378 l 149 378 l 149 78 l 546 78 l 546 0 m 485 1078 l 356 917 l 276 917 l 147 1078 l 242 1078 l 317 986 l 390 1078 "},"Ď":{"ha":756,"x_min":0,"x_max":0,"o":"m 617 185 b 600 118 617 161 613 138 b 506 22 585 94 531 38 b 435 0 486 10 457 0 l 68 0 l 68 833 l 435 833 b 506 813 457 833 486 825 b 600 714 531 797 585 738 b 617 647 613 694 617 671 l 617 185 m 536 644 b 532 665 536 651 535 660 b 446 751 514 697 468 740 b 428 756 442 754 435 756 l 149 756 l 149 78 l 428 78 b 446 82 435 78 442 79 b 532 169 468 93 514 138 b 536 188 535 175 536 181 l 536 644 m 482 1078 l 353 917 l 274 917 l 144 1078 l 239 1078 l 314 986 l 388 1078 "},"Đ":{"ha":797,"x_min":0,"x_max":0,"o":"m 642 714 b 658 647 654 694 658 671 l 658 185 b 642 118 658 161 654 138 b 547 22 626 94 572 38 b 476 0 528 10 499 0 l 110 0 l 110 378 l -11 378 l -11 456 l 110 456 l 110 833 l 476 833 b 547 813 499 833 528 825 b 642 714 572 797 626 738 m 578 188 l 578 644 b 574 665 578 651 576 660 b 488 751 556 697 510 740 b 469 756 483 754 476 756 l 190 756 l 190 456 l 382 456 l 382 378 l 190 378 l 190 78 l 469 78 b 488 82 476 78 483 79 b 574 169 510 93 556 138 b 578 188 576 175 578 181 "},"đ":{"ha":664,"x_min":0,"x_max":0,"o":"m 524 685 l 524 97 l 533 -1 l 457 -1 l 449 72 b 394 19 432 50 413 33 b 325 -10 374 6 350 -10 l 218 -10 b 132 17 185 -10 156 0 b 71 83 115 33 82 68 b 49 157 57 106 49 131 l 49 436 b 71 510 49 465 57 488 b 132 575 82 525 115 560 b 218 603 156 593 185 603 l 325 603 b 394 574 350 603 374 589 b 449 524 413 560 431 544 l 449 685 l 269 685 l 269 758 l 449 758 l 449 833 l 524 833 l 524 758 l 599 758 l 599 685 l 524 685 m 449 160 l 449 433 b 447 442 447 438 447 442 b 340 525 428 475 364 515 b 321 531 335 529 329 531 l 218 531 b 194 525 208 531 200 529 b 129 457 171 511 140 481 b 125 433 126 451 125 443 l 125 161 b 129 136 125 151 126 142 b 194 68 140 113 171 82 b 218 64 200 64 208 64 l 321 64 b 340 68 329 64 335 64 b 447 151 364 78 428 118 b 449 160 447 151 447 156 "},"Ń":{"ha":765,"x_min":0,"x_max":0,"o":"m 510 0 l 147 711 l 147 0 l 69 0 l 69 833 l 176 833 l 536 115 l 536 833 l 614 833 l 614 0 m 257 926 l 375 1081 l 472 1081 l 331 901 "},"Ň":{"ha":765,"x_min":0,"x_max":0,"o":"m 510 0 l 147 711 l 147 0 l 69 0 l 69 833 l 176 833 l 536 115 l 536 833 l 614 833 l 614 0 m 514 1078 l 385 917 l 306 917 l 176 1078 l 271 1078 l 346 986 l 419 1078 "},"Ő":{"ha":782,"x_min":0,"x_max":0,"o":"m 649 179 b 631 111 649 156 643 131 b 536 15 615 88 561 31 b 464 -7 517 3 486 -7 l 244 -7 b 174 15 222 -7 193 3 b 78 111 149 31 93 88 b 61 179 65 131 61 156 l 61 651 b 78 719 61 675 65 700 b 174 817 93 743 149 801 b 244 839 193 829 222 839 l 464 839 b 536 817 486 839 517 829 b 631 719 561 801 615 743 b 649 651 643 700 649 675 l 649 179 m 568 649 b 564 669 568 656 567 664 b 476 757 546 701 499 746 b 458 761 472 760 465 761 l 251 761 b 233 757 244 761 238 760 b 147 669 211 746 165 701 b 142 649 144 664 142 656 l 142 181 b 147 163 142 174 144 168 b 233 75 165 131 211 86 b 251 71 238 72 244 71 l 458 71 b 476 75 465 71 472 72 b 564 163 499 86 546 131 b 568 181 567 168 568 174 m 215 919 l 333 1074 l 424 1074 l 282 894 m 350 919 l 468 1074 l 558 1074 l 417 894 "},"Ř":{"ha":765,"x_min":0,"x_max":0,"o":"m 617 539 b 596 467 617 513 610 488 b 525 394 586 451 543 408 b 447 368 503 378 475 368 l 654 0 l 563 0 l 357 368 l 149 368 l 149 0 l 68 0 l 68 833 l 443 833 b 525 807 472 833 503 824 b 596 733 543 793 586 749 b 617 661 610 713 617 688 l 617 539 m 536 658 b 533 682 536 667 536 676 b 465 751 521 706 488 739 b 442 756 458 756 450 756 l 149 756 l 149 446 l 442 446 b 465 451 450 446 458 447 b 533 518 488 464 521 494 b 536 542 536 524 536 533 m 486 1078 l 357 917 l 278 917 l 149 1078 l 243 1078 l 318 986 l 392 1078 "},"Ů":{"ha":760,"x_min":0,"x_max":0,"o":"m 621 178 b 604 111 621 154 617 131 b 510 15 589 88 535 31 b 439 -7 490 3 461 -7 l 253 -7 b 181 15 231 -7 200 3 b 86 111 156 31 101 88 b 68 178 74 131 68 154 l 68 833 l 149 833 l 149 181 b 154 163 149 174 151 168 b 242 75 172 131 219 86 b 260 71 246 72 253 71 l 432 71 b 450 75 439 71 446 72 b 535 163 472 86 517 131 b 540 181 538 168 540 174 l 540 833 l 621 833 l 621 178 m 483 1040 b 350 908 483 967 424 908 b 219 1040 276 908 219 967 b 350 1172 219 1114 276 1172 b 483 1040 424 1172 483 1114 m 431 1040 b 350 1119 431 1083 393 1119 b 272 1040 307 1119 272 1083 b 350 961 272 997 307 961 b 431 1040 393 961 431 997 "},"Ű":{"ha":760,"x_min":0,"x_max":0,"o":"m 621 178 b 604 111 621 154 617 131 b 510 15 589 88 535 31 b 439 -7 490 3 461 -7 l 253 -7 b 181 15 231 -7 200 3 b 86 111 156 31 101 88 b 68 178 74 131 68 154 l 68 833 l 149 833 l 149 181 b 154 163 149 174 151 168 b 242 75 172 131 219 86 b 260 71 246 72 253 71 l 432 71 b 450 75 439 71 446 72 b 535 163 472 86 517 131 b 540 181 538 168 540 174 l 540 833 l 621 833 l 621 178 m 215 926 l 333 1081 l 424 1081 l 282 901 m 350 926 l 468 1081 l 558 1081 l 417 901 "},"Ţ":{"ha":653,"x_min":0,"x_max":0,"o":"m 332 756 l 332 0 l 251 0 l 251 756 l 14 756 l 14 833 l 569 833 l 569 756 m 261 -233 l 179 -233 l 294 -53 l 361 -79 "},"ŕ":{"ha":578,"x_min":0,"x_max":0,"o":"m 425 457 b 358 526 411 478 381 514 b 333 532 351 531 343 532 l 265 532 b 244 528 258 532 250 531 b 139 443 221 515 158 478 l 139 0 l 64 0 l 64 499 l 54 597 l 131 597 l 139 526 b 192 575 157 544 175 564 b 261 604 211 589 238 604 l 331 604 b 415 578 361 604 393 594 b 476 511 435 564 465 526 b 497 481 485 500 493 488 m 165 732 l 283 886 l 381 886 l 239 707 "},"ă":{"ha":653,"x_min":0,"x_max":0,"o":"m 446 0 l 438 69 b 385 22 421 51 400 33 b 317 -7 364 7 340 -7 l 194 -7 b 110 19 163 -7 132 3 b 49 85 92 35 60 69 b 28 158 35 106 28 131 l 28 186 b 49 260 28 215 35 239 b 110 325 60 275 92 310 b 194 351 132 342 163 351 l 436 351 l 436 436 b 433 458 436 447 435 454 b 367 526 421 482 389 514 b 342 532 360 531 351 532 l 211 532 b 188 526 201 532 194 531 b 121 457 165 514 136 481 l 49 481 b 69 513 53 488 60 500 b 132 579 82 531 113 564 b 215 604 154 596 183 604 l 343 604 b 429 578 375 604 407 594 b 492 513 450 565 481 528 b 511 438 507 492 511 465 l 511 99 l 521 0 m 332 69 b 436 154 354 81 418 121 l 436 281 l 196 281 b 171 275 186 281 178 279 b 107 208 149 263 119 232 b 103 186 104 203 103 196 l 103 158 b 107 136 103 149 104 142 b 171 71 119 113 149 83 b 196 65 178 67 186 65 l 313 65 b 332 69 319 65 326 67 m 361 850 b 414 850 361 850 411 850 b 281 718 414 776 354 718 b 150 850 207 718 150 776 l 203 850 b 281 771 203 807 238 771 b 361 850 324 771 361 807 "},"ĺ":{"ha":285,"x_min":0,"x_max":0,"o":"m 76 0 b 64 78 74 24 64 54 l 64 833 l 139 833 l 139 94 b 151 0 139 64 149 31 m 71 926 l 189 1081 l 286 1081 l 144 901 "},"ć":{"ha":633,"x_min":0,"x_max":0,"o":"m 525 117 b 443 19 508 86 476 43 b 358 -7 421 3 389 -7 l 217 -7 b 131 19 186 -7 153 3 b 68 86 111 33 79 71 b 49 160 54 107 49 132 l 49 438 b 68 511 49 465 54 490 b 131 578 79 526 111 564 b 217 604 153 594 186 604 l 354 604 b 439 578 385 604 417 594 b 521 479 474 553 503 508 l 449 456 b 382 526 438 479 404 514 b 357 532 375 531 367 532 l 218 532 b 193 526 208 532 200 531 b 128 458 171 514 140 482 b 124 435 125 453 124 444 l 124 163 b 128 139 124 153 125 144 b 192 71 140 115 169 83 b 217 65 199 67 207 65 l 361 65 b 386 71 371 65 379 67 b 451 139 408 83 442 118 l 453 142 l 525 117 m 188 732 l 306 886 l 403 886 l 261 707 "},"č":{"ha":633,"x_min":0,"x_max":0,"o":"m 525 117 b 443 19 508 86 476 43 b 358 -7 421 3 389 -7 l 217 -7 b 131 19 186 -7 153 3 b 68 86 111 33 79 71 b 49 160 54 107 49 132 l 49 438 b 68 511 49 465 54 490 b 131 578 79 526 111 564 b 217 604 153 594 186 604 l 354 604 b 439 578 385 604 417 594 b 521 479 474 553 503 508 l 449 456 b 382 526 438 479 404 514 b 357 532 375 531 367 532 l 218 532 b 193 526 208 532 200 531 b 128 458 171 514 140 482 b 124 435 125 453 124 444 l 124 163 b 128 139 124 153 125 144 b 192 71 140 115 169 83 b 217 65 199 67 207 65 l 361 65 b 386 71 371 65 379 67 b 451 139 408 83 442 118 l 453 142 l 525 117 m 458 883 l 329 722 l 250 722 l 121 883 l 215 883 l 290 792 l 364 883 "},"ę":{"ha":657,"x_min":0,"x_max":0,"o":"m 458 139 l 460 142 l 533 117 b 514 86 528 106 522 99 b 451 19 503 71 471 33 b 367 -7 429 3 397 -7 l 225 -7 b 139 19 194 -7 161 3 b 76 86 119 33 88 71 b 56 160 63 107 56 132 l 56 438 b 76 511 56 465 63 490 b 139 578 88 526 119 564 b 225 604 161 594 194 604 l 364 604 b 450 578 394 604 428 594 b 513 511 469 564 501 526 b 532 438 526 490 532 465 l 532 267 l 131 267 l 131 163 b 135 139 131 153 132 144 b 200 71 147 115 178 83 b 224 65 207 67 214 65 l 369 65 b 394 71 379 65 388 67 b 458 139 417 83 447 118 m 135 458 b 131 435 132 453 131 444 l 131 338 l 457 338 l 457 435 b 454 458 457 444 457 453 b 388 526 442 482 410 514 b 363 532 381 531 372 532 l 225 532 b 201 526 215 532 208 531 b 135 458 179 514 147 482 m 204 -79 l 271 -53 l 386 -233 l 304 -233 "},"ě":{"ha":657,"x_min":0,"x_max":0,"o":"m 458 139 l 460 142 l 533 117 b 514 86 528 106 522 99 b 451 19 503 71 471 33 b 367 -7 429 3 397 -7 l 225 -7 b 139 19 194 -7 161 3 b 76 86 119 33 88 71 b 56 160 63 107 56 132 l 56 438 b 76 511 56 465 63 490 b 139 578 88 526 119 564 b 225 604 161 594 194 604 l 364 604 b 450 578 394 604 428 594 b 513 511 469 564 501 526 b 532 438 526 490 532 465 l 532 267 l 131 267 l 131 163 b 135 139 131 153 132 144 b 200 71 147 115 178 83 b 224 65 207 67 214 65 l 369 65 b 394 71 379 65 388 67 b 458 139 417 83 447 118 m 135 458 b 131 435 132 453 131 444 l 131 338 l 457 338 l 457 435 b 454 458 457 444 457 453 b 388 526 442 482 410 514 b 363 532 381 531 372 532 l 225 532 b 201 526 215 532 208 531 b 135 458 179 514 147 482 m 469 883 l 340 722 l 261 722 l 132 883 l 226 883 l 301 792 l 375 883 "},"ď":{"ha":719,"x_min":0,"x_max":0,"o":"m 692 900 l 778 900 l 682 667 l 608 693 m 69 511 b 132 578 81 526 114 563 b 217 604 154 594 185 604 l 325 604 b 394 575 349 604 374 590 b 449 525 411 563 429 546 l 449 833 l 524 833 l 524 99 l 532 0 l 457 0 l 449 74 b 394 22 431 53 411 35 b 325 -7 374 7 349 -7 l 217 -7 b 132 19 185 -7 154 3 b 69 86 114 35 81 71 b 49 160 56 107 49 132 l 49 438 b 69 511 49 467 56 490 m 124 163 b 128 139 124 153 125 144 b 193 71 140 115 171 83 b 218 65 200 67 208 65 l 321 65 b 340 69 328 65 335 67 b 446 154 363 81 428 121 b 449 161 446 154 447 157 l 449 436 b 446 443 447 440 446 443 b 340 528 428 476 363 517 b 321 532 335 531 328 532 l 218 532 b 193 526 208 532 200 531 b 128 458 171 514 140 482 b 124 435 125 453 124 444 l 124 163 "},"ń":{"ha":668,"x_min":0,"x_max":0,"o":"m 457 0 l 457 435 b 454 458 457 444 457 453 b 388 526 442 482 410 514 b 363 532 381 531 372 532 l 264 532 b 244 528 257 532 250 531 b 140 444 221 515 161 478 l 140 0 l 65 0 l 65 499 l 56 597 l 131 597 l 139 528 b 190 575 156 546 175 564 b 260 604 210 589 236 604 l 364 604 b 450 578 394 604 428 594 b 513 511 469 564 501 526 b 532 438 526 490 532 465 l 532 0 m 210 732 l 328 886 l 425 886 l 283 707 "},"ň":{"ha":668,"x_min":0,"x_max":0,"o":"m 457 0 l 457 435 b 454 458 457 444 457 453 b 388 526 442 482 410 514 b 363 532 381 531 372 532 l 264 532 b 244 528 257 532 250 531 b 140 444 221 515 161 478 l 140 0 l 65 0 l 65 499 l 56 597 l 131 597 l 139 528 b 190 575 156 546 175 564 b 260 604 210 589 236 604 l 364 604 b 450 578 394 604 428 594 b 513 511 469 564 501 526 b 532 438 526 490 532 465 l 532 0 m 483 883 l 354 722 l 275 722 l 146 883 l 240 883 l 315 792 l 389 883 "},"ő":{"ha":656,"x_min":0,"x_max":0,"o":"m 524 160 b 504 86 524 132 518 107 b 442 19 493 71 461 33 b 356 -7 419 3 386 -7 l 217 -7 b 131 19 186 -7 153 3 b 68 86 111 33 79 71 b 49 160 54 107 49 132 l 49 438 b 68 511 49 465 54 490 b 131 578 79 526 111 564 b 217 604 153 594 186 604 l 356 604 b 442 578 386 604 419 594 b 504 511 461 564 493 526 b 524 438 518 490 524 465 l 524 160 m 449 435 b 446 458 449 444 449 453 b 379 526 433 482 401 514 b 354 532 372 531 364 532 l 218 532 b 193 526 208 532 200 531 b 128 458 171 514 140 482 b 124 435 125 453 124 444 l 124 163 b 128 139 124 153 125 144 b 193 71 140 115 171 83 b 218 65 200 67 208 65 l 354 65 b 379 71 364 65 372 67 b 446 139 401 83 433 115 b 449 163 449 144 449 153 m 156 732 l 274 886 l 364 886 l 222 707 m 290 732 l 408 886 l 499 886 l 357 707 "},"ř":{"ha":578,"x_min":0,"x_max":0,"o":"m 425 457 b 358 526 411 478 381 514 b 333 532 351 531 343 532 l 265 532 b 244 528 258 532 250 531 b 139 443 221 515 158 478 l 139 0 l 64 0 l 64 499 l 54 597 l 131 597 l 139 526 b 192 575 157 544 175 564 b 261 604 211 589 238 604 l 331 604 b 415 578 361 604 393 594 b 476 511 435 564 465 526 b 497 481 485 500 493 488 m 460 883 l 331 722 l 251 722 l 122 883 l 217 883 l 292 792 l 365 883 "},"ů":{"ha":658,"x_min":0,"x_max":0,"o":"m 451 0 l 443 69 b 392 22 426 51 407 33 b 322 -7 372 8 346 -7 l 218 -7 b 132 19 188 -7 154 3 b 69 86 113 33 81 71 b 50 160 56 107 50 132 l 50 597 l 125 597 l 125 163 b 128 139 125 153 125 144 b 194 71 140 115 172 83 b 219 65 201 67 210 65 l 318 65 b 338 69 325 65 332 67 b 442 153 361 82 421 119 l 442 597 l 517 597 l 517 99 l 526 0 m 421 832 b 288 700 421 758 361 700 b 157 832 214 700 157 758 b 288 964 157 906 214 964 b 421 832 361 964 421 906 m 368 832 b 288 911 368 875 331 911 b 210 832 244 911 210 875 b 288 753 210 789 244 753 b 368 832 331 753 368 789 "},"ű":{"ha":658,"x_min":0,"x_max":0,"o":"m 451 0 l 443 69 b 392 22 426 51 407 33 b 322 -7 372 8 346 -7 l 218 -7 b 132 19 188 -7 154 3 b 69 86 113 33 81 71 b 50 160 56 107 50 132 l 50 597 l 125 597 l 125 163 b 128 139 125 153 125 144 b 194 71 140 115 172 83 b 219 65 201 67 210 65 l 318 65 b 338 69 325 65 332 67 b 442 153 361 82 421 119 l 442 597 l 517 597 l 517 99 l 526 0 m 156 732 l 274 886 l 364 886 l 222 707 m 290 732 l 408 886 l 499 886 l 357 707 "},"ţ":{"ha":468,"x_min":0,"x_max":0,"o":"m 188 525 l 188 169 b 192 143 188 160 189 149 b 254 78 204 119 232 90 b 282 72 261 74 272 72 l 369 72 l 369 0 l 281 0 b 196 26 250 0 218 10 b 133 93 176 40 144 78 b 113 167 119 114 113 139 l 113 525 l 14 525 l 14 597 l 113 597 l 113 833 l 188 833 l 188 597 l 371 597 l 371 525 m 231 -233 l 149 -233 l 264 -53 l 331 -79 "},"Þ":{"ha":725,"x_min":0,"x_max":0,"o":"m 596 551 b 617 479 610 531 617 506 l 617 357 b 596 285 617 331 610 306 b 525 213 586 269 543 226 b 443 186 503 196 472 186 l 149 186 l 149 0 l 68 0 l 68 833 l 149 833 l 149 651 l 443 651 b 525 625 472 651 503 642 b 596 551 543 611 586 567 m 536 360 l 536 476 b 533 500 536 485 536 494 b 465 569 521 524 488 557 b 442 574 458 574 450 574 l 149 574 l 149 264 l 442 264 b 465 269 450 264 458 265 b 533 336 488 282 521 313 b 536 360 536 342 536 351 "},"þ":{"ha":671,"x_min":0,"x_max":0,"o":"m 518 513 b 539 439 532 490 539 465 l 539 154 b 518 81 539 128 532 101 b 456 14 507 67 475 28 b 371 -11 433 -1 401 -11 l 263 -11 b 193 18 239 -11 213 3 b 139 67 176 29 157 47 l 139 -235 l 64 -235 l 64 833 l 139 833 l 139 525 b 193 576 157 544 176 564 b 263 606 213 590 239 606 l 371 606 b 456 578 401 606 433 596 b 518 513 475 565 507 528 m 464 158 l 464 436 b 460 460 464 446 463 454 b 394 528 447 483 417 514 b 369 533 388 532 379 533 l 267 533 b 247 528 260 533 253 532 b 142 444 224 517 161 478 b 139 438 142 442 140 440 l 139 154 b 142 149 140 153 142 151 b 247 65 161 115 224 76 b 267 61 253 61 260 61 l 369 61 b 394 67 379 61 388 61 b 460 135 417 79 447 110 b 464 158 463 139 464 149 "},"Ā":{"ha":746,"x_min":0,"x_max":0,"o":"m 593 0 l 531 193 l 144 193 l 81 0 l -4 0 l 275 833 l 400 833 l 679 0 l 593 0 m 169 271 l 506 271 l 346 754 l 328 754 l 169 271 m 161 965 l 161 1035 l 514 1035 l 514 965 "},"ā":{"ha":653,"x_min":0,"x_max":0,"o":"m 446 0 l 438 69 b 385 22 421 51 400 33 b 317 -7 364 7 340 -7 l 194 -7 b 110 19 163 -7 132 3 b 49 85 92 35 60 69 b 28 158 35 106 28 131 l 28 186 b 49 260 28 215 35 239 b 110 325 60 275 92 310 b 194 351 132 342 163 351 l 436 351 l 436 436 b 433 458 436 447 435 454 b 367 526 421 482 389 514 b 342 532 360 531 351 532 l 211 532 b 188 526 201 532 194 531 b 121 457 165 514 136 481 l 49 481 b 69 513 53 488 60 500 b 132 579 82 531 113 564 b 215 604 154 596 183 604 l 343 604 b 429 578 375 604 407 594 b 492 513 450 565 481 528 b 511 438 507 492 511 465 l 511 99 l 521 0 m 332 69 b 436 154 354 81 418 121 l 436 281 l 196 281 b 171 275 186 281 178 279 b 107 208 149 263 119 232 b 103 186 104 203 103 196 l 103 158 b 107 136 103 149 104 142 b 171 71 119 113 149 83 b 196 65 178 67 186 65 l 313 65 b 332 69 319 65 326 67 m 103 771 l 103 840 l 456 840 l 456 771 "},"Ĉ":{"ha":725,"x_min":0,"x_max":0,"o":"m 618 157 b 586 103 610 138 596 117 b 500 15 567 76 529 33 b 429 -7 481 3 451 -7 l 246 -7 b 174 15 224 -7 193 3 b 79 111 149 31 94 88 b 61 178 67 131 61 154 l 61 653 b 79 719 61 676 67 700 b 174 817 94 743 149 801 b 244 839 193 829 222 839 l 429 839 b 500 817 451 839 481 829 b 586 729 529 799 567 756 b 618 675 596 715 610 694 l 538 651 b 444 757 521 690 474 742 b 425 761 440 760 432 761 l 251 761 b 233 757 244 761 238 760 b 146 669 211 746 164 701 b 142 650 143 664 142 657 l 142 181 b 146 163 142 174 143 168 b 233 75 164 131 211 86 b 251 71 238 72 244 71 l 425 71 b 444 75 432 71 440 72 b 538 179 474 90 518 142 l 618 157 m 168 917 l 297 1078 l 376 1078 l 506 917 l 411 917 l 336 1011 l 263 917 "},"ĉ":{"ha":633,"x_min":0,"x_max":0,"o":"m 525 117 b 443 19 508 86 476 43 b 358 -7 421 3 389 -7 l 217 -7 b 131 19 186 -7 153 3 b 68 86 111 33 79 71 b 49 160 54 107 49 132 l 49 438 b 68 511 49 465 54 490 b 131 578 79 526 111 564 b 217 604 153 594 186 604 l 354 604 b 439 578 385 604 417 594 b 521 479 474 553 503 508 l 449 456 b 382 526 438 479 404 514 b 357 532 375 531 367 532 l 218 532 b 193 526 208 532 200 531 b 128 458 171 514 140 482 b 124 435 125 453 124 444 l 124 163 b 128 139 124 153 125 144 b 192 71 140 115 169 83 b 217 65 199 67 207 65 l 361 65 b 386 71 371 65 379 67 b 451 139 408 83 442 118 l 453 142 l 525 117 m 115 722 l 244 883 l 324 883 l 453 722 l 358 722 l 283 817 l 210 722 "},"Ċ":{"ha":725,"x_min":0,"x_max":0,"o":"m 618 157 b 586 103 610 138 596 117 b 500 15 567 76 529 33 b 429 -7 481 3 451 -7 l 246 -7 b 174 15 224 -7 193 3 b 79 111 149 31 94 88 b 61 178 67 131 61 154 l 61 653 b 79 719 61 676 67 700 b 174 817 94 743 149 801 b 244 839 193 829 222 839 l 429 839 b 500 817 451 839 481 829 b 586 729 529 799 567 756 b 618 675 596 715 610 694 l 538 651 b 444 757 521 690 474 742 b 425 761 440 760 432 761 l 251 761 b 233 757 244 761 238 760 b 146 669 211 746 164 701 b 142 650 143 664 142 657 l 142 181 b 146 163 142 174 143 168 b 233 75 164 131 211 86 b 251 71 238 72 244 71 l 425 71 b 444 75 432 71 440 72 b 538 179 474 90 518 142 l 618 157 m 292 928 l 292 1035 l 397 1035 l 397 928 "},"ċ":{"ha":633,"x_min":0,"x_max":0,"o":"m 525 117 b 443 19 508 86 476 43 b 358 -7 421 3 389 -7 l 217 -7 b 131 19 186 -7 153 3 b 68 86 111 33 79 71 b 49 160 54 107 49 132 l 49 438 b 68 511 49 465 54 490 b 131 578 79 526 111 564 b 217 604 153 594 186 604 l 354 604 b 439 578 385 604 417 594 b 521 479 474 553 503 508 l 449 456 b 382 526 438 479 404 514 b 357 532 375 531 367 532 l 218 532 b 193 526 208 532 200 531 b 128 458 171 514 140 482 b 124 435 125 453 124 444 l 124 163 b 128 139 124 153 125 144 b 192 71 140 115 169 83 b 217 65 199 67 207 65 l 361 65 b 386 71 371 65 379 67 b 451 139 408 83 442 118 l 453 142 l 525 117 m 250 733 l 250 840 l 356 840 l 356 733 "},"Ē":{"ha":692,"x_min":0,"x_max":0,"o":"m 68 0 l 68 833 l 546 833 l 546 756 l 149 756 l 149 456 l 525 456 l 525 378 l 149 378 l 149 78 l 546 78 l 546 0 m 131 965 l 131 1035 l 483 1035 l 483 965 "},"ē":{"ha":657,"x_min":0,"x_max":0,"o":"m 458 139 l 460 142 l 533 117 b 514 86 528 106 522 99 b 451 19 503 71 471 33 b 367 -7 429 3 397 -7 l 225 -7 b 139 19 194 -7 161 3 b 76 86 119 33 88 71 b 56 160 63 107 56 132 l 56 438 b 76 511 56 465 63 490 b 139 578 88 526 119 564 b 225 604 161 594 194 604 l 364 604 b 450 578 394 604 428 594 b 513 511 469 564 501 526 b 532 438 526 490 532 465 l 532 267 l 131 267 l 131 163 b 135 139 131 153 132 144 b 200 71 147 115 178 83 b 224 65 207 67 214 65 l 369 65 b 394 71 379 65 388 67 b 458 139 417 83 447 118 m 135 458 b 131 435 132 453 131 444 l 131 338 l 457 338 l 457 435 b 454 458 457 444 457 453 b 388 526 442 482 410 514 b 363 532 381 531 372 532 l 225 532 b 201 526 215 532 208 531 b 135 458 179 514 147 482 m 117 771 l 117 840 l 469 840 l 469 771 "},"Ĕ":{"ha":692,"x_min":0,"x_max":0,"o":"m 68 0 l 68 833 l 546 833 l 546 756 l 149 756 l 149 456 l 525 456 l 525 378 l 149 378 l 149 78 l 546 78 l 546 0 m 388 1044 b 440 1044 388 1044 438 1044 b 307 913 440 971 381 913 b 176 1044 233 913 176 971 l 229 1044 b 307 965 229 1001 264 965 b 388 1044 350 965 388 1001 "},"ĕ":{"ha":657,"x_min":0,"x_max":0,"o":"m 458 139 l 460 142 l 533 117 b 514 86 528 106 522 99 b 451 19 503 71 471 33 b 367 -7 429 3 397 -7 l 225 -7 b 139 19 194 -7 161 3 b 76 86 119 33 88 71 b 56 160 63 107 56 132 l 56 438 b 76 511 56 465 63 490 b 139 578 88 526 119 564 b 225 604 161 594 194 604 l 364 604 b 450 578 394 604 428 594 b 513 511 469 564 501 526 b 532 438 526 490 532 465 l 532 267 l 131 267 l 131 163 b 135 139 131 153 132 144 b 200 71 147 115 178 83 b 224 65 207 67 214 65 l 369 65 b 394 71 379 65 388 67 b 458 139 417 83 447 118 m 135 458 b 131 435 132 453 131 444 l 131 338 l 457 338 l 457 435 b 454 458 457 444 457 453 b 388 526 442 482 410 514 b 363 532 381 531 372 532 l 225 532 b 201 526 215 532 208 531 b 135 458 179 514 147 482 m 375 850 b 428 850 375 850 425 850 b 294 718 428 776 368 718 b 164 850 221 718 164 776 l 217 850 b 294 771 217 807 251 771 b 375 850 338 771 375 807 "},"Ė":{"ha":692,"x_min":0,"x_max":0,"o":"m 68 0 l 68 833 l 546 833 l 546 756 l 149 756 l 149 456 l 525 456 l 525 378 l 149 378 l 149 78 l 546 78 l 546 0 m 275 928 l 275 1035 l 381 1035 l 381 928 "},"ė":{"ha":657,"x_min":0,"x_max":0,"o":"m 458 139 l 460 142 l 533 117 b 514 86 528 106 522 99 b 451 19 503 71 471 33 b 367 -7 429 3 397 -7 l 225 -7 b 139 19 194 -7 161 3 b 76 86 119 33 88 71 b 56 160 63 107 56 132 l 56 438 b 76 511 56 465 63 490 b 139 578 88 526 119 564 b 225 604 161 594 194 604 l 364 604 b 450 578 394 604 428 594 b 513 511 469 564 501 526 b 532 438 526 490 532 465 l 532 267 l 131 267 l 131 163 b 135 139 131 153 132 144 b 200 71 147 115 178 83 b 224 65 207 67 214 65 l 369 65 b 394 71 379 65 388 67 b 458 139 417 83 447 118 m 135 458 b 131 435 132 453 131 444 l 131 338 l 457 338 l 457 435 b 454 458 457 444 457 453 b 388 526 442 482 410 514 b 363 532 381 531 372 532 l 225 532 b 201 526 215 532 208 531 b 135 458 179 514 147 482 m 249 733 l 249 840 l 354 840 l 354 733 "},"Ĝ":{"ha":801,"x_min":0,"x_max":0,"o":"m 589 0 l 579 68 b 531 15 564 49 542 22 b 460 -7 511 3 482 -7 l 246 -7 b 174 15 224 -7 193 3 b 79 111 149 31 94 88 b 61 178 67 131 61 154 l 61 651 b 79 719 61 675 67 700 b 174 817 94 743 149 801 b 246 839 193 829 224 839 l 460 839 b 532 817 482 839 513 829 b 618 728 561 799 599 754 b 650 675 628 714 642 694 l 569 651 b 475 757 553 690 504 742 b 456 761 471 760 463 761 l 251 761 b 233 757 244 761 238 760 b 146 669 211 746 164 701 b 142 649 143 664 142 656 l 142 181 b 146 163 142 174 143 168 b 233 75 164 131 211 86 b 253 71 238 72 246 71 l 453 71 b 471 75 460 71 467 72 b 560 164 493 86 542 132 b 564 182 563 169 564 175 l 564 383 l 374 383 l 374 460 l 644 460 l 644 164 b 665 0 644 124 658 38 m 188 917 l 317 1078 l 396 1078 l 525 917 l 431 917 l 356 1011 l 282 917 "},"ĝ":{"ha":688,"x_min":0,"x_max":0,"o":"m 539 497 l 539 -74 b 519 -147 539 -101 533 -126 b 457 -214 508 -162 476 -200 b 371 -240 435 -231 400 -240 l 229 -240 b 144 -214 200 -240 167 -231 b 63 -115 110 -189 81 -146 l 135 -92 l 136 -94 b 201 -162 146 -115 179 -150 b 225 -168 208 -167 215 -168 l 369 -168 b 394 -162 379 -168 388 -167 b 461 -94 417 -150 449 -118 b 464 -71 464 -89 464 -81 l 464 72 b 410 22 446 53 426 35 b 340 -7 390 8 364 -7 l 224 -7 b 138 19 194 -7 160 3 b 75 86 118 33 86 71 b 56 160 61 107 56 132 l 56 438 b 75 511 56 465 61 490 b 138 578 86 526 118 564 b 224 604 160 594 194 604 l 340 604 b 410 575 364 604 390 589 b 465 524 426 563 447 543 l 474 597 l 549 597 m 464 436 l 461 443 b 357 528 438 475 381 515 b 336 532 351 531 343 532 l 225 532 b 200 526 215 532 207 531 b 135 458 178 514 147 482 b 131 435 132 453 131 444 l 131 163 b 135 139 131 153 132 144 b 200 71 147 115 178 83 b 225 65 207 67 215 65 l 336 65 b 357 69 343 65 351 67 b 461 154 381 82 438 122 l 464 161 m 144 722 l 274 883 l 353 883 l 482 722 l 388 722 l 313 817 l 239 722 "},"Ğ":{"ha":801,"x_min":0,"x_max":0,"o":"m 589 0 l 579 68 b 531 15 564 49 542 22 b 460 -7 511 3 482 -7 l 246 -7 b 174 15 224 -7 193 3 b 79 111 149 31 94 88 b 61 178 67 131 61 154 l 61 651 b 79 719 61 675 67 700 b 174 817 94 743 149 801 b 246 839 193 829 224 839 l 460 839 b 532 817 482 839 513 829 b 618 728 561 799 599 754 b 650 675 628 714 642 694 l 569 651 b 475 757 553 690 504 742 b 456 761 471 760 463 761 l 251 761 b 233 757 244 761 238 760 b 146 669 211 746 164 701 b 142 649 143 664 142 656 l 142 181 b 146 163 142 174 143 168 b 233 75 164 131 211 86 b 253 71 238 72 246 71 l 453 71 b 471 75 460 71 467 72 b 560 164 493 86 542 132 b 564 182 563 169 564 175 l 564 383 l 374 383 l 374 460 l 644 460 l 644 164 b 665 0 644 124 658 38 m 433 1044 b 486 1044 433 1044 483 1044 b 353 913 486 971 426 913 b 222 1044 279 913 222 971 l 275 1044 b 353 965 275 1001 310 965 b 433 1044 396 965 433 1001 "},"ğ":{"ha":688,"x_min":0,"x_max":0,"o":"m 539 497 l 539 -74 b 519 -147 539 -101 533 -126 b 457 -214 508 -162 476 -200 b 371 -240 435 -231 400 -240 l 229 -240 b 144 -214 200 -240 167 -231 b 63 -115 110 -189 81 -146 l 135 -92 l 136 -94 b 201 -162 146 -115 179 -150 b 225 -168 208 -167 215 -168 l 369 -168 b 394 -162 379 -168 388 -167 b 461 -94 417 -150 449 -118 b 464 -71 464 -89 464 -81 l 464 72 b 410 22 446 53 426 35 b 340 -7 390 8 364 -7 l 224 -7 b 138 19 194 -7 160 3 b 75 86 118 33 86 71 b 56 160 61 107 56 132 l 56 438 b 75 511 56 465 61 490 b 138 578 86 526 118 564 b 224 604 160 594 194 604 l 340 604 b 410 575 364 604 390 589 b 465 524 426 563 447 543 l 474 597 l 549 597 m 464 436 l 461 443 b 357 528 438 475 381 515 b 336 532 351 531 343 532 l 225 532 b 200 526 215 532 207 531 b 135 458 178 514 147 482 b 131 435 132 453 131 444 l 131 163 b 135 139 131 153 132 144 b 200 71 147 115 178 83 b 225 65 207 67 215 65 l 336 65 b 357 69 343 65 351 67 b 461 154 381 82 438 122 l 464 161 m 389 850 b 442 850 389 850 439 850 b 308 718 442 776 382 718 b 178 850 235 718 178 776 l 231 850 b 308 771 231 807 265 771 b 389 850 351 771 389 807 "},"Ġ":{"ha":801,"x_min":0,"x_max":0,"o":"m 589 0 l 579 68 b 531 15 564 49 542 22 b 460 -7 511 3 482 -7 l 246 -7 b 174 15 224 -7 193 3 b 79 111 149 31 94 88 b 61 178 67 131 61 154 l 61 651 b 79 719 61 675 67 700 b 174 817 94 743 149 801 b 246 839 193 829 224 839 l 460 839 b 532 817 482 839 513 829 b 618 728 561 799 599 754 b 650 675 628 714 642 694 l 569 651 b 475 757 553 690 504 742 b 456 761 471 760 463 761 l 251 761 b 233 757 244 761 238 760 b 146 669 211 746 164 701 b 142 649 143 664 142 656 l 142 181 b 146 163 142 174 143 168 b 233 75 164 131 211 86 b 253 71 238 72 246 71 l 453 71 b 471 75 460 71 467 72 b 560 164 493 86 542 132 b 564 182 563 169 564 175 l 564 383 l 374 383 l 374 460 l 644 460 l 644 164 b 665 0 644 124 658 38 m 324 928 l 324 1035 l 429 1035 l 429 928 "},"ġ":{"ha":688,"x_min":0,"x_max":0,"o":"m 539 497 l 539 -74 b 519 -147 539 -101 533 -126 b 457 -214 508 -162 476 -200 b 371 -240 435 -231 400 -240 l 229 -240 b 144 -214 200 -240 167 -231 b 63 -115 110 -189 81 -146 l 135 -92 l 136 -94 b 201 -162 146 -115 179 -150 b 225 -168 208 -167 215 -168 l 369 -168 b 394 -162 379 -168 388 -167 b 461 -94 417 -150 449 -118 b 464 -71 464 -89 464 -81 l 464 72 b 410 22 446 53 426 35 b 340 -7 390 8 364 -7 l 224 -7 b 138 19 194 -7 160 3 b 75 86 118 33 86 71 b 56 160 61 107 56 132 l 56 438 b 75 511 56 465 61 490 b 138 578 86 526 118 564 b 224 604 160 594 194 604 l 340 604 b 410 575 364 604 390 589 b 465 524 426 563 447 543 l 474 597 l 549 597 m 464 436 l 461 443 b 357 528 438 475 381 515 b 336 532 351 531 343 532 l 225 532 b 200 526 215 532 207 531 b 135 458 178 514 147 482 b 131 435 132 453 131 444 l 131 163 b 135 139 131 153 132 144 b 200 71 147 115 178 83 b 225 65 207 67 215 65 l 336 65 b 357 69 343 65 351 67 b 461 154 381 82 438 122 l 464 161 m 247 733 l 247 840 l 353 840 l 353 733 "},"Ģ":{"ha":801,"x_min":0,"x_max":0,"o":"m 589 0 l 579 68 b 531 15 564 49 542 22 b 460 -7 511 3 482 -7 l 246 -7 b 174 15 224 -7 193 3 b 79 111 149 31 94 88 b 61 178 67 131 61 154 l 61 651 b 79 719 61 675 67 700 b 174 817 94 743 149 801 b 246 839 193 829 224 839 l 460 839 b 532 817 482 839 513 829 b 618 728 561 799 599 754 b 650 675 628 714 642 694 l 569 651 b 475 757 553 690 504 742 b 456 761 471 760 463 761 l 251 761 b 233 757 244 761 238 760 b 146 669 211 746 164 701 b 142 649 143 664 142 656 l 142 181 b 146 163 142 174 143 168 b 233 75 164 131 211 86 b 253 71 238 72 246 71 l 453 71 b 471 75 460 71 467 72 b 560 164 493 86 542 132 b 564 182 563 169 564 175 l 564 383 l 374 383 l 374 460 l 644 460 l 644 164 b 665 0 644 124 658 38 m 354 -233 l 272 -233 l 388 -53 l 454 -79 "},"ģ":{"ha":688,"x_min":0,"x_max":0,"o":"m 539 497 l 539 -74 b 519 -147 539 -101 533 -126 b 457 -214 508 -162 476 -200 b 371 -240 435 -231 400 -240 l 229 -240 b 144 -214 200 -240 167 -231 b 63 -115 110 -189 81 -146 l 135 -92 l 136 -94 b 201 -162 146 -115 179 -150 b 225 -168 208 -167 215 -168 l 369 -168 b 394 -162 379 -168 388 -167 b 461 -94 417 -150 449 -118 b 464 -71 464 -89 464 -81 l 464 72 b 410 22 446 53 426 35 b 340 -7 390 8 364 -7 l 224 -7 b 138 19 194 -7 160 3 b 75 86 118 33 86 71 b 56 160 61 107 56 132 l 56 438 b 75 511 56 465 61 490 b 138 578 86 526 118 564 b 224 604 160 594 194 604 l 340 604 b 410 575 364 604 390 589 b 465 524 426 563 447 543 l 474 597 l 549 597 m 464 436 l 461 443 b 357 528 438 475 381 515 b 336 532 351 531 343 532 l 225 532 b 200 526 215 532 207 531 b 135 458 178 514 147 482 b 131 435 132 453 131 444 l 131 163 b 135 139 131 153 132 144 b 200 71 147 115 178 83 b 225 65 207 67 215 65 l 336 65 b 357 69 343 65 351 67 b 461 154 381 82 438 122 l 464 161 m 329 757 l 247 757 l 363 938 l 429 911 "},"Ĥ":{"ha":772,"x_min":0,"x_max":0,"o":"m 542 0 l 542 378 l 149 378 l 149 0 l 68 0 l 68 833 l 149 833 l 149 456 l 542 456 l 542 833 l 622 833 l 622 0 m 179 917 l 308 1078 l 388 1078 l 517 917 l 422 917 l 347 1011 l 274 917 "},"ĥ":{"ha":658,"x_min":0,"x_max":0,"o":"m 447 0 l 447 435 b 443 458 447 444 446 453 b 378 526 431 482 400 514 b 353 532 371 531 363 532 l 258 532 b 238 528 251 532 243 531 b 133 443 214 515 153 478 b 131 438 132 442 132 439 l 131 0 l 56 0 l 56 833 l 131 833 l 131 525 b 185 575 149 544 168 563 b 254 604 204 589 231 604 l 354 604 b 439 578 383 604 417 594 b 501 511 458 564 490 526 b 522 438 515 490 522 465 l 522 0 m 128 917 l 257 1078 l 336 1078 l 465 917 l 371 917 l 296 1011 l 222 917 "},"Ħ":{"ha":772,"x_min":0,"x_max":0,"o":"m 694 678 l 622 678 l 622 0 l 542 0 l 542 378 l 149 378 l 149 0 l 68 0 l 68 679 l 0 679 l 0 757 l 68 757 l 68 833 l 149 833 l 149 757 l 542 757 l 542 833 l 622 833 l 622 757 l 694 757 l 694 678 m 542 456 l 542 678 l 149 679 l 149 456 l 542 456 "},"ħ":{"ha":658,"x_min":0,"x_max":0,"o":"m 501 511 b 522 438 515 490 522 465 l 522 0 l 447 0 l 447 435 b 443 458 447 444 446 453 b 378 526 431 482 400 514 b 353 532 371 531 363 532 l 258 532 b 238 528 251 532 243 531 b 133 443 214 515 153 478 b 131 438 132 442 132 439 l 131 0 l 56 0 l 56 682 l -7 682 l -7 757 l 56 757 l 56 833 l 131 833 l 131 757 l 322 757 l 322 682 l 131 682 l 131 525 b 185 575 149 544 168 563 b 254 604 204 589 231 604 l 354 604 b 439 578 383 604 417 594 b 501 511 458 564 490 526 "},"Ĩ":{"ha":300,"x_min":0,"x_max":0,"o":"m 68 0 l 68 833 l 149 833 l 149 0 m 231 931 b 165 965 222 957 194 969 l 64 940 b -87 1025 -1 924 -68 960 l -17 1042 b 49 1007 -8 1015 19 1003 l 150 1032 b 301 947 215 1049 282 1013 "},"ĩ":{"ha":286,"x_min":0,"x_max":0,"o":"m 68 0 l 68 597 l 143 597 l 143 0 m 228 736 b 163 771 219 763 192 775 l 61 746 b -90 831 -4 729 -71 765 l -19 847 b 46 813 -11 821 17 808 l 147 838 b 299 753 213 854 279 818 "},"Ī":{"ha":300,"x_min":0,"x_max":0,"o":"m 68 0 l 68 833 l 149 833 l 149 0 m -65 965 l -65 1035 l 288 1035 l 288 965 "},"ī":{"ha":286,"x_min":0,"x_max":0,"o":"m 68 0 l 68 597 l 143 597 l 143 0 m -71 771 l -71 840 l 282 840 l 282 771 "},"Ĭ":{"ha":300,"x_min":0,"x_max":0,"o":"m 68 0 l 68 833 l 149 833 l 149 0 m 189 1044 b 242 1044 189 1044 239 1044 b 108 913 242 971 182 913 b -22 1044 35 913 -22 971 l 31 1044 b 108 965 31 1001 65 965 b 189 1044 151 965 189 1001 "},"ĭ":{"ha":286,"x_min":0,"x_max":0,"o":"m 68 0 l 68 597 l 143 597 l 143 0 m 186 850 b 239 850 186 850 236 850 b 106 718 239 776 179 718 b -25 850 32 718 -25 776 l 28 850 b 106 771 28 807 63 771 b 186 850 149 771 186 807 "},"Į":{"ha":300,"x_min":0,"x_max":0,"o":"m 68 0 l 68 833 l 149 833 l 149 0 m 46 -79 l 113 -53 l 228 -233 l 146 -233 "},"į":{"ha":286,"x_min":0,"x_max":0,"o":"m 68 0 l 68 597 l 143 597 l 143 0 m 53 733 l 53 840 l 158 840 l 158 733 m 57 -79 l 124 -53 l 239 -233 l 157 -233 "},"İ":{"ha":300,"x_min":0,"x_max":0,"o":"m 68 0 l 68 833 l 149 833 l 149 0 m 65 928 l 65 1035 l 171 1035 l 171 928 "},"Ĵ":{"ha":632,"x_min":0,"x_max":0,"o":"m 493 181 b 475 113 493 157 488 132 b 382 17 460 89 407 32 b 310 -6 363 4 332 -6 l 201 -6 b 129 17 179 -6 149 4 b 44 104 100 35 64 78 b 14 158 35 118 22 139 l 92 181 b 185 76 111 143 156 92 b 206 72 189 74 199 72 l 303 72 b 319 76 310 72 315 74 b 407 164 342 88 389 132 b 413 182 410 169 413 175 l 413 833 l 493 833 l 493 181 m 286 917 l 415 1078 l 494 1078 l 624 917 l 529 917 l 454 1011 l 381 917 "},"ĵ":{"ha":290,"x_min":0,"x_max":0,"o":"m 157 -74 b 136 -147 157 -101 150 -126 b 75 -214 125 -162 94 -200 b -10 -239 53 -231 19 -239 l -97 -239 l -97 -167 l -11 -167 b 14 -162 -1 -167 7 -167 b 78 -94 36 -150 65 -118 b 82 -71 81 -89 82 -81 l 82 597 l 157 597 l 157 -74 m -51 722 l 78 883 l 157 883 l 286 722 l 192 722 l 117 817 l 43 722 "},"Ķ":{"ha":704,"x_min":0,"x_max":0,"o":"m 511 0 l 165 378 l 149 378 l 149 0 l 68 0 l 68 833 l 149 833 l 149 454 l 165 454 l 510 833 l 615 833 l 233 417 l 617 0 m 183 -233 l 101 -233 l 217 -53 l 283 -79 "},"ķ":{"ha":594,"x_min":0,"x_max":0,"o":"m 419 0 l 161 276 l 132 276 l 132 0 l 57 0 l 57 833 l 132 833 l 132 347 l 160 347 l 397 597 l 497 597 l 225 314 l 521 0 m 168 -233 l 86 -233 l 201 -53 l 268 -79 "},"ĸ":{"ha":594,"x_min":0,"x_max":0,"o":"m 225 314 l 521 0 l 419 0 l 161 276 l 132 276 l 132 0 l 57 0 l 57 597 l 132 597 l 132 347 l 160 347 l 340 540 b 372 571 351 553 363 564 b 457 597 394 588 426 597 l 504 597 l 504 525 l 458 525 b 431 519 449 525 438 524 b 392 488 418 513 404 501 "},"Ļ":{"ha":632,"x_min":0,"x_max":0,"o":"m 68 0 l 68 833 l 149 833 l 149 78 l 538 78 l 538 0 m 293 -233 l 211 -233 l 326 -53 l 393 -79 "},"ļ":{"ha":285,"x_min":0,"x_max":0,"o":"m 76 0 b 64 78 74 24 64 54 l 64 833 l 139 833 l 139 94 b 151 0 139 64 149 31 m 69 -237 l -12 -237 l 103 -57 l 169 -83 "},"Ŀ":{"ha":632,"x_min":0,"x_max":0,"o":"m 68 0 l 68 833 l 149 833 l 149 78 l 538 78 l 538 0 m 406 367 l 406 474 l 511 474 l 511 367 "},"ŀ":{"ha":375,"x_min":0,"x_max":0,"o":"m 76 0 b 64 78 74 24 64 54 l 64 833 l 139 833 l 139 94 b 151 0 139 64 149 31 m 240 354 l 240 461 l 346 461 l 346 354 "},"Ņ":{"ha":765,"x_min":0,"x_max":0,"o":"m 510 0 l 147 711 l 147 0 l 69 0 l 69 833 l 176 833 l 536 115 l 536 833 l 614 833 l 614 0 m 342 -233 l 260 -233 l 375 -53 l 442 -79 "},"ņ":{"ha":668,"x_min":0,"x_max":0,"o":"m 457 0 l 457 435 b 454 458 457 444 457 453 b 388 526 442 482 410 514 b 363 532 381 531 372 532 l 264 532 b 244 528 257 532 250 531 b 140 444 221 515 161 478 l 140 0 l 65 0 l 65 499 l 56 597 l 131 597 l 139 528 b 190 575 156 546 175 564 b 260 604 210 589 236 604 l 364 604 b 450 578 394 604 428 594 b 513 511 469 564 501 526 b 532 438 526 490 532 465 l 532 0 m 272 -233 l 190 -233 l 306 -53 l 372 -79 "},"ŉ":{"ha":668,"x_min":0,"x_max":0,"o":"m 457 0 l 457 435 b 454 458 457 444 457 453 b 388 526 442 482 410 514 b 363 532 381 531 372 532 l 264 532 b 244 528 257 532 250 531 b 140 444 221 515 161 478 l 140 0 l 65 0 l 65 499 l 56 597 l 131 597 l 139 528 b 190 575 156 546 175 564 b 260 604 210 589 236 604 l 364 604 b 450 578 394 604 428 594 b 513 511 469 564 501 526 b 532 438 526 490 532 465 l 532 0 m -17 900 l 69 900 l -26 667 l -100 693 "},"Ŋ":{"ha":765,"x_min":0,"x_max":0,"o":"m 615 -74 b 594 -147 615 -101 608 -126 b 533 -214 583 -162 553 -200 b 449 -239 511 -231 478 -239 l 361 -239 l 361 -167 l 447 -167 b 472 -162 457 -167 465 -167 b 536 -94 494 -150 524 -118 b 540 -71 539 -89 540 -81 l 510 0 l 147 711 l 147 0 l 69 0 l 69 833 l 176 833 l 536 115 l 536 833 l 614 833 l 615 -74 "},"ŋ":{"ha":668,"x_min":0,"x_max":0,"o":"m 531 -74 b 510 -147 531 -101 524 -126 b 449 -214 499 -162 468 -200 b 364 -239 426 -231 393 -239 l 276 -239 l 276 -167 l 363 -167 b 388 -162 372 -167 381 -167 b 451 -94 410 -150 439 -118 b 456 -71 454 -89 456 -81 l 457 435 b 454 458 457 444 457 453 b 388 526 442 482 410 514 b 363 532 381 531 372 532 l 264 532 b 244 528 257 532 250 531 b 140 444 221 515 161 478 l 140 0 l 65 0 l 65 499 l 56 597 l 131 597 l 139 528 b 190 575 156 546 175 564 b 260 604 210 589 236 604 l 364 604 b 450 578 394 604 428 594 b 513 511 469 564 501 526 b 532 438 526 490 532 465 l 531 -74 "},"Ō":{"ha":782,"x_min":0,"x_max":0,"o":"m 649 179 b 631 111 649 156 643 131 b 536 15 615 88 561 31 b 464 -7 517 3 486 -7 l 244 -7 b 174 15 222 -7 193 3 b 78 111 149 31 93 88 b 61 179 65 131 61 156 l 61 651 b 78 719 61 675 65 700 b 174 817 93 743 149 801 b 244 839 193 829 222 839 l 464 839 b 536 817 486 839 517 829 b 631 719 561 801 615 743 b 649 651 643 700 649 675 l 649 179 m 568 649 b 564 669 568 656 567 664 b 476 757 546 701 499 746 b 458 761 472 760 465 761 l 251 761 b 233 757 244 761 238 760 b 147 669 211 746 165 701 b 142 649 144 664 142 656 l 142 181 b 147 163 142 174 144 168 b 233 75 165 131 211 86 b 251 71 238 72 244 71 l 458 71 b 476 75 465 71 472 72 b 564 163 499 86 546 131 b 568 181 567 168 568 174 m 176 965 l 176 1035 l 529 1035 l 529 965 "},"ō":{"ha":656,"x_min":0,"x_max":0,"o":"m 524 160 b 504 86 524 132 518 107 b 442 19 493 71 461 33 b 356 -7 419 3 386 -7 l 217 -7 b 131 19 186 -7 153 3 b 68 86 111 33 79 71 b 49 160 54 107 49 132 l 49 438 b 68 511 49 465 54 490 b 131 578 79 526 111 564 b 217 604 153 594 186 604 l 356 604 b 442 578 386 604 419 594 b 504 511 461 564 493 526 b 524 438 518 490 524 465 l 524 160 m 449 435 b 446 458 449 444 449 453 b 379 526 433 482 401 514 b 354 532 372 531 364 532 l 218 532 b 193 526 208 532 200 531 b 128 458 171 514 140 482 b 124 435 125 453 124 444 l 124 163 b 128 139 124 153 125 144 b 193 71 140 115 171 83 b 218 65 200 67 208 65 l 354 65 b 379 71 364 65 372 67 b 446 139 401 83 433 115 b 449 163 449 144 449 153 m 113 771 l 113 840 l 465 840 l 465 771 "},"Ŏ":{"ha":782,"x_min":0,"x_max":0,"o":"m 649 179 b 631 111 649 156 643 131 b 536 15 615 88 561 31 b 464 -7 517 3 486 -7 l 244 -7 b 174 15 222 -7 193 3 b 78 111 149 31 93 88 b 61 179 65 131 61 156 l 61 651 b 78 719 61 675 65 700 b 174 817 93 743 149 801 b 244 839 193 829 222 839 l 464 839 b 536 817 486 839 517 829 b 631 719 561 801 615 743 b 649 651 643 700 649 675 l 649 179 m 568 649 b 564 669 568 656 567 664 b 476 757 546 701 499 746 b 458 761 472 760 465 761 l 251 761 b 233 757 244 761 238 760 b 147 669 211 746 165 701 b 142 649 144 664 142 656 l 142 181 b 147 163 142 174 144 168 b 233 75 165 131 211 86 b 251 71 238 72 244 71 l 458 71 b 476 75 465 71 472 72 b 564 163 499 86 546 131 b 568 181 567 168 568 174 m 439 1044 b 492 1044 439 1044 489 1044 b 358 913 492 971 432 913 b 228 1044 285 913 228 971 l 281 1044 b 358 965 281 1001 315 965 b 439 1044 401 965 439 1001 "},"ŏ":{"ha":656,"x_min":0,"x_max":0,"o":"m 524 160 b 504 86 524 132 518 107 b 442 19 493 71 461 33 b 356 -7 419 3 386 -7 l 217 -7 b 131 19 186 -7 153 3 b 68 86 111 33 79 71 b 49 160 54 107 49 132 l 49 438 b 68 511 49 465 54 490 b 131 578 79 526 111 564 b 217 604 153 594 186 604 l 356 604 b 442 578 386 604 419 594 b 504 511 461 564 493 526 b 524 438 518 490 524 465 l 524 160 m 449 435 b 446 458 449 444 449 453 b 379 526 433 482 401 514 b 354 532 372 531 364 532 l 218 532 b 193 526 208 532 200 531 b 128 458 171 514 140 482 b 124 435 125 453 124 444 l 124 163 b 128 139 124 153 125 144 b 193 71 140 115 171 83 b 218 65 200 67 208 65 l 354 65 b 379 71 364 65 372 67 b 446 139 401 83 433 115 b 449 163 449 144 449 153 m 368 850 b 421 850 368 850 418 850 b 288 718 421 776 361 718 b 157 850 214 718 157 776 l 210 850 b 288 771 210 807 244 771 b 368 850 331 771 368 807 "},"Ŗ":{"ha":765,"x_min":0,"x_max":0,"o":"m 617 539 b 596 467 617 513 610 488 b 525 394 586 451 543 408 b 447 368 503 378 475 368 l 654 0 l 563 0 l 357 368 l 149 368 l 149 0 l 68 0 l 68 833 l 443 833 b 525 807 472 833 503 824 b 596 733 543 793 586 749 b 617 661 610 713 617 688 l 617 539 m 536 658 b 533 682 536 667 536 676 b 465 751 521 706 488 739 b 442 756 458 756 450 756 l 149 756 l 149 446 l 442 446 b 465 451 450 446 458 447 b 533 518 488 464 521 494 b 536 542 536 524 536 533 m 229 -233 l 147 -233 l 263 -53 l 329 -79 "},"ŗ":{"ha":578,"x_min":0,"x_max":0,"o":"m 425 457 b 358 526 411 478 381 514 b 333 532 351 531 343 532 l 265 532 b 244 528 258 532 250 531 b 139 443 221 515 158 478 l 139 0 l 64 0 l 64 499 l 54 597 l 131 597 l 139 526 b 192 575 157 544 175 564 b 261 604 211 589 238 604 l 331 604 b 415 578 361 604 393 594 b 476 511 435 564 465 526 b 497 481 485 500 493 488 m 129 -233 l 47 -233 l 163 -53 l 229 -79 "},"Ŝ":{"ha":761,"x_min":0,"x_max":0,"o":"m 643 179 b 626 111 643 156 639 131 b 531 15 611 88 556 31 b 460 -7 511 3 482 -7 l 229 -7 b 157 15 207 -7 176 3 b 71 103 128 33 90 76 b 40 157 61 117 49 138 l 119 179 b 129 163 125 167 129 163 b 214 75 149 129 190 88 b 233 71 218 72 226 71 l 454 71 b 471 75 461 71 467 72 b 558 158 493 86 540 126 b 563 176 561 164 563 169 l 563 265 b 518 331 563 293 544 324 l 138 435 b 51 565 83 450 51 507 l 51 651 b 68 719 51 675 56 700 b 164 817 83 743 139 801 b 235 839 183 829 213 839 l 442 839 b 513 817 464 839 493 829 b 599 729 542 799 579 756 b 631 675 608 715 622 694 l 550 651 b 540 669 544 664 540 669 b 456 757 522 703 479 744 b 438 761 451 760 444 761 l 242 761 b 224 757 235 761 228 760 b 138 676 201 746 156 708 b 132 658 135 671 132 665 l 132 571 b 175 508 132 543 150 515 l 554 403 b 643 274 608 388 643 332 l 643 179 m 172 917 l 301 1078 l 381 1078 l 510 917 l 415 917 l 340 1011 l 267 917 "},"ŝ":{"ha":649,"x_min":0,"x_max":0,"o":"m 524 154 b 503 81 524 126 517 101 b 446 19 492 65 465 33 b 361 -7 424 3 390 -7 l 194 -7 b 110 19 165 -7 132 3 b 49 85 90 33 60 69 b 29 117 42 96 32 110 l 101 142 b 167 71 113 118 144 83 b 192 65 174 67 182 65 l 360 65 b 383 71 369 65 376 67 b 444 133 406 83 432 110 b 449 157 447 139 449 147 l 449 207 b 396 258 449 235 425 256 l 167 275 b 46 401 99 281 46 333 l 46 443 b 67 517 46 471 53 496 b 124 578 78 532 104 564 b 208 604 146 594 179 604 l 353 604 b 438 578 382 604 415 594 b 500 511 457 564 489 526 b 519 481 508 500 517 488 l 447 456 b 381 526 436 479 403 514 b 357 532 374 531 367 532 l 210 532 b 185 526 200 532 192 531 b 125 465 163 514 138 489 b 121 442 122 460 121 451 l 121 400 b 174 349 121 372 144 351 l 403 331 b 524 204 471 325 524 272 l 524 154 m 122 722 l 251 883 l 331 883 l 460 722 l 365 722 l 290 817 l 217 722 "},"Ş":{"ha":761,"x_min":0,"x_max":0,"o":"m 643 179 b 626 111 643 156 639 131 b 531 15 611 88 556 31 b 460 -7 511 3 482 -7 l 229 -7 b 157 15 207 -7 176 3 b 71 103 128 33 90 76 b 40 157 61 117 49 138 l 119 179 b 129 163 125 167 129 163 b 214 75 149 129 190 88 b 233 71 218 72 226 71 l 454 71 b 471 75 461 71 467 72 b 558 158 493 86 540 126 b 563 176 561 164 563 169 l 563 265 b 518 331 563 293 544 324 l 138 435 b 51 565 83 450 51 507 l 51 651 b 68 719 51 675 56 700 b 164 817 83 743 139 801 b 235 839 183 829 213 839 l 442 839 b 513 817 464 839 493 829 b 599 729 542 799 579 756 b 631 675 608 715 622 694 l 550 651 b 540 669 544 664 540 669 b 456 757 522 703 479 744 b 438 761 451 760 444 761 l 242 761 b 224 757 235 761 228 760 b 138 676 201 746 156 708 b 132 658 135 671 132 665 l 132 571 b 175 508 132 543 150 515 l 554 403 b 643 274 608 388 643 332 l 643 179 m 314 -233 l 232 -233 l 347 -53 l 414 -79 "},"ş":{"ha":649,"x_min":0,"x_max":0,"o":"m 524 154 b 503 81 524 126 517 101 b 446 19 492 65 465 33 b 361 -7 424 3 390 -7 l 194 -7 b 110 19 165 -7 132 3 b 49 85 90 33 60 69 b 29 117 42 96 32 110 l 101 142 b 167 71 113 118 144 83 b 192 65 174 67 182 65 l 360 65 b 383 71 369 65 376 67 b 444 133 406 83 432 110 b 449 157 447 139 449 147 l 449 207 b 396 258 449 235 425 256 l 167 275 b 46 401 99 281 46 333 l 46 443 b 67 517 46 471 53 496 b 124 578 78 532 104 564 b 208 604 146 594 179 604 l 353 604 b 438 578 382 604 415 594 b 500 511 457 564 489 526 b 519 481 508 500 517 488 l 447 456 b 381 526 436 479 403 514 b 357 532 374 531 367 532 l 210 532 b 185 526 200 532 192 531 b 125 465 163 514 138 489 b 121 442 122 460 121 451 l 121 400 b 174 349 121 372 144 351 l 403 331 b 524 204 471 325 524 272 l 524 154 m 231 -233 l 149 -233 l 264 -53 l 331 -79 "},"Ŧ":{"ha":653,"x_min":0,"x_max":0,"o":"m 568 756 l 331 756 l 331 454 l 456 454 l 456 382 l 331 382 l 331 0 l 250 0 l 250 382 l 125 382 l 125 454 l 250 454 l 250 756 l 13 756 l 13 833 l 568 833 l 568 756 "},"ŧ":{"ha":468,"x_min":0,"x_max":0,"o":"m 371 524 l 188 524 l 188 451 l 371 451 l 371 378 l 188 378 l 188 168 b 192 142 188 158 190 147 b 254 76 206 118 233 89 b 283 71 261 72 274 71 l 371 71 l 371 -1 l 281 -1 b 196 25 250 -1 219 8 b 133 92 176 39 146 76 b 114 165 119 113 114 138 l 114 378 l 14 378 l 14 451 l 114 451 l 114 524 l 15 524 l 15 596 l 114 596 l 114 832 l 188 832 l 188 596 l 371 596 l 371 524 "},"Ĳ":{"ha":908,"x_min":0,"x_max":0,"o":"m 68 0 l 68 833 l 149 833 l 149 0 m 769 181 b 751 113 769 157 764 132 b 658 17 736 89 683 32 b 586 -6 639 4 608 -6 l 478 -6 b 406 17 456 -6 425 4 b 321 104 376 35 340 78 b 290 158 311 118 299 139 l 368 181 b 461 76 388 143 432 92 b 482 72 465 74 475 72 l 579 72 b 596 76 586 72 592 74 b 683 164 618 88 665 132 b 689 182 686 169 689 175 l 689 833 l 769 833 l 769 181 "},"ĳ":{"ha":557,"x_min":0,"x_max":0,"o":"m 68 0 l 68 597 l 143 597 l 143 0 m 53 733 l 53 840 l 158 840 l 158 733 m 424 -74 b 403 -147 424 -101 417 -126 b 342 -214 392 -162 361 -200 b 257 -239 319 -231 286 -239 l 174 -239 l 174 -167 b 286 -160 271 -165 279 -164 b 344 -94 308 -147 332 -118 b 349 -71 347 -89 349 -81 l 349 597 l 424 597 l 424 -74 m 332 733 l 332 840 l 438 840 l 438 733 "},"Ũ":{"ha":760,"x_min":0,"x_max":0,"o":"m 621 178 b 604 111 621 154 617 131 b 510 15 589 88 535 31 b 439 -7 490 3 461 -7 l 253 -7 b 181 15 231 -7 200 3 b 86 111 156 31 101 88 b 68 178 74 131 68 154 l 68 833 l 149 833 l 149 181 b 154 163 149 174 151 168 b 242 75 172 131 219 86 b 260 71 246 72 253 71 l 432 71 b 450 75 439 71 446 72 b 535 163 472 86 517 131 b 540 181 538 168 540 174 l 540 833 l 621 833 l 621 178 m 475 931 b 410 965 467 957 439 969 l 308 940 b 157 1025 243 924 176 960 l 228 1042 b 293 1007 236 1015 264 1003 l 394 1032 b 546 947 460 1049 526 1013 "},"ũ":{"ha":658,"x_min":0,"x_max":0,"o":"m 451 0 l 443 69 b 392 22 426 51 407 33 b 322 -7 372 8 346 -7 l 218 -7 b 132 19 188 -7 154 3 b 69 86 113 33 81 71 b 50 160 56 107 50 132 l 50 597 l 125 597 l 125 163 b 128 139 125 153 125 144 b 194 71 140 115 172 83 b 219 65 201 67 210 65 l 318 65 b 338 69 325 65 332 67 b 442 153 361 82 421 119 l 442 597 l 517 597 l 517 99 l 526 0 m 397 736 b 332 771 389 763 361 775 l 231 746 b 79 831 165 729 99 765 l 150 847 b 215 813 158 821 186 808 l 317 838 b 468 753 382 854 449 818 "},"Ū":{"ha":760,"x_min":0,"x_max":0,"o":"m 621 178 b 604 111 621 154 617 131 b 510 15 589 88 535 31 b 439 -7 490 3 461 -7 l 253 -7 b 181 15 231 -7 200 3 b 86 111 156 31 101 88 b 68 178 74 131 68 154 l 68 833 l 149 833 l 149 181 b 154 163 149 174 151 168 b 242 75 172 131 219 86 b 260 71 246 72 253 71 l 432 71 b 450 75 439 71 446 72 b 535 163 472 86 517 131 b 540 181 538 168 540 174 l 540 833 l 621 833 l 621 178 m 174 965 l 174 1035 l 526 1035 l 526 965 "},"ū":{"ha":658,"x_min":0,"x_max":0,"o":"m 451 0 l 443 69 b 392 22 426 51 407 33 b 322 -7 372 8 346 -7 l 218 -7 b 132 19 188 -7 154 3 b 69 86 113 33 81 71 b 50 160 56 107 50 132 l 50 597 l 125 597 l 125 163 b 128 139 125 153 125 144 b 194 71 140 115 172 83 b 219 65 201 67 210 65 l 318 65 b 338 69 325 65 332 67 b 442 153 361 82 421 119 l 442 597 l 517 597 l 517 99 l 526 0 m 100 771 l 100 840 l 453 840 l 453 771 "},"Ŭ":{"ha":760,"x_min":0,"x_max":0,"o":"m 621 178 b 604 111 621 154 617 131 b 510 15 589 88 535 31 b 439 -7 490 3 461 -7 l 253 -7 b 181 15 231 -7 200 3 b 86 111 156 31 101 88 b 68 178 74 131 68 154 l 68 833 l 149 833 l 149 181 b 154 163 149 174 151 168 b 242 75 172 131 219 86 b 260 71 246 72 253 71 l 432 71 b 450 75 439 71 446 72 b 535 163 472 86 517 131 b 540 181 538 168 540 174 l 540 833 l 621 833 l 621 178 m 432 1044 b 485 1044 432 1044 482 1044 b 351 913 485 971 425 913 b 221 1044 278 913 221 971 l 274 1044 b 351 965 274 1001 308 965 b 432 1044 394 965 432 1001 "},"ŭ":{"ha":658,"x_min":0,"x_max":0,"o":"m 451 0 l 443 69 b 392 22 426 51 407 33 b 322 -7 372 8 346 -7 l 218 -7 b 132 19 188 -7 154 3 b 69 86 113 33 81 71 b 50 160 56 107 50 132 l 50 597 l 125 597 l 125 163 b 128 139 125 153 125 144 b 194 71 140 115 172 83 b 219 65 201 67 210 65 l 318 65 b 338 69 325 65 332 67 b 442 153 361 82 421 119 l 442 597 l 517 597 l 517 99 l 526 0 m 364 850 b 417 850 364 850 414 850 b 283 718 417 776 357 718 b 153 850 210 718 153 776 l 206 850 b 283 771 206 807 240 771 b 364 850 326 771 364 807 "},"Ų":{"ha":760,"x_min":0,"x_max":0,"o":"m 621 178 b 604 111 621 154 617 131 b 510 15 589 88 535 31 b 439 -7 490 3 461 -7 l 253 -7 b 181 15 231 -7 200 3 b 86 111 156 31 101 88 b 68 178 74 131 68 154 l 68 833 l 149 833 l 149 181 b 154 163 149 174 151 168 b 242 75 172 131 219 86 b 260 71 246 72 253 71 l 432 71 b 450 75 439 71 446 72 b 535 163 472 86 517 131 b 540 181 538 168 540 174 l 540 833 l 621 833 l 621 178 m 249 -79 l 315 -53 l 431 -233 l 349 -233 "},"ų":{"ha":658,"x_min":0,"x_max":0,"o":"m 451 0 l 443 69 b 392 22 426 51 407 33 b 322 -7 372 8 346 -7 l 218 -7 b 132 19 188 -7 154 3 b 69 86 113 33 81 71 b 50 160 56 107 50 132 l 50 597 l 125 597 l 125 163 b 128 139 125 153 125 144 b 194 71 140 115 172 83 b 219 65 201 67 210 65 l 318 65 b 338 69 325 65 332 67 b 442 153 361 82 421 119 l 442 597 l 517 597 l 517 99 l 526 0 m 204 -79 l 271 -53 l 386 -233 l 304 -233 "},"Ŵ":{"ha":1017,"x_min":0,"x_max":0,"o":"m 756 0 l 640 0 l 471 726 l 307 0 l 192 0 l 7 833 l 90 833 l 246 88 l 254 88 l 418 833 l 522 833 l 693 88 l 701 88 l 850 833 l 936 833 m 303 917 l 432 1078 l 511 1078 l 640 917 l 546 917 l 471 1011 l 397 917 "},"ŵ":{"ha":922,"x_min":0,"x_max":0,"o":"m 678 0 l 574 0 l 426 510 l 285 0 l 181 0 l 7 597 l 88 597 l 229 81 l 238 81 l 374 597 l 481 597 l 622 81 l 631 81 l 767 597 l 846 597 m 258 722 l 388 883 l 467 883 l 596 722 l 501 722 l 426 817 l 353 722 "},"Ŷ":{"ha":621,"x_min":0,"x_max":0,"o":"m 315 356 l 315 0 l 235 0 l 235 356 l -24 833 l 65 833 l 275 438 l 488 833 l 575 833 m 106 917 l 235 1078 l 314 1078 l 443 917 l 349 917 l 274 1011 l 200 917 "},"ŷ":{"ha":583,"x_min":0,"x_max":0,"o":"m 424 597 l 504 597 l 233 -233 l 154 -233 l 233 0 l 201 0 l 7 597 l 88 597 l 251 76 l 260 76 l 424 597 m 88 722 l 217 883 l 296 883 l 425 722 l 331 722 l 256 817 l 182 722 "},"ſ":{"ha":411,"x_min":0,"x_max":0,"o":"m 296 767 b 267 763 286 767 274 767 b 204 696 244 750 217 719 b 201 671 201 690 201 681 l 201 0 l 126 0 l 126 525 l 28 525 l 28 597 l 126 597 l 126 674 b 146 747 126 701 132 726 b 208 814 157 763 189 800 b 294 839 231 831 264 839 l 383 839 l 383 767 "},"π":{"ha":814,"x_min":0,"x_max":0,"o":"m 525 0 b 513 78 522 24 513 54 l 513 525 l 221 525 l 221 0 l 146 0 l 146 525 l 39 525 l 39 597 l 694 597 l 694 525 l 588 525 l 588 94 b 600 0 588 64 597 31 "},"∏":{"ha":772,"x_min":0,"x_max":0,"o":"m 542 0 l 540 756 l 147 756 l 149 0 l 68 0 l 68 833 l 622 833 l 622 0 "},"¤":{"ha":776,"x_min":0,"x_max":0,"o":"m 597 249 l 544 196 l 483 256 b 417 239 464 244 442 239 l 300 239 b 233 256 275 239 253 244 l 174 196 l 121 249 l 175 304 b 151 331 165 314 157 324 b 125 415 135 353 125 385 l 125 450 b 151 535 125 481 135 513 b 178 563 157 543 167 553 l 122 618 l 175 671 l 235 611 b 300 626 254 621 276 626 l 417 626 b 482 611 440 626 463 622 l 543 672 l 596 618 l 539 563 b 564 535 550 553 558 542 b 590 450 581 513 590 481 l 590 415 b 564 331 590 385 581 353 b 540 306 558 324 550 315 l 597 249 m 418 313 b 442 317 428 313 436 314 b 511 392 465 329 499 369 b 517 417 515 399 517 407 l 517 449 b 511 474 517 458 515 467 b 442 549 499 496 465 536 b 418 553 436 551 428 553 l 299 553 b 275 549 289 553 281 551 b 204 474 251 536 217 496 b 199 449 200 467 199 458 l 199 417 b 204 392 199 407 200 399 b 275 317 217 369 251 329 b 299 313 281 314 289 313 l 418 313 "},"э":{"ha":651,"x_min":0,"x_max":0,"o":"m 524 439 l 524 157 b 503 86 522 131 517 107 b 440 19 493 69 460 33 b 356 -7 418 3 385 -7 l 200 -7 b 114 19 169 -7 136 3 b 53 85 96 33 64 69 b 33 117 46 94 36 111 l 106 142 l 107 139 b 171 71 118 118 149 83 b 196 65 178 67 186 65 l 354 65 b 378 71 363 65 372 67 b 444 139 400 83 432 115 b 449 158 447 144 449 150 l 449 265 l 181 265 l 181 338 l 449 338 l 449 440 b 444 460 449 447 447 454 b 378 528 432 483 400 515 b 354 532 372 531 363 532 l 197 532 b 171 526 186 532 178 531 b 107 460 149 514 118 479 l 106 457 l 33 479 b 54 513 36 486 46 501 b 114 578 67 531 96 564 b 200 604 136 594 169 604 l 356 604 b 440 578 385 604 418 594 b 503 511 460 564 493 526 b 524 439 517 490 524 465 "},"Я":{"ha":769,"x_min":0,"x_max":0,"o":"m 71 661 b 92 733 71 688 78 713 b 163 807 101 749 144 793 b 244 833 185 824 215 833 l 619 833 l 619 0 l 539 0 l 539 368 l 331 368 l 125 0 l 33 0 l 240 368 b 163 394 213 368 185 378 b 92 467 144 408 101 451 b 71 539 78 488 71 513 m 151 542 b 154 518 151 533 151 524 b 222 451 167 494 200 464 b 246 446 229 447 238 446 l 539 446 l 539 756 l 246 756 b 222 751 238 756 229 756 b 154 682 200 739 167 706 b 151 658 151 676 151 667 "},"Ш":{"ha":896,"x_min":0,"x_max":0,"o":"m 746 833 l 746 0 l 69 0 l 69 833 l 150 833 l 150 79 l 364 79 l 364 833 l 444 833 l 444 79 l 665 79 l 665 833 l 746 833 "},"А":{"ha":746,"x_min":0,"x_max":0,"o":"m 593 0 l 531 193 l 144 193 l 81 0 l -4 0 l 275 833 l 400 833 l 679 0 l 593 0 m 169 271 l 506 271 l 346 754 l 328 754 l 169 271 "},"В":{"ha":751,"x_min":0,"x_max":0,"o":"m 615 171 b 596 100 615 144 610 121 b 526 26 586 85 544 40 b 443 0 504 10 472 0 l 68 0 l 68 833 l 443 833 b 526 806 472 833 504 822 b 596 733 544 792 586 749 b 615 660 610 713 615 686 l 615 553 b 596 479 615 526 610 500 b 542 421 588 467 561 439 b 596 363 561 403 588 375 b 615 289 610 342 615 315 l 615 171 m 535 658 b 531 681 535 667 533 675 b 465 750 518 704 488 738 b 442 756 458 754 450 756 l 149 756 l 149 458 l 443 458 b 465 464 451 458 460 461 b 531 532 488 476 518 508 b 535 556 533 538 535 547 m 535 288 b 531 310 535 296 533 304 b 465 378 518 333 488 365 b 443 382 460 381 451 382 l 149 382 l 149 78 l 442 78 b 465 83 450 78 458 79 b 531 151 488 96 518 128 b 535 174 533 157 535 165 "},"З":{"ha":729,"x_min":0,"x_max":0,"o":"m 592 165 b 571 93 592 139 585 114 b 501 19 561 78 519 33 b 419 -7 479 3 449 -7 l 228 -7 b 157 15 206 -7 176 3 b 71 101 128 33 90 75 b 39 157 61 115 47 138 l 119 179 b 213 75 139 142 183 90 b 232 71 217 72 225 71 l 418 71 b 442 76 426 71 435 72 b 507 144 464 89 494 121 b 511 167 510 150 511 158 l 511 290 b 507 313 511 299 510 307 b 442 379 494 336 464 367 b 419 385 436 382 428 385 l 250 385 l 250 463 l 418 463 b 442 467 426 463 436 464 b 507 533 464 479 494 510 b 511 557 510 539 511 549 l 511 664 b 507 688 511 672 510 682 b 442 757 494 711 464 744 b 418 761 435 761 426 761 l 232 761 b 213 757 225 761 217 760 b 119 653 183 742 136 692 l 40 675 b 71 729 49 694 61 715 b 157 818 90 756 128 800 b 228 839 176 831 206 839 l 419 839 b 501 813 449 839 479 829 b 571 739 519 799 561 754 b 592 667 585 718 592 693 l 592 554 b 571 482 592 528 585 503 b 517 424 563 469 536 442 b 571 365 536 406 563 378 b 592 293 585 344 592 319 l 592 165 "},"М":{"ha":903,"x_min":0,"x_max":0,"o":"m 675 0 l 675 747 l 438 224 l 383 224 l 147 747 l 147 0 l 69 0 l 69 833 l 185 833 l 411 346 l 639 833 l 753 833 l 753 0 "},"Н":{"ha":772,"x_min":0,"x_max":0,"o":"m 542 0 l 542 378 l 149 378 l 149 0 l 68 0 l 68 833 l 149 833 l 149 456 l 542 456 l 542 833 l 622 833 l 622 0 "},"О":{"ha":782,"x_min":0,"x_max":0,"o":"m 649 179 b 631 111 649 156 643 131 b 536 15 615 88 561 31 b 464 -7 517 3 486 -7 l 244 -7 b 174 15 222 -7 193 3 b 78 111 149 31 93 88 b 61 179 65 131 61 156 l 61 651 b 78 719 61 675 65 700 b 174 817 93 743 149 801 b 244 839 193 829 222 839 l 464 839 b 536 817 486 839 517 829 b 631 719 561 801 615 743 b 649 651 643 700 649 675 l 649 179 m 568 649 b 564 669 568 656 567 664 b 476 757 546 701 499 746 b 458 761 471 760 464 761 l 251 761 b 233 757 244 761 238 760 b 147 669 211 746 165 701 b 142 649 144 664 142 656 l 142 181 b 147 163 142 174 144 168 b 233 75 165 131 211 86 b 251 71 238 72 244 71 l 458 71 b 476 75 465 71 472 72 b 564 163 499 86 546 131 b 568 181 567 168 568 174 "},"Р":{"ha":725,"x_min":0,"x_max":0,"o":"m 617 539 b 596 467 617 513 610 488 b 525 394 586 451 543 408 b 443 368 503 378 472 368 l 149 368 l 149 0 l 68 0 l 68 833 l 443 833 b 525 807 472 833 503 824 b 596 733 543 793 586 749 b 617 661 610 713 617 688 l 617 539 m 536 658 b 533 682 536 667 536 676 b 465 751 521 706 488 739 b 442 756 458 756 450 756 l 149 756 l 149 446 l 442 446 b 465 451 450 446 458 447 b 533 518 488 464 521 494 b 536 542 536 524 536 533 "},"С":{"ha":725,"x_min":0,"x_max":0,"o":"m 618 157 b 586 103 610 138 596 117 b 500 15 567 76 529 33 b 429 -7 481 3 451 -7 l 246 -7 b 174 15 224 -7 193 3 b 79 111 149 31 94 88 b 61 178 67 131 61 154 l 61 653 b 79 719 61 676 67 700 b 174 817 94 743 149 801 b 244 839 193 829 222 839 l 429 839 b 500 817 451 839 481 829 b 586 729 529 799 567 756 b 618 675 596 715 610 694 l 538 651 b 444 757 521 690 474 742 b 425 761 440 760 432 761 l 251 761 b 233 757 244 761 238 760 b 146 669 211 746 164 701 b 142 650 143 664 142 657 l 142 181 b 146 163 142 174 143 168 b 233 75 164 131 211 86 b 251 71 238 72 244 71 l 425 71 b 444 75 432 71 440 72 b 538 179 474 90 518 142 l 618 157 "},"Т":{"ha":653,"x_min":0,"x_max":0,"o":"m 332 756 l 332 0 l 251 0 l 251 756 l 14 756 l 14 833 l 569 833 l 569 756 "},"Б":{"ha":725,"x_min":0,"x_max":0,"o":"m 596 354 b 615 282 610 333 615 310 l 615 169 b 596 97 615 143 610 118 b 526 26 586 82 544 39 b 443 0 504 10 472 0 l 71 0 l 68 0 l 68 831 l 68 833 l 564 833 l 564 756 l 149 756 l 149 454 l 443 454 b 526 428 472 454 504 443 b 596 354 544 414 586 369 m 535 169 l 535 283 b 532 306 535 292 535 300 b 465 372 519 329 488 361 b 442 378 460 376 450 378 l 149 378 l 149 76 l 149 78 l 442 78 b 465 82 450 78 460 79 b 532 147 488 94 519 125 b 535 169 535 153 535 161 "},"Г":{"ha":653,"x_min":0,"x_max":0,"o":"m 550 833 l 550 756 l 149 756 l 149 0 l 68 0 l 68 833 l 550 833 "},"Д":{"ha":811,"x_min":0,"x_max":0,"o":"m 617 78 l 685 78 l 658 -133 l 579 -133 l 596 0 l 53 0 l 53 -133 l -25 -133 l -25 78 b 39 81 -17 78 32 78 b 110 140 63 93 94 121 b 121 168 114 146 119 154 l 197 833 l 617 833 l 617 78 m 269 756 l 199 164 b 165 88 193 132 182 108 b 154 78 161 83 160 82 l 538 78 l 538 756 l 269 756 "},"Е":{"ha":692,"x_min":0,"x_max":0,"o":"m 68 0 l 68 833 l 546 833 l 546 756 l 149 756 l 149 456 l 525 456 l 525 378 l 149 378 l 149 78 l 546 78 l 546 0 "},"Ж":{"ha":1100,"x_min":0,"x_max":0,"o":"m 7 0 l 361 417 l 8 833 l 111 833 l 429 456 l 474 456 l 474 833 l 554 833 l 554 456 l 600 456 l 915 833 l 1017 833 l 668 417 l 1018 0 l 917 0 l 599 379 l 554 379 l 554 0 l 474 0 l 474 379 l 429 379 l 111 0 "},"Л":{"ha":785,"x_min":0,"x_max":0,"o":"m 131 833 l 636 833 l 636 0 l 557 0 l 557 756 l 210 756 l 210 178 b 190 111 210 154 203 131 b 93 14 175 88 119 29 b 21 -6 74 3 44 -6 l -42 -6 l -42 72 l 19 72 b 39 76 25 72 33 74 b 125 161 64 90 107 131 b 131 182 129 167 131 176 l 131 833 "},"К":{"ha":696,"x_min":0,"x_max":0,"o":"m 511 0 l 193 378 l 149 378 l 149 0 l 68 0 l 68 833 l 149 833 l 149 454 l 193 454 l 510 833 l 613 833 l 261 417 l 614 0 "},"Й":{"ha":785,"x_min":0,"x_max":0,"o":"m 433 1039 b 486 1039 433 1039 483 1039 b 353 907 486 965 426 907 b 222 1039 279 907 222 965 l 275 1039 b 353 960 275 996 310 960 b 433 1039 396 960 433 996 m 635 0 l 554 0 l 554 721 l 178 0 l 71 0 l 71 833 l 151 833 l 151 122 l 528 833 l 635 833 "},"И":{"ha":785,"x_min":0,"x_max":0,"o":"m 635 833 l 635 0 l 554 0 l 554 721 l 178 0 l 71 0 l 71 833 l 151 833 l 151 122 l 528 833 l 635 833 "},"П":{"ha":769,"x_min":0,"x_max":0,"o":"m 619 0 l 539 0 l 539 754 l 149 754 l 149 0 l 68 0 l 68 833 l 619 833 "},"У":{"ha":631,"x_min":0,"x_max":0,"o":"m 258 0 l 176 0 l 269 239 l 217 239 l -3 833 l 81 833 l 269 325 l 300 325 l 493 833 l 575 833 "},"Ф":{"ha":815,"x_min":0,"x_max":0,"o":"m 682 656 l 682 176 b 664 111 682 153 678 131 b 571 14 649 88 596 31 b 499 -7 551 3 522 -7 l 410 -7 l 410 -86 l 333 -86 l 333 -7 l 243 -7 b 171 14 219 -8 192 1 b 79 111 146 29 94 88 b 61 176 67 131 61 153 l 61 656 b 79 722 61 679 67 703 b 171 819 94 746 146 804 b 243 840 192 832 219 840 l 333 840 l 333 921 l 410 921 l 410 840 l 500 840 b 571 819 522 840 551 832 b 665 722 596 804 649 746 b 682 656 678 703 682 679 m 249 72 l 333 72 l 333 763 l 249 763 b 232 758 243 763 236 761 b 146 674 210 747 164 706 b 142 653 143 668 142 660 l 142 181 b 146 161 142 175 143 167 b 232 75 164 129 210 86 b 249 72 235 74 242 72 m 596 161 b 601 181 599 167 601 175 l 601 653 b 596 674 601 658 600 667 b 511 758 576 706 533 747 b 493 763 506 761 500 763 l 410 763 l 410 72 l 493 72 b 511 75 500 72 508 74 b 596 161 533 86 578 129 "},"Х":{"ha":690,"x_min":0,"x_max":0,"o":"m 306 354 l 86 0 l -4 0 l 261 426 l 10 833 l 99 833 l 306 499 b 513 833 372 607 444 725 l 601 833 l 351 426 l 615 0 l 525 0 "},"Ц":{"ha":793,"x_min":0,"x_max":0,"o":"m 667 78 l 642 -133 l 563 -133 l 578 0 l 68 0 l 68 833 l 149 833 l 149 78 l 518 78 l 518 833 l 599 833 l 599 78 "},"Ї":{"ha":319,"x_min":0,"x_max":0,"o":"m 68 0 l 68 833 l 149 833 l 149 0 m 157 925 l 157 1032 l 263 1032 l 263 925 m -46 925 l -46 1032 l 60 1032 l 60 925 "},"Ґ":{"ha":653,"x_min":0,"x_max":0,"o":"m 550 756 l 149 756 l 149 0 l 68 0 l 68 833 l 472 833 l 472 985 l 550 985 "},"Ч":{"ha":732,"x_min":0,"x_max":0,"o":"m 500 833 l 582 833 l 582 0 l 500 0 l 500 379 l 222 379 b 138 406 193 379 160 389 b 68 478 119 419 79 461 b 47 549 56 497 47 522 l 47 833 l 129 833 l 129 547 b 132 529 129 539 131 532 b 199 461 144 504 176 474 b 224 457 206 458 214 457 l 500 457 l 500 833 "},"Щ":{"ha":940,"x_min":0,"x_max":0,"o":"m 813 78 l 788 -133 l 708 -133 l 724 0 l 69 0 l 69 833 l 150 833 l 150 78 l 363 78 l 363 833 l 443 833 l 443 78 l 664 78 l 664 833 l 744 833 l 744 78 "},"Ъ":{"ha":851,"x_min":0,"x_max":0,"o":"m 696 356 b 715 282 710 333 715 310 l 715 171 b 696 99 715 144 710 119 b 625 26 685 82 643 40 b 542 0 603 10 571 0 l 168 0 l 168 758 l 8 758 l 8 833 l 249 833 l 249 454 l 542 454 b 625 428 571 454 603 444 b 696 356 643 414 685 371 m 635 172 l 635 283 b 631 306 635 292 633 300 b 564 374 618 329 586 361 b 540 378 558 376 549 378 l 249 378 l 249 78 l 540 78 b 564 83 549 78 558 81 b 631 149 586 96 618 126 b 635 172 633 154 635 163 "},"Ы":{"ha":992,"x_min":0,"x_max":0,"o":"m 764 833 l 842 833 l 842 0 l 764 0 l 764 833 m 525 428 b 596 356 543 414 585 371 b 615 283 610 335 615 310 l 615 171 b 596 99 615 143 610 119 b 525 26 585 82 543 40 b 442 0 503 11 471 0 l 68 0 l 68 833 l 149 833 l 149 454 l 442 454 b 525 428 471 454 503 444 m 535 171 l 535 283 b 531 306 535 292 533 300 b 465 374 518 329 486 361 b 440 378 458 376 450 378 l 149 378 l 149 379 l 149 78 l 440 78 b 465 83 450 78 458 81 b 531 149 486 96 518 125 b 535 171 533 154 535 163 "},"Ь":{"ha":751,"x_min":0,"x_max":0,"o":"m 596 356 b 615 283 608 335 615 310 l 615 169 b 596 99 615 143 608 119 b 525 26 585 82 543 40 b 442 0 503 11 471 0 l 68 0 l 68 833 l 149 833 l 149 454 l 442 454 b 525 428 471 454 503 444 b 596 356 543 414 585 371 m 535 171 l 535 283 b 531 306 535 292 533 300 b 465 374 518 329 486 361 b 440 378 458 376 450 378 l 149 378 l 149 379 l 149 78 l 440 78 b 465 83 450 78 458 81 b 531 149 486 96 518 125 b 535 171 533 154 535 163 "},"Э":{"ha":742,"x_min":0,"x_max":0,"o":"m 606 654 l 606 176 b 588 113 604 154 600 131 b 494 15 572 89 519 31 b 422 -7 474 3 446 -7 l 344 -7 l 226 -7 b 156 15 204 -7 175 3 b 69 103 126 33 89 76 b 39 156 60 117 47 136 l 118 179 b 126 161 118 179 124 167 b 211 76 146 128 188 88 b 231 72 215 74 224 72 l 417 72 b 435 76 422 72 429 74 b 519 161 457 88 501 129 b 525 182 522 167 525 175 l 525 385 l 190 385 l 190 463 l 525 463 l 525 651 b 519 671 525 658 522 667 b 435 757 501 703 457 746 b 417 761 429 760 424 761 l 231 761 b 211 757 224 761 215 760 b 126 672 188 744 146 704 b 118 654 124 667 118 654 l 39 676 b 69 731 47 696 60 717 b 156 818 89 757 126 800 b 226 839 175 831 204 839 l 424 839 b 494 818 446 839 475 829 b 588 721 519 803 572 744 b 606 654 601 701 606 678 "},"Ю":{"ha":1010,"x_min":0,"x_max":0,"o":"m 876 653 l 876 178 l 875 178 b 858 111 875 154 871 131 b 764 15 843 88 790 31 b 693 -7 744 3 715 -7 l 471 -7 b 400 15 449 -7 419 3 b 306 111 375 31 322 88 b 289 178 293 131 289 154 l 289 379 l 146 379 l 146 0 l 68 0 l 68 833 l 146 833 l 146 458 l 289 458 l 289 653 b 306 721 289 678 293 701 b 400 817 321 744 374 801 b 471 839 419 829 449 839 l 693 839 b 765 817 717 839 744 829 b 858 721 790 801 843 744 b 876 653 871 701 876 678 m 792 160 b 796 181 794 165 796 174 l 796 653 b 792 672 796 658 794 667 b 706 757 774 704 728 746 b 689 761 701 760 694 761 l 478 761 b 460 757 471 761 464 760 b 374 672 438 746 392 704 b 369 653 371 667 369 658 l 369 181 b 374 160 369 174 371 165 b 460 75 393 128 438 86 b 478 71 464 72 471 71 l 688 71 b 706 75 694 71 701 72 b 792 160 728 86 774 128 "},"я":{"ha":665,"x_min":0,"x_max":0,"o":"m 200 261 b 136 285 176 264 153 271 b 79 346 117 299 89 331 b 58 419 65 367 58 392 l 58 446 b 79 517 60 472 65 496 b 136 578 89 533 117 564 b 221 604 158 594 192 604 l 540 604 l 540 0 l 465 0 l 465 260 l 288 260 l 119 0 l 25 0 m 138 464 b 133 440 135 458 133 450 l 133 421 b 138 400 133 413 135 406 b 197 336 150 376 175 349 b 222 331 204 332 214 331 l 465 331 l 465 532 l 222 532 b 199 526 214 532 204 531 b 138 464 176 514 150 488 "},"а":{"ha":653,"x_min":0,"x_max":0,"o":"m 446 0 l 438 69 b 385 22 421 51 400 33 b 317 -7 364 7 340 -7 l 194 -7 b 110 19 163 -7 132 3 b 49 85 92 35 60 69 b 28 158 35 106 28 131 l 28 186 b 49 260 28 215 35 239 b 110 325 60 275 92 310 b 194 351 132 342 163 351 l 436 351 l 436 436 b 433 458 436 447 435 454 b 367 526 421 482 389 514 b 342 532 360 531 351 532 l 211 532 b 188 526 201 532 194 531 b 121 457 165 514 136 481 l 49 481 b 69 513 53 488 60 500 b 132 579 82 531 113 564 b 215 604 154 596 183 604 l 343 604 b 429 578 375 604 407 594 b 492 513 450 565 481 528 b 511 438 507 492 511 465 l 511 99 l 521 0 m 332 69 b 436 154 354 81 418 121 l 436 279 l 196 279 b 171 274 186 279 178 278 b 107 208 149 261 119 232 b 103 186 104 203 103 196 l 103 158 b 107 136 103 149 104 142 b 171 71 119 113 149 83 b 196 65 178 67 186 65 l 313 65 b 332 69 319 65 326 67 "},"б":{"ha":654,"x_min":0,"x_max":0,"o":"m 531 431 l 531 165 b 510 86 531 133 528 113 b 447 19 499 69 465 33 b 354 -7 419 -1 389 -7 l 232 -7 b 147 19 203 -7 169 3 b 76 94 128 33 86 78 b 56 168 63 115 56 140 l 56 507 l 56 663 b 76 732 56 689 63 713 b 147 807 86 749 128 793 b 232 833 169 824 203 833 l 388 833 l 365 761 l 233 761 b 208 756 224 761 215 758 b 135 679 186 743 149 703 b 131 656 132 674 131 665 l 131 532 b 185 578 150 551 167 565 b 253 604 206 592 229 604 l 354 604 b 447 578 389 604 419 599 b 510 511 467 564 500 526 b 531 431 528 483 531 464 m 388 72 b 451 139 410 85 438 115 b 456 164 456 146 456 158 l 456 428 b 451 458 456 436 454 453 b 386 526 433 488 411 510 b 354 532 378 532 361 532 l 257 532 b 233 525 247 532 238 528 b 133 442 213 515 146 469 l 131 435 l 131 171 b 135 147 131 161 132 153 b 208 72 149 124 186 85 b 232 65 215 68 222 65 l 358 65 b 388 72 367 65 381 68 "},"в":{"ha":661,"x_min":0,"x_max":0,"o":"m 513 351 b 468 300 504 339 485 317 b 513 251 485 285 504 264 b 533 178 526 231 533 206 l 533 151 b 513 81 532 125 526 101 b 456 19 503 64 475 33 b 371 -7 433 3 400 -7 l 56 -7 l 56 604 l 371 604 b 456 576 400 603 433 593 b 513 517 475 563 503 532 b 533 442 526 494 533 469 b 533 421 533 429 533 424 b 513 351 532 394 526 371 m 369 532 l 131 532 l 131 336 l 369 336 b 393 340 378 336 388 338 b 454 404 415 353 442 381 b 458 428 457 410 458 418 l 458 442 b 454 463 458 450 457 457 b 394 526 442 486 417 514 b 369 532 388 531 378 532 m 454 133 b 458 157 457 139 458 147 l 458 178 b 454 199 458 186 457 193 b 394 261 442 222 417 249 b 369 267 388 265 378 267 l 131 267 l 131 65 l 369 65 b 393 71 378 65 388 67 b 454 133 415 83 442 110 "},"г":{"ha":524,"x_min":0,"x_max":0,"o":"m 443 597 l 443 525 l 131 525 l 131 0 l 56 0 l 56 597 l 443 597 "},"Ё":{"ha":692,"x_min":0,"x_max":0,"o":"m 68 0 l 68 833 l 546 833 l 546 756 l 149 756 l 149 456 l 525 456 l 525 378 l 149 378 l 149 78 l 546 78 l 546 0 m 371 969 l 371 1076 l 476 1076 l 476 969 m 168 969 l 168 1076 l 274 1076 l 274 969 "},"д":{"ha":713,"x_min":0,"x_max":0,"o":"m 540 72 l 601 72 l 575 -133 l 504 -133 l 519 0 l 61 0 l 61 -133 l -10 -133 l -10 72 b 39 76 -1 72 32 72 b 107 142 63 88 94 121 b 118 167 111 147 117 157 l 188 597 l 540 597 l 540 72 m 146 72 l 467 72 l 467 525 l 249 525 l 193 165 b 157 81 188 131 176 100 b 146 72 153 76 149 74 "},"е":{"ha":654,"x_min":0,"x_max":0,"o":"m 451 139 l 453 142 l 526 117 b 507 86 521 106 515 97 b 444 19 496 71 464 33 b 360 -7 422 3 390 -7 l 218 -7 b 132 19 188 -7 154 3 b 69 86 113 33 81 71 b 49 160 56 107 49 132 l 49 438 b 69 511 49 465 56 490 b 132 578 81 526 113 564 b 218 604 154 594 188 604 l 357 604 b 443 578 388 604 421 594 b 506 511 463 564 494 526 b 525 438 519 490 525 465 l 525 265 l 124 265 l 124 163 b 128 139 124 153 125 144 b 193 71 140 115 171 83 b 217 65 200 67 207 65 l 363 65 b 388 71 372 65 381 67 b 451 139 410 83 440 118 m 128 458 b 124 435 125 453 124 444 l 124 338 l 450 338 l 450 435 b 447 458 450 444 450 453 b 381 526 435 482 403 514 b 356 532 374 531 365 532 l 218 532 b 194 526 208 532 201 531 b 128 458 172 514 140 482 "},"ж":{"ha":910,"x_min":0,"x_max":0,"o":"m 560 313 l 847 0 l 738 0 l 493 276 l 451 276 l 451 0 l 376 0 l 376 276 l 336 276 l 90 0 l -18 0 l 269 313 l 11 597 l 114 597 l 336 349 l 376 349 l 376 597 l 451 597 l 451 349 l 493 349 l 715 597 l 818 597 l 560 313 "},"з":{"ha":621,"x_min":0,"x_max":0,"o":"m 483 251 b 503 179 497 231 503 206 l 503 153 b 483 81 503 126 497 101 b 426 19 472 64 444 33 b 340 -7 403 3 371 -7 l 193 -7 b 107 19 163 -7 129 3 b 47 86 89 33 57 71 b 28 117 39 97 31 111 l 99 142 l 100 139 b 164 71 111 118 142 83 b 189 65 171 67 179 65 l 339 65 b 364 71 349 65 357 67 b 425 133 386 83 411 110 b 428 157 428 139 428 147 l 428 178 b 425 199 428 186 428 193 b 364 263 411 222 386 250 b 339 265 358 265 349 265 l 190 265 l 190 338 l 339 338 b 364 343 349 338 357 339 b 425 406 386 356 411 383 b 428 429 428 413 428 421 l 428 443 b 425 464 428 451 428 458 b 364 526 411 488 386 514 b 339 532 358 531 349 532 l 201 532 b 176 526 192 532 182 531 b 110 456 154 514 122 479 l 38 481 l 57 511 b 119 578 68 526 100 564 b 204 604 142 594 175 604 l 340 604 b 426 578 371 604 404 594 b 483 517 444 564 472 533 b 503 443 497 496 501 472 l 503 422 b 483 353 503 397 496 374 b 439 303 475 340 456 318 b 483 251 456 288 475 264 "},"и":{"ha":675,"x_min":0,"x_max":0,"o":"m 443 597 l 536 597 l 536 0 l 461 0 l 461 494 l 144 0 l 56 0 l 56 597 l 131 597 l 131 110 l 443 597 "},"к":{"ha":593,"x_min":0,"x_max":0,"o":"m 424 0 l 181 276 l 138 276 l 138 0 l 63 0 l 63 597 l 138 597 l 138 349 l 181 349 l 401 597 l 504 597 l 247 313 l 532 0 "},"л":{"ha":674,"x_min":0,"x_max":0,"o":"m 535 597 l 535 0 l 460 0 l 460 525 l 168 525 b 168 161 168 161 168 161 b 147 86 168 133 161 107 b 86 19 140 74 101 31 b 0 -7 64 3 29 -7 l -39 -7 l -39 65 l -1 65 b 25 71 7 65 18 67 b 89 139 44 82 81 119 b 93 163 93 149 93 157 l 93 597 "},"м":{"ha":757,"x_min":0,"x_max":0,"o":"m 522 597 l 618 597 l 618 0 l 543 0 l 543 482 l 365 153 l 310 153 l 131 489 l 131 0 l 56 0 l 56 597 l 154 597 l 338 247 l 522 597 "},"Њ":{"ha":1197,"x_min":0,"x_max":0,"o":"m 1042 356 b 1061 283 1054 335 1061 310 l 1061 169 b 1042 99 1061 143 1054 119 b 971 26 1031 82 989 40 b 888 0 949 11 917 0 l 528 0 l 528 378 l 149 378 l 149 0 l 68 0 l 68 833 l 149 833 l 149 456 l 528 456 l 528 833 l 608 833 l 608 454 l 888 454 b 971 428 917 454 949 444 b 1042 356 989 414 1031 371 m 608 378 l 608 78 l 886 78 b 911 83 896 78 904 81 b 976 149 932 96 964 125 b 981 171 979 154 981 163 l 981 283 b 976 306 981 292 979 300 b 911 374 964 329 932 361 b 886 378 904 376 896 378 "},"н":{"ha":675,"x_min":0,"x_max":0,"o":"m 461 597 l 536 597 l 536 0 l 461 0 l 461 278 l 131 278 l 131 0 l 56 0 l 56 597 l 131 597 l 131 350 l 461 350 l 461 597 "},"о":{"ha":656,"x_min":0,"x_max":0,"o":"m 524 160 b 504 86 524 132 518 107 b 442 19 493 71 461 33 b 356 -7 419 3 386 -7 l 217 -7 b 131 19 186 -7 153 3 b 68 86 111 33 79 71 b 49 160 54 107 49 132 l 49 438 b 68 511 49 465 54 490 b 131 578 79 526 111 564 b 217 604 153 594 186 604 l 356 604 b 442 578 386 604 419 594 b 504 511 461 564 493 526 b 524 438 518 490 524 465 l 524 160 m 449 435 b 446 458 449 444 449 453 b 379 526 433 482 401 514 b 354 532 372 531 364 532 l 218 532 b 193 526 208 532 200 531 b 128 458 171 514 140 482 b 124 435 125 453 124 444 l 124 163 b 128 139 124 153 125 144 b 193 71 140 115 171 83 b 218 65 200 67 208 65 l 354 65 b 379 71 364 65 372 67 b 446 139 401 83 433 115 b 449 163 449 144 449 153 "},"п":{"ha":649,"x_min":0,"x_max":0,"o":"m 56 597 l 510 597 l 510 0 l 435 0 l 435 525 l 131 525 l 131 0 l 56 0 l 56 594 l 56 597 "},"р":{"ha":671,"x_min":0,"x_max":0,"o":"m 518 86 b 456 19 507 71 475 33 b 371 -7 433 3 401 -7 l 263 -7 b 193 22 239 -7 213 8 b 139 72 176 35 157 53 l 139 -233 l 64 -233 l 64 499 l 56 597 l 131 597 l 139 524 b 193 575 157 543 176 563 b 263 604 213 589 239 604 l 371 604 b 456 578 401 604 433 594 b 518 511 475 564 507 526 b 539 438 532 490 539 465 l 539 160 b 518 86 539 132 532 107 m 464 435 b 460 458 464 444 463 453 b 394 526 447 482 417 514 b 369 532 388 531 379 532 l 267 532 b 247 528 260 532 253 531 b 142 443 224 515 161 476 b 139 435 140 440 139 438 l 139 161 b 142 154 139 158 140 157 b 247 69 161 119 224 82 b 267 65 253 67 260 65 l 369 65 b 394 71 379 65 388 67 b 460 139 417 83 447 115 b 464 163 463 144 464 153 l 464 435 "},"с":{"ha":633,"x_min":0,"x_max":0,"o":"m 525 117 b 443 19 508 86 476 43 b 358 -7 421 3 389 -7 l 217 -7 b 131 19 186 -7 153 3 b 68 86 111 33 79 71 b 49 160 54 107 49 132 l 49 438 b 68 511 49 465 54 490 b 131 578 79 526 111 564 b 217 604 153 594 186 604 l 354 604 b 439 578 385 604 417 594 b 521 479 474 553 503 508 l 449 456 b 382 526 438 479 404 514 b 357 532 375 531 367 532 l 218 532 b 193 526 208 532 200 531 b 128 458 171 514 140 482 b 124 435 125 453 124 444 l 124 163 b 128 139 124 153 125 144 b 192 71 140 115 169 83 b 217 65 199 67 207 65 l 361 65 b 386 71 371 65 379 67 b 451 139 408 83 442 118 l 453 142 l 525 117 "},"т":{"ha":600,"x_min":0,"x_max":0,"o":"m 289 525 l 289 0 l 214 0 l 214 525 l 8 525 l 8 597 l 510 597 l 510 525 l 289 525 "},"у":{"ha":583,"x_min":0,"x_max":0,"o":"m 424 597 l 504 597 l 233 -233 l 154 -233 l 233 0 l 201 0 l 7 597 l 88 597 l 251 76 l 260 76 l 424 597 "},"ф":{"ha":678,"x_min":0,"x_max":0,"o":"m 546 439 l 546 157 b 525 86 546 131 539 107 b 463 19 514 69 481 33 b 376 -7 440 3 407 -7 l 335 -7 l 335 -233 l 265 -233 l 265 -7 l 224 -7 b 139 19 194 -7 161 3 b 76 86 119 33 86 69 b 56 157 63 107 56 131 l 56 439 b 76 511 56 465 61 490 b 139 578 86 526 119 564 b 224 604 161 594 194 604 l 265 604 l 265 833 l 335 833 l 335 604 l 376 604 b 463 578 407 604 440 594 b 525 511 481 564 514 526 b 546 439 539 490 546 465 m 225 65 l 265 65 l 265 532 l 225 532 b 200 528 215 532 207 531 b 135 458 178 515 147 482 b 131 439 132 453 131 446 l 131 158 b 135 139 131 150 132 144 b 200 71 147 115 178 83 b 225 65 207 67 215 65 m 400 71 b 467 139 422 83 454 115 b 471 158 469 144 471 150 l 471 439 b 467 458 471 446 469 453 b 400 528 454 482 422 515 b 376 532 394 531 385 532 l 335 532 l 335 65 l 376 65 b 400 71 385 65 394 67 "},"х":{"ha":597,"x_min":0,"x_max":0,"o":"m 411 0 l 257 243 l 103 0 l 14 0 l 213 307 l 21 597 l 113 597 l 257 365 l 397 597 l 489 597 l 301 307 l 500 0 l 411 0 "},"ц":{"ha":668,"x_min":0,"x_max":0,"o":"m 557 72 l 532 -133 l 461 -133 l 475 0 l 56 0 l 56 597 l 131 597 l 131 72 l 422 72 l 422 597 l 497 597 l 497 72 "},"ч":{"ha":671,"x_min":0,"x_max":0,"o":"m 457 597 l 532 597 l 532 0 l 457 0 l 457 261 l 218 261 b 133 286 189 261 156 269 b 76 347 114 300 86 332 b 56 417 63 368 57 392 l 56 597 l 131 597 l 131 424 b 135 400 131 415 131 407 b 194 339 149 378 172 350 b 219 333 201 335 210 333 l 457 333 l 457 597 "},"ш":{"ha":811,"x_min":0,"x_max":0,"o":"m 672 597 l 672 0 l 64 0 l 64 597 l 139 597 l 139 72 l 331 72 l 331 597 l 406 597 l 406 72 l 597 72 l 597 597 l 672 597 "},"щ":{"ha":844,"x_min":0,"x_max":0,"o":"m 672 72 l 733 72 l 708 -133 l 638 -133 l 651 0 l 64 0 l 64 597 l 139 597 l 139 72 l 329 72 l 329 597 l 404 597 l 404 72 l 597 72 l 597 597 l 672 597 l 672 72 "},"ъ":{"ha":678,"x_min":0,"x_max":0,"o":"m 560 178 l 560 151 b 539 81 558 125 553 101 b 482 19 529 64 501 33 b 397 -7 460 3 426 -7 l 78 -7 l 78 528 l -24 528 l -24 597 l 153 597 l 153 338 l 397 338 b 482 313 426 338 460 329 b 539 251 501 299 529 267 b 560 178 553 231 560 206 m 481 133 b 485 157 483 139 485 147 l 485 176 b 481 197 485 185 483 192 b 421 260 468 221 443 247 b 396 265 414 264 404 265 l 153 265 l 153 65 l 396 65 b 419 71 404 65 414 67 b 481 133 442 83 468 110 "},"ы":{"ha":851,"x_min":0,"x_max":0,"o":"m 538 154 b 517 81 538 126 531 101 b 460 19 507 64 479 33 b 375 -7 438 3 404 -7 l 56 -7 l 56 597 l 131 597 l 131 338 l 375 338 b 460 313 404 338 438 329 b 517 251 479 299 507 267 b 538 178 531 231 538 204 m 463 153 l 463 179 b 458 197 463 186 461 192 b 399 260 446 221 421 247 b 374 265 392 264 382 265 l 131 265 l 131 65 l 374 65 b 397 71 382 65 392 67 b 458 133 419 83 446 110 m 713 597 l 713 0 l 638 0 l 638 597 "},"ь":{"ha":657,"x_min":0,"x_max":0,"o":"m 538 178 l 538 151 b 517 81 536 125 531 101 b 460 19 507 64 479 33 b 375 -7 438 3 404 -7 l 56 -7 l 56 597 l 131 597 l 131 338 l 375 338 b 460 313 404 338 438 329 b 517 251 479 299 507 267 b 538 178 531 231 538 206 m 458 133 b 463 157 461 139 463 147 l 463 176 b 458 197 463 185 461 192 b 399 260 446 221 421 247 b 374 265 392 264 382 265 l 131 265 l 131 65 l 374 65 b 397 71 382 65 392 67 b 458 133 419 83 446 110 "},"ю":{"ha":838,"x_min":0,"x_max":0,"o":"m 706 157 b 685 86 704 131 699 107 b 622 19 675 69 642 33 b 538 -7 600 3 567 -7 l 397 -7 b 313 19 368 -7 335 3 b 250 86 293 33 260 69 b 229 157 236 107 229 131 l 229 263 l 131 263 l 131 0 l 56 0 l 56 597 l 131 597 l 131 335 l 229 335 l 229 439 b 250 511 229 465 236 490 b 313 578 260 526 293 564 b 397 604 335 594 368 604 l 538 604 b 622 578 567 604 600 594 b 685 511 642 564 675 526 b 706 439 699 490 704 465 m 560 71 b 626 139 582 83 614 115 b 631 158 629 144 631 150 l 631 440 b 626 460 631 447 629 454 b 560 528 614 483 582 515 b 536 532 554 531 544 532 l 399 532 b 374 528 390 532 381 531 b 308 460 351 515 321 483 b 304 440 306 454 304 447 l 304 158 b 308 139 304 150 306 144 b 374 71 321 115 351 83 b 399 65 381 67 390 65 l 536 65 b 560 71 544 65 554 67 "},"Є":{"ha":739,"x_min":0,"x_max":0,"o":"m 54 654 b 72 721 54 678 58 701 b 165 818 88 744 140 803 b 236 839 185 829 214 839 l 433 839 b 504 818 456 839 485 831 b 590 731 533 800 571 757 b 621 676 600 717 613 696 l 542 654 b 533 672 542 654 536 667 b 449 757 514 704 472 744 b 429 761 444 760 436 761 l 243 761 b 225 757 236 761 231 760 b 140 671 203 746 158 703 b 135 651 138 667 135 658 l 135 463 l 501 463 l 501 385 l 135 385 l 135 182 b 140 161 135 175 138 167 b 225 76 158 129 203 88 b 243 72 231 74 238 72 l 429 72 b 449 76 436 72 444 74 b 533 161 472 88 514 128 b 542 179 536 167 542 179 l 621 156 b 590 103 613 136 600 117 b 504 15 571 76 533 33 b 433 -7 485 3 456 -7 l 315 -7 l 238 -7 b 165 15 214 -7 186 3 b 72 113 140 31 88 89 b 54 176 60 131 56 154 l 54 654 "},"є":{"ha":656,"x_min":0,"x_max":0,"o":"m 49 439 b 69 511 49 465 56 490 b 132 578 79 526 113 564 b 217 604 154 594 188 604 l 372 604 b 458 578 403 604 436 594 b 518 513 476 564 506 531 b 539 479 526 501 536 486 l 467 457 l 465 460 b 401 526 454 479 424 514 b 375 532 394 531 386 532 l 218 532 b 194 528 210 532 200 531 b 128 460 172 515 140 483 b 124 440 125 454 124 447 l 124 338 l 392 338 l 392 265 l 124 265 l 124 158 b 128 139 124 150 125 144 b 194 71 140 115 172 83 b 218 65 200 67 210 65 l 376 65 b 401 71 386 65 394 67 b 465 139 424 83 454 118 l 467 142 l 539 117 b 519 85 536 111 526 94 b 458 19 508 69 476 33 b 372 -7 436 3 403 -7 l 217 -7 b 132 19 188 -7 154 3 b 69 86 113 33 79 69 b 49 157 56 107 50 131 l 49 439 "},"й":{"ha":675,"x_min":0,"x_max":0,"o":"m 443 597 l 536 597 l 536 0 l 461 0 l 461 494 l 144 0 l 56 0 l 56 597 l 131 597 l 131 110 l 443 597 m 369 850 b 422 850 369 850 419 850 b 289 718 422 776 363 718 b 158 850 215 718 158 776 l 211 850 b 289 771 211 807 246 771 b 369 850 332 771 369 807 "},"ў":{"ha":583,"x_min":0,"x_max":0,"o":"m 424 597 l 504 597 l 233 -233 l 154 -233 l 233 0 l 201 0 l 7 597 l 88 597 l 251 76 l 260 76 l 424 597 m 336 850 b 389 850 336 850 386 850 b 256 718 389 776 329 718 b 125 850 182 718 125 776 l 178 850 b 256 771 178 807 213 771 b 336 850 299 771 336 807 "},"Ў":{"ha":621,"x_min":0,"x_max":0,"o":"m 363 1086 b 415 1086 363 1086 413 1086 b 282 954 415 1013 356 954 b 151 1086 208 954 151 1013 l 204 1086 b 282 1007 204 1043 239 1007 b 363 1086 325 1007 363 1043 m 258 0 l 176 0 l 269 239 l 217 239 l -3 833 l 81 833 l 269 325 l 300 325 l 493 833 l 575 833 "},"ё":{"ha":657,"x_min":0,"x_max":0,"o":"m 458 139 l 460 142 l 533 117 b 514 86 528 106 522 97 b 451 19 503 71 471 33 b 367 -7 429 3 397 -7 l 225 -7 b 139 19 194 -7 161 3 b 76 86 119 33 88 71 b 56 160 63 107 56 132 l 56 438 b 76 511 56 465 63 490 b 139 578 88 526 119 564 b 225 604 161 594 194 604 l 364 604 b 450 578 394 604 428 594 b 513 511 469 564 501 526 b 532 438 526 490 532 465 l 532 265 l 131 265 l 131 163 b 135 139 131 153 132 144 b 200 71 147 115 178 83 b 224 65 207 67 214 65 l 369 65 b 394 71 379 65 388 67 b 458 139 417 83 447 118 m 135 458 b 131 435 132 453 131 444 l 131 338 l 457 338 l 457 435 b 454 458 457 444 457 453 b 388 526 442 482 410 514 b 363 532 381 531 372 532 l 225 532 b 201 526 215 532 208 531 b 135 458 179 514 147 482 m 347 733 l 347 840 l 453 840 l 453 733 m 144 733 l 144 840 l 250 840 l 250 733 "},"Џ":{"ha":765,"x_min":0,"x_max":0,"o":"m 69 833 l 150 833 l 150 79 l 536 79 l 536 833 l 617 833 l 617 0 l 383 0 l 383 -147 l 304 -147 l 304 0 l 69 0 "},"Љ":{"ha":1206,"x_min":0,"x_max":0,"o":"m 1050 356 b 1069 283 1063 335 1069 310 l 1069 169 b 1050 99 1069 143 1063 119 b 979 26 1039 82 997 40 b 896 0 957 11 925 0 l 536 0 l 536 756 l 211 756 l 211 178 b 192 111 211 154 204 131 b 94 14 176 88 121 29 b 21 -6 75 3 44 -6 l -42 -6 l -42 72 l 19 72 b 39 76 25 72 33 74 b 125 161 64 90 107 131 b 131 182 129 167 131 176 l 131 833 l 617 833 l 617 454 l 896 454 b 979 428 925 454 957 444 b 1050 356 997 414 1039 371 m 989 283 b 985 306 989 292 988 300 b 919 374 972 329 940 361 b 894 378 913 376 904 378 l 617 378 l 617 78 l 894 78 b 919 83 904 78 913 81 b 985 149 940 96 972 125 b 989 171 988 154 989 163 "},"Ћ":{"ha":861,"x_min":0,"x_max":0,"o":"m 643 0 l 643 435 b 639 458 643 444 642 453 b 581 522 626 482 603 510 b 556 528 574 526 565 528 l 461 528 b 440 524 454 528 446 526 b 336 439 417 511 356 474 l 333 433 l 333 0 l 251 0 l 251 756 l 14 756 l 14 833 l 569 833 l 569 756 l 333 756 l 333 535 b 457 604 363 567 408 604 l 557 604 b 642 578 586 604 619 594 b 704 511 661 564 693 526 b 725 438 718 490 725 465 l 725 0 "},"І":{"ha":300,"x_min":0,"x_max":0,"o":"m 68 0 l 68 833 l 149 833 l 149 0 "},"Ј":{"ha":632,"x_min":0,"x_max":0,"o":"m 493 181 b 475 113 493 157 488 132 b 382 17 460 89 407 32 b 310 -6 363 4 332 -6 l 201 -6 b 129 17 179 -6 149 4 b 44 104 100 35 64 78 b 14 158 35 118 22 139 l 92 181 b 185 76 111 143 156 92 b 206 72 189 74 199 72 l 303 72 b 319 76 310 72 315 74 b 407 164 342 88 389 132 b 413 182 410 169 413 175 l 413 833 l 493 833 l 493 181 "},"ј":{"ha":290,"x_min":0,"x_max":0,"o":"m 157 -74 b 136 -147 157 -101 150 -126 b 75 -214 125 -162 94 -200 b -10 -239 53 -231 19 -239 l -97 -239 l -97 -167 l -11 -167 b 14 -162 -1 -167 7 -167 b 78 -94 36 -150 65 -118 b 82 -71 81 -89 82 -81 l 82 597 l 157 597 l 157 -74 m 65 733 l 65 840 l 171 840 l 171 733 "},"Ѕ":{"ha":761,"x_min":0,"x_max":0,"o":"m 643 179 b 626 111 643 156 639 131 b 531 15 611 88 556 31 b 460 -7 511 3 482 -7 l 229 -7 b 157 15 207 -7 176 3 b 71 103 128 33 90 76 b 40 157 61 117 49 138 l 119 179 b 129 163 125 167 129 163 b 214 75 149 129 190 88 b 233 71 218 72 226 71 l 454 71 b 471 75 461 71 467 72 b 558 158 493 86 540 126 b 563 176 561 164 563 169 l 563 265 b 518 331 563 293 544 324 l 138 435 b 51 565 83 450 51 507 l 51 651 b 68 719 51 675 56 700 b 164 817 83 743 139 801 b 235 839 183 829 213 839 l 442 839 b 513 817 464 839 493 829 b 599 729 542 799 579 756 b 631 675 608 715 622 694 l 550 651 b 540 669 544 664 540 669 b 456 757 522 703 479 744 b 438 761 451 760 444 761 l 242 761 b 224 757 235 761 228 760 b 138 676 201 746 156 708 b 132 658 135 671 132 665 l 132 571 b 175 508 132 543 150 515 l 554 403 b 643 274 608 388 643 332 l 643 179 "},"ѕ":{"ha":649,"x_min":0,"x_max":0,"o":"m 524 154 b 503 81 524 126 517 101 b 446 19 492 65 465 33 b 361 -7 424 3 390 -7 l 194 -7 b 110 19 165 -7 132 3 b 49 85 90 33 60 69 b 29 117 42 96 32 110 l 101 142 b 167 71 113 118 144 83 b 192 65 174 67 182 65 l 360 65 b 383 71 369 65 376 67 b 444 133 406 83 432 110 b 449 157 447 139 449 147 l 449 207 b 396 258 449 235 425 256 l 167 275 b 46 401 99 281 46 333 l 46 443 b 67 517 46 471 53 496 b 124 578 78 532 104 564 b 208 604 146 594 179 604 l 353 604 b 438 578 382 604 415 594 b 500 511 457 564 489 526 b 519 481 508 500 517 488 l 447 456 b 381 526 436 479 403 514 b 357 532 374 531 367 532 l 210 532 b 185 526 200 532 192 531 b 125 465 163 514 138 489 b 121 442 122 460 121 451 l 121 400 b 174 349 121 372 144 351 l 403 331 b 524 204 471 325 524 272 l 524 154 "},"Ѓ":{"ha":653,"x_min":0,"x_max":0,"o":"m 550 833 l 550 756 l 149 756 l 149 0 l 68 0 l 68 833 l 550 833 m 278 926 l 396 1081 l 493 1081 l 351 901 "},"ѓ":{"ha":524,"x_min":0,"x_max":0,"o":"m 443 597 l 443 525 l 131 525 l 131 0 l 56 0 l 56 597 l 443 597 m 193 732 l 311 886 l 408 886 l 267 707 "},"і":{"ha":300,"x_min":0,"x_max":0,"o":"m 71 0 l 71 597 l 146 597 l 146 0 m 56 733 l 56 840 l 161 840 l 161 733 "},"ї":{"ha":286,"x_min":0,"x_max":0,"o":"m 68 0 l 68 597 l 143 597 l 143 0 m 156 733 l 156 840 l 261 840 l 261 733 m -47 733 l -47 840 l 58 840 l 58 733 "},"ґ":{"ha":538,"x_min":0,"x_max":0,"o":"m 457 525 l 131 525 l 131 0 l 56 0 l 56 597 l 385 597 l 385 746 l 457 746 "},"Ќ":{"ha":704,"x_min":0,"x_max":0,"o":"m 511 0 l 193 378 l 149 378 l 149 0 l 68 0 l 68 833 l 149 833 l 149 454 l 193 454 l 510 833 l 613 833 l 261 417 l 614 0 m 278 926 l 396 1081 l 493 1081 l 351 901 "},"ќ":{"ha":599,"x_min":0,"x_max":0,"o":"m 417 0 l 157 276 l 131 276 l 131 0 l 56 0 l 56 597 l 131 597 l 131 349 l 157 349 l 394 597 l 497 597 l 224 313 l 525 0 m 224 732 l 342 886 l 439 886 l 297 707 "},"љ":{"ha":1029,"x_min":0,"x_max":0,"o":"m 910 158 b 889 88 908 132 903 108 b 832 26 879 71 851 40 b 747 0 810 10 776 0 l 442 0 l 442 525 l 168 525 l 168 161 b 147 86 168 133 161 107 b 86 19 140 74 101 31 b 0 -7 64 3 29 -7 l -39 -7 l -39 65 l -1 65 b 25 71 7 65 18 67 b 89 139 44 82 81 119 b 93 163 93 149 93 157 l 93 597 l 517 597 l 517 344 l 747 344 b 832 319 776 344 810 336 b 889 258 851 306 879 274 b 910 185 903 238 910 213 m 831 140 b 835 164 833 146 835 154 l 835 183 b 831 204 835 192 833 199 b 771 267 818 228 793 254 b 746 272 764 271 754 272 l 517 272 l 517 72 l 746 72 b 769 78 754 72 764 74 b 831 140 792 90 818 117 "},"њ":{"ha":1035,"x_min":0,"x_max":0,"o":"m 915 158 b 894 88 914 132 908 108 b 838 26 885 71 857 40 b 753 0 815 10 782 0 l 447 0 l 447 272 l 131 272 l 131 0 l 56 0 l 56 597 l 131 597 l 131 344 l 447 344 l 447 597 l 522 597 l 522 344 l 753 344 b 838 319 782 344 815 336 b 894 258 857 306 885 274 b 915 185 908 238 915 213 m 836 140 b 840 164 839 146 840 154 l 840 183 b 836 204 840 192 839 199 b 776 267 824 228 799 254 b 751 272 769 271 760 272 l 522 272 l 522 72 l 751 72 b 775 78 760 72 769 74 b 836 140 797 90 824 117 "},"ћ":{"ha":658,"x_min":0,"x_max":0,"o":"m 131 685 l 131 525 b 185 575 149 544 168 563 b 254 604 204 589 231 604 l 354 604 b 439 578 383 604 417 594 b 501 511 458 564 490 526 b 522 438 515 490 522 465 l 522 0 l 447 0 l 447 435 b 443 458 447 444 446 453 b 378 526 431 482 400 514 b 353 532 371 531 363 532 l 258 532 b 238 528 251 532 243 531 b 133 443 214 515 153 478 l 131 438 l 131 0 l 56 0 l 56 685 l -19 685 l -19 758 l 56 758 l 56 833 l 131 833 l 131 758 l 310 758 l 310 685 "}}}
